<svg width="38" height="38" viewBox="0 0 38 38" fill="none" xmlns="http://www.w3.org/2000/svg">
<path d="M18.7511 10.989C14.502 10.989 11.0576 14.4339 11.0576 18.6825C11.0576 20.7904 11.9063 22.699 13.2793 24.0889C13.0349 24.4021 12.6593 24.8819 12.144 25.5436C11.8624 25.9052 11.9277 26.425 12.2887 26.7071C12.4402 26.8248 12.6193 26.8823 12.7978 26.8823C13.0445 26.8823 13.2895 26.773 13.4528 26.5635C13.4528 26.5635 14.1466 25.6726 14.5673 25.1353C15.7725 25.9192 17.2074 26.3782 18.7517 26.3782C20.2959 26.3782 21.7314 25.9192 22.9371 25.1353C23.3573 25.6726 24.0511 26.5635 24.0511 26.5635C24.215 26.773 24.46 26.8823 24.7061 26.8823C24.884 26.8823 25.0642 26.8248 25.2146 26.7071C25.5762 26.425 25.6409 25.904 25.3593 25.5436C24.844 24.8819 24.4684 24.4015 24.224 24.0884C25.5964 22.699 26.4446 20.791 26.4446 18.6825C26.4446 14.4339 23.0002 10.989 18.7511 10.989ZM12.5399 18.6825C12.5399 15.2578 15.327 12.4713 18.7517 12.4713C22.1774 12.4713 24.9634 15.2578 24.9634 18.6825C24.9634 22.1088 22.178 24.896 18.7517 24.896C15.3259 24.896 12.5399 22.1088 12.5399 18.6825Z" fill="#008BE2"/>
<path d="M19.2584 17.6388L19.2624 15.4818C19.2624 15.2087 19.0422 14.9874 18.769 14.9868C18.4965 14.9863 18.2751 15.207 18.2746 15.4807L18.2706 17.6241C18.0048 17.7452 17.7914 17.9609 17.6776 18.2301L14.1009 18.2234C13.8278 18.2228 13.607 18.4447 13.6064 18.7178C13.6059 18.9881 13.8261 19.2106 14.0992 19.2112L17.7221 19.2174C17.9158 19.5907 18.3016 19.8481 18.7516 19.8481C19.3964 19.8481 19.9162 19.326 19.9162 18.6829C19.9156 18.2222 19.6476 17.8275 19.2584 17.6388Z" fill="#008BE2"/>
<path d="M10.8618 10.8735C9.72809 11.9992 9.67628 13.7969 10.7058 14.9863L14.9763 10.7507C13.7947 9.7122 11.9943 9.74937 10.8618 10.8735Z" fill="#008BE2"/>
<path d="M26.6415 10.8734C25.5061 9.7499 23.7085 9.71216 22.5264 10.7512L26.7958 14.9868C27.8252 13.7968 27.774 11.9992 26.6415 10.8734Z" fill="#008BE2"/>
<rect x="0.5" y="0.5" width="37" height="37" rx="7.5" stroke="#A9C9E5"/>
</svg>
