<svg width="38" height="38" viewBox="0 0 38 38" fill="none" xmlns="http://www.w3.org/2000/svg">
<path d="M18.25 23H19.75V20.75H22V19.25H19.75V17H18.25V19.25H16V20.75H18.25V23ZM14.5 26C14.0875 26 13.7344 25.8531 13.4406 25.5594C13.1469 25.2656 13 24.9125 13 24.5L13 12.5C13 12.0875 13.1469 11.7344 13.4406 11.4406C13.7344 11.1469 14.0875 11 14.5 11L20.5 11L25 15.5V24.5C25 24.9125 24.8531 25.2656 24.5594 25.5594C24.2656 25.8531 23.9125 26 23.5 26H14.5ZM19.75 16.25V12.5L14.5 12.5L14.5 24.5H23.5V16.25H19.75Z" fill="#008BE2"/>
<rect x="0.5" y="0.5" width="37" height="37" rx="7.5" stroke="#A9C9E5"/>
</svg>
