<svg width="22" height="28" viewBox="0 0 22 28" fill="none" xmlns="http://www.w3.org/2000/svg">
<g id="Layer_1" clip-path="url(#clip0_556_7131)">
<path id="Vector" d="M21.9925 16.2641V24.8111C21.9925 26.506 20.9508 27.5 19.1755 27.5H2.77602C1.06389 27.5 0.00146484 26.4906 0.00146484 24.8557V2.65109C0.00146484 1.01884 1.05938 0.00684428 2.77421 0.00684428C6.54361 0.00684428 10.3139 0.011992 14.0842 -3.50741e-05C14.2922 -0.00736089 14.4995 0.0281344 14.6918 0.104036C14.8842 0.179938 15.0571 0.294473 15.1989 0.439824C17.3015 2.46267 19.414 4.47691 21.5365 6.48258C21.6893 6.61782 21.8099 6.78275 21.8901 6.96623C21.9703 7.14971 22.0083 7.34746 22.0015 7.54613C21.9861 10.4524 21.9925 13.3587 21.9925 16.2641ZM13.5219 1.6348H2.76881C1.9578 1.6348 1.70999 1.87448 1.70999 2.66569V24.8299C1.70999 25.6444 1.94969 25.872 2.80576 25.872C8.25755 25.872 13.7093 25.872 19.1611 25.872C20.0505 25.872 20.2821 25.653 20.2821 24.8111C20.2821 19.4 20.2821 13.9878 20.2821 8.57444V8.07617H19.7955C18.5943 8.07617 17.3931 8.08305 16.191 8.07617C15.426 8.07016 14.7492 7.8322 14.2176 7.28926C13.7595 6.82511 13.5104 6.2083 13.5237 5.57111C13.5174 4.27475 13.5219 2.97668 13.5219 1.6348ZM18.8899 6.44564L15.2331 2.92772C15.2331 3.82116 15.2223 4.74811 15.2331 5.67677C15.2312 5.77787 15.2507 5.8783 15.2904 5.97204C15.3302 6.06577 15.3895 6.15087 15.4647 6.22221C15.5398 6.29355 15.6294 6.34966 15.7279 6.38717C15.8264 6.42468 15.9318 6.44282 16.0378 6.44048C17.0138 6.46196 17.9879 6.44908 18.8899 6.44908V6.44564Z" fill="white"/>
<path id="Vector_2" d="M11.8247 14.6111C10.4887 14.6111 9.15232 14.6111 7.81566 14.6111C7.16685 14.6111 6.75774 14.2932 6.76224 13.801C6.76224 13.3216 7.19839 12.9849 7.82557 12.9849C10.5139 12.9849 13.2017 12.9849 15.8888 12.9849C16.479 12.9849 16.9098 13.3285 16.9242 13.789C16.9404 14.2709 16.5115 14.6077 15.8789 14.612H11.8239L11.8247 14.6111Z" fill="white"/>
<path id="Vector_3" d="M11.8498 21.0551C10.4982 21.0551 9.14648 21.0551 7.7948 21.0551C7.17302 21.0551 6.77743 20.7501 6.76211 20.269C6.74679 19.7879 7.18293 19.4288 7.7993 19.4288C10.4877 19.4254 13.1754 19.4254 15.8625 19.4288C16.4816 19.4288 16.925 19.7785 16.9241 20.2527C16.9232 20.7269 16.5005 21.0551 15.858 21.056C14.5226 21.0565 13.1865 21.0562 11.8498 21.0551Z" fill="white"/>
<path id="Vector_4" d="M11.8085 17.8338C10.4433 17.8338 9.07716 17.8433 7.71196 17.8338C6.97935 17.8269 6.5405 17.2324 6.87752 16.6947C7.00818 16.4876 7.33529 16.2694 7.57589 16.2651C10.427 16.2359 13.2782 16.2428 16.1302 16.2496C16.3352 16.2566 16.53 16.3362 16.6767 16.4728C16.8233 16.6094 16.9112 16.7933 16.9232 16.9885C16.9277 17.1756 16.8646 17.3585 16.7445 17.5066C16.6244 17.6547 16.4547 17.759 16.2636 17.802C16.101 17.8296 15.9358 17.8408 15.7707 17.8355C14.4503 17.8361 13.1295 17.8355 11.8085 17.8338Z" fill="white"/>
<path id="Vector_5" d="M5.05984 13.8253C5.05984 14.0335 4.97307 14.2333 4.81861 14.3805C4.66415 14.5278 4.45465 14.6105 4.23622 14.6105C4.12432 14.6105 4.01358 14.5888 3.91074 14.5468C3.8079 14.5047 3.7151 14.4432 3.63798 14.3659C3.56086 14.2886 3.50103 14.1972 3.46213 14.0971C3.42323 13.9971 3.40607 13.8906 3.41169 13.784C3.41678 13.5763 3.5047 13.3783 3.65754 13.2302C3.81037 13.0821 4.01665 12.9951 4.23441 12.9868C4.68677 12.986 5.06615 13.3717 5.05984 13.8253Z" fill="white"/>
<path id="Vector_6" d="M5.06004 20.2534C5.0644 20.4614 4.98219 20.6626 4.83139 20.8129C4.68059 20.9633 4.47348 21.0506 4.25534 21.0558C4.1434 21.0584 4.03209 21.0393 3.92817 20.9995C3.82425 20.9598 3.72991 20.9003 3.65091 20.8246C3.5719 20.749 3.50988 20.6588 3.46864 20.5596C3.42739 20.4603 3.40777 20.3541 3.41098 20.2474C3.41191 20.0395 3.49561 19.8397 3.64515 19.6883C3.7947 19.537 3.99894 19.4454 4.21659 19.4321C4.66354 19.4158 5.06004 19.8015 5.06004 20.2534Z" fill="white"/>
<path id="Vector_7" d="M4.21815 16.2433C4.72098 16.2356 5.06521 16.5551 5.06431 17.0302C5.06881 17.1332 5.05139 17.236 5.01309 17.3324C4.9748 17.4289 4.91642 17.5169 4.84148 17.5912C4.76654 17.6655 4.67659 17.7247 4.57706 17.765C4.47752 17.8053 4.37045 17.8259 4.26231 17.8257C4.15038 17.8316 4.03841 17.815 3.93359 17.7772C3.82876 17.7393 3.73341 17.681 3.65364 17.6059C3.57387 17.5308 3.51145 17.4407 3.4704 17.3412C3.42934 17.2418 3.41056 17.1353 3.41526 17.0285C3.40715 16.5697 3.73695 16.2502 4.21815 16.2433Z" fill="white"/>
</g>
<defs>
<clipPath id="clip0_556_7131">
<rect width="22" height="27.5" fill="white"/>
</clipPath>
</defs>
</svg>
