<svg width="52" height="53" viewBox="0 0 52 53" fill="none" xmlns="http://www.w3.org/2000/svg">
<circle cx="26" cy="26.4355" r="23" fill="#00588F" stroke="white" stroke-width="6"/>
<path d="M33.9999 33.8275C33.9998 33.2628 33.6639 32.755 33.1443 32.5339L29.1584 30.8381V29.8845C29.5265 29.3414 29.7579 28.6987 29.8038 28.0061H30.2827C31.2303 28.0061 32.0015 27.2349 32.0015 26.2873V24.8963C32.0015 24.0868 31.4387 23.4068 30.6842 23.2254C30.65 21.8451 30.3378 20.7962 29.7325 20.0247C28.9556 19.0343 27.6998 18.5322 26 18.5322C24.3002 18.5322 23.0444 19.0343 22.2675 20.0248C21.6621 20.7962 21.35 21.8451 21.3158 23.2254C20.5612 23.4068 19.9985 24.0868 19.9985 24.8963V26.2873C19.9985 27.2349 20.7697 28.0061 21.7173 28.0061H22.1962C22.2421 28.6987 22.4735 29.3414 22.8416 29.8845V30.8381L18.8557 32.5339C18.3361 32.755 18.0001 33.2629 18.0001 33.8276L18 34.0634C18 34.1877 18.0493 34.307 18.1373 34.3949C18.2252 34.4828 18.3444 34.5322 18.4688 34.5322H33.5312C33.6556 34.5322 33.7749 34.4828 33.8628 34.3949C33.9507 34.3069 34 34.1876 34 34.0634L33.9999 33.8275ZM28.2214 31.167C28.2218 31.1782 28.248 32.3159 27.576 33.0157C27.207 33.3999 26.6768 33.5946 26 33.5946C25.3257 33.5946 24.7968 33.4012 24.428 33.0199C23.7479 32.3164 23.7783 31.1769 23.7786 31.167C23.7788 31.1615 23.7789 31.156 23.7789 31.1505C23.7789 31.1485 23.7791 31.1466 23.7791 31.1445V30.8484C24.4048 31.2986 25.172 31.5639 26 31.5639C26.828 31.5639 27.5952 31.2984 28.2209 30.8484V31.1446C28.2209 31.1465 28.2211 31.1484 28.2211 31.1504C28.2211 31.1559 28.2212 31.1614 28.2214 31.167ZM28.8765 24.629C28.8759 24.6384 28.875 24.6478 28.875 24.6574V27.2874L27.9847 27.8811C27.7015 28.0699 27.3718 28.1698 27.0312 28.1698H26.2384C25.9796 28.1698 25.7697 28.3796 25.7697 28.6385C25.7697 28.8974 25.9796 29.1073 26.2384 29.1073H27.0312C27.5575 29.1073 28.0671 28.953 28.5049 28.661L28.7825 28.4759C28.4606 29.7116 27.3351 30.6266 26 30.6266C24.4147 30.6266 23.125 29.3368 23.125 27.7515V24.6574C23.125 24.6476 23.1241 24.6382 23.1235 24.6287V23.9875C23.1241 23.9779 23.125 23.9685 23.125 23.9588C23.125 23.1524 23.3202 22.6197 23.7052 22.3756C24.3324 21.9779 25.4293 22.3437 25.7983 22.5179C25.9253 22.5784 26.0736 22.5783 26.2008 22.5182C26.5707 22.3438 27.6675 21.9781 28.2948 22.3756C28.6798 22.6197 28.875 23.1524 28.875 23.9588C28.875 23.9684 28.8759 23.9778 28.8765 23.9872V24.629ZM31.064 24.8963V26.2873C31.064 26.7181 30.7135 27.0685 30.2827 27.0685H29.814V24.115H30.2827C30.7135 24.115 31.064 24.4655 31.064 24.8963ZM26 19.4697C28.4823 19.4697 29.6481 20.6043 29.7434 23.1359C29.6123 22.4191 29.2946 21.898 28.7936 21.5818C27.8237 20.9696 26.5015 21.3882 26 21.5855C25.4985 21.3882 24.1763 20.9696 23.2064 21.5818C22.7054 21.898 22.3877 22.4191 22.2566 23.1359C22.3519 20.6043 23.5177 19.4697 26 19.4697ZM22.186 27.0685H21.7173C21.2865 27.0685 20.936 26.7181 20.936 26.2873V24.8963C20.936 24.4655 21.2865 24.115 21.7173 24.115H22.186V27.0685ZM19.2228 33.3966L22.8953 31.8341C22.9775 32.3428 23.1819 33.0349 23.6829 33.5947H18.9995C19.0492 33.5079 19.1266 33.4375 19.2228 33.3966ZM28.3171 33.5947C28.8181 33.0349 29.0225 32.3428 29.1047 31.8341L32.7772 33.3966C32.8734 33.4375 32.9507 33.5079 33.0005 33.5947H28.3171Z" fill="white"/>
</svg>
