<svg width="25" height="22" viewBox="0 0 25 22" fill="none" xmlns="http://www.w3.org/2000/svg">
<g id="Layer_1" clip-path="url(#clip0_556_7120)">
<path id="Vector" d="M17.4149 19.7631C17.4149 20.2282 17.4271 20.6759 17.4149 21.1236C17.4019 21.4895 17.2791 21.8553 16.9081 21.9589C16.6468 22.0312 16.288 22.0112 16.0624 21.8805C15.8691 21.769 15.728 21.445 15.6975 21.2038C15.64 20.7482 15.6809 20.2796 15.6809 19.7404H15.1584C12.7198 19.7404 10.2813 19.7404 7.84273 19.7404C6.81921 19.7492 5.82573 19.3948 5.03883 18.7401C4.25192 18.0855 3.72255 17.1731 3.54478 16.1649C3.47337 15.7695 3.48556 15.3567 3.48382 14.9508C3.47685 13.5868 3.47511 12.2228 3.48382 10.857C3.48382 10.5957 3.41153 10.4363 3.16942 10.31C2.48924 9.95636 1.8256 9.5714 1.15239 9.20383C0.455658 8.82407 -0.00331108 8.29447 -0.00244017 7.45569C-0.00156926 6.6169 0.458271 6.09517 1.15587 5.71366C4.27548 3.99777 7.39189 2.27434 10.5051 0.543353C11.8161 -0.183071 13.1254 -0.183071 14.4329 0.543353C17.5624 2.27434 20.691 4.00386 23.8187 5.73195C24.498 6.10736 24.9344 6.64042 24.9335 7.46092C24.9326 8.28141 24.4859 8.81099 23.8135 9.18988C23.1838 9.54525 22.5559 9.90674 21.9088 10.229C21.5683 10.398 21.4324 10.5975 21.4403 10.9946C21.469 12.4449 21.4621 13.8968 21.4481 15.3497C21.4281 17.4401 20.2114 19.0253 18.1996 19.5985C17.9531 19.6673 17.6971 19.7039 17.4149 19.7631ZM1.67058 7.4505C1.82212 7.55502 1.88831 7.60987 1.96234 7.65081C5.13942 9.41113 8.31215 11.1802 11.504 12.9143C11.8655 13.0932 12.2696 13.1677 12.6711 13.1295C13.6717 13.0424 14.3868 12.3055 15.3709 11.8839C15.1636 11.7184 15.0286 11.6296 14.9163 11.5172C13.9194 10.5243 12.9248 9.52899 11.9325 8.53139C11.4858 8.08108 11.4892 7.5254 11.923 7.16742C12.2957 6.85995 12.7608 6.9061 13.1649 7.30764C14.3058 8.43995 15.4484 9.57747 16.5754 10.7272C16.7931 10.9484 16.9481 11.0016 17.2364 10.8396C19.1036 9.79436 20.9813 8.76134 22.8573 7.72396C22.9766 7.65777 23.0863 7.57241 23.2535 7.46266C23.0959 7.35291 23.0001 7.27192 22.8921 7.21182C19.7643 5.48141 16.6357 3.75216 13.5063 2.02407C12.8043 1.63734 12.1041 1.65217 11.3987 2.04325C8.29822 3.76379 5.19545 5.47965 2.09036 7.19089C1.97017 7.25535 1.85347 7.33552 1.67058 7.4505ZM15.6513 13.7009C15.1993 13.95 14.7996 14.173 14.3963 14.3898C13.0978 15.0866 11.8036 15.0866 10.5103 14.3707C8.90437 13.4799 7.29638 12.592 5.68636 11.7071C5.55224 11.6331 5.41376 11.566 5.22303 11.4685C5.22303 12.7654 5.2178 13.9944 5.22303 15.2251C5.23174 16.9384 6.30819 17.9993 8.03085 18.001C10.4113 18.001 12.7889 18.001 15.1636 18.001H15.6496L15.6513 13.7009ZM19.6941 11.4667C19.0078 11.8439 18.3877 12.2001 17.745 12.5285C17.4924 12.6591 17.4062 12.8185 17.4088 13.1034C17.4245 14.5954 17.4158 16.0874 17.4175 17.5794C17.4175 17.7014 17.435 17.8233 17.4445 17.9453C18.6194 17.8216 19.6445 16.84 19.6819 15.7251C19.7298 14.3376 19.6941 12.9466 19.6941 11.4667Z" fill="white"/>
</g>
<defs>
<clipPath id="clip0_556_7120">
<rect width="24.9333" height="22" fill="white"/>
</clipPath>
</defs>
</svg>
