<svg width="24" height="24" viewBox="0 0 24 24" fill="none" xmlns="http://www.w3.org/2000/svg">
<g id="Layer_1" clip-path="url(#clip0_556_7141)">
<path id="Vector" d="M16.8201 9.26296C16.8149 9.76936 16.8087 10.2907 16.8087 10.8083C16.8137 10.9008 16.8012 10.9934 16.7722 11.0806C16.7431 11.1679 16.698 11.2481 16.6394 11.3166C16.5876 11.3685 16.5267 11.4089 16.4601 11.4355C16.3935 11.4622 16.3227 11.4744 16.2516 11.4717H16.2437C16.1733 11.4741 16.1032 11.4612 16.0376 11.4339C15.972 11.4066 15.9123 11.3654 15.8621 11.3129C15.8039 11.2413 15.7596 11.158 15.7319 11.0681C15.7042 10.9781 15.6936 10.8831 15.7007 10.7887C15.7244 9.2938 15.7375 7.98574 15.7428 6.77112C15.7428 5.98909 15.3831 5.46305 14.69 5.23788L14.111 5.05102C12.9327 4.67261 11.7141 4.28114 10.5017 3.96441C8.59787 3.46641 7.00992 2.40876 5.70797 1.44173C5.51118 1.30269 5.27534 1.2403 5.04033 1.26513C3.03565 1.57626 0.978335 4.40543 1.18012 6.57586C1.18012 6.58427 1.18012 6.59362 1.18012 6.60296C1.34418 6.67864 1.50824 6.75153 1.66791 6.82254C2.09498 7.0006 2.51082 7.2078 2.91283 7.4429C3.24562 7.65473 3.51164 7.96734 3.67698 8.34081C4.15512 9.462 4.82715 10.0917 5.85537 10.3701C7.54421 10.828 8.98214 11.9585 10.1314 13.7412C10.3113 14.0215 10.4876 14.3083 10.6578 14.5821C10.8403 14.8783 11.028 15.1857 11.2202 15.4809L11.2553 15.5351C11.4658 15.864 11.5852 15.9864 11.7764 15.8929C12.023 15.7681 12.2188 15.5524 12.3274 15.2856C12.4524 14.9229 12.4973 14.5343 12.4585 14.1501C12.4197 13.7659 12.2983 13.3964 12.1036 13.0703C11.6211 12.2416 11.0781 11.4484 10.5631 10.7084C9.79805 9.60681 9.49713 8.58466 9.61644 7.49057C9.67602 7.05367 9.77353 6.62359 9.90771 6.20587C9.92779 6.12515 9.96396 6.04997 10.0138 5.98548C10.0636 5.92098 10.1259 5.8687 10.1964 5.83214C10.2747 5.79712 10.3592 5.78016 10.4442 5.78242C10.5292 5.78467 10.6127 5.80605 10.6894 5.84519C10.9833 5.97973 11.0842 6.27219 10.9658 6.64872C10.8947 6.87296 10.8368 7.10842 10.7798 7.33546L10.7561 7.42889L11.1588 7.35229C11.6738 7.25325 12.1598 7.16075 12.6502 7.09348C12.8555 7.06639 13.2064 7.14954 13.3117 7.35042C13.3907 7.49898 13.3503 7.68114 13.3117 7.85773C13.2958 7.92293 13.2835 7.98908 13.2749 8.05582C13.2749 8.1016 13.2643 8.14925 13.2582 8.19597C13.2362 8.31215 13.2303 8.43116 13.2407 8.54917C13.2924 8.89206 13.3644 9.2387 13.4337 9.57692C13.453 9.67036 13.4731 9.76938 13.4924 9.86562C13.574 10.273 13.4179 10.5645 13.074 10.6448C13.0004 10.6662 12.9235 10.6712 12.8481 10.6597C12.7726 10.6481 12.7002 10.6202 12.6353 10.5776C12.5612 10.5208 12.4985 10.4489 12.4508 10.3659C12.4032 10.2829 12.3717 10.1906 12.3581 10.0945C12.2765 9.68433 12.1984 9.27138 12.1159 8.83412C12.0887 8.68836 12.0607 8.5398 12.0282 8.38657L10.7999 8.7603L10.8982 8.96961C10.9902 9.18466 11.0973 9.39201 11.2184 9.58997C11.4816 9.99267 11.7545 10.3945 12.0203 10.7841C12.2449 11.1111 12.4765 11.4493 12.6985 11.7875C13.5626 13.0956 13.7828 14.3933 13.3731 15.7425C13.1468 16.49 12.6713 16.9571 11.9922 17.1019C11.8839 17.1249 11.7737 17.1369 11.6632 17.1375C11.1368 17.1375 10.6885 16.8413 10.3095 16.2405L10.0691 15.8574C9.70154 15.2725 9.32166 14.668 8.92862 14.0897C8.05608 12.7724 6.76473 11.8367 5.29388 11.4558C4.11037 11.1419 3.29534 10.4215 2.8716 9.31437C2.4847 8.30343 1.69072 8.05954 0.841474 7.88109C0.336137 7.77458 0.115052 7.53634 0.0518847 7.0318C-0.155163 5.40047 0.325606 3.86913 1.56263 2.20977C2.34078 1.14726 3.43767 0.401239 4.6701 0.0963117C5.1772 -0.0316908 5.76851 -0.0971063 6.31333 0.386874C8.18553 2.0481 10.4736 2.76567 12.4721 3.30851C13.2494 3.51873 14.0653 3.76352 15.0392 4.07746C16.099 4.41942 16.7938 5.37524 16.821 6.51418C16.8394 7.42795 16.8289 8.3604 16.8201 9.26296Z" fill="white"/>
<path id="Vector_2" d="M23.9964 13.1075C23.9964 12.4694 23.8025 12.2666 23.1998 12.2666C20.3608 12.2666 17.5221 12.2666 14.6837 12.2666C14.4749 12.2666 13.9186 12.2666 13.916 12.8833C13.9115 12.962 13.9222 13.041 13.9474 13.1152C13.9726 13.1894 14.0118 13.2574 14.0625 13.3149C14.2169 13.4803 14.4556 13.5018 14.6705 13.5018H14.681C15.8303 13.4981 16.9796 13.4981 18.1289 13.5018H19.7958C20.1748 15.277 21.017 16.2207 22.6787 16.7561C22.7576 16.8188 22.8102 16.9121 22.8252 17.0158C22.8366 17.4026 22.8357 17.7969 22.8348 18.179C22.834 18.5612 22.8348 18.9265 22.8436 19.3058C22.8489 19.5011 22.798 19.5478 22.5936 19.6272L22.4251 19.6927C22.0453 19.8393 21.6513 19.9907 21.3109 20.2308C20.531 20.7811 20.0248 21.6323 19.8046 22.7581H9.1346C8.23534 20.5027 8.16954 20.4336 6.11924 19.5263C6.11924 18.6144 6.11924 17.7035 6.11924 16.7813C6.94772 16.6308 7.702 16.1803 8.25464 15.5059C8.41081 15.3191 8.77577 14.8715 8.32834 14.4464C8.27691 14.3914 8.21558 14.3482 8.14804 14.3191C8.08049 14.29 8.00813 14.2758 7.9353 14.2773C7.70456 14.2932 7.53436 14.5015 7.3975 14.6688C7.06477 15.0976 6.60561 15.394 6.09468 15.5097C6.09468 15.2967 6.09468 15.0864 6.09468 14.879C6.09468 14.4119 6.09468 13.9662 6.09468 13.5205H6.38331C6.53883 13.5205 6.68798 13.4548 6.79803 13.3377C6.90807 13.2207 6.97001 13.062 6.97024 12.8964C6.97001 12.7307 6.90807 12.572 6.79803 12.455C6.68798 12.338 6.53883 12.2722 6.38331 12.2722H5.46915C5.3269 12.2725 5.19056 12.3328 5.09005 12.4401C4.98955 12.5473 4.93311 12.6925 4.93311 12.844V13.3804C4.93311 15.3916 4.93311 17.4029 4.93311 19.4142C4.93311 20.6687 4.93311 21.9229 4.93311 23.1767C4.93311 23.7934 5.12524 24.0018 5.69374 24.0027H23.2174C23.7885 24.0027 23.9912 23.7887 23.992 23.1833C23.992 21.5127 23.992 19.8291 23.992 18.1473C23.992 16.4655 23.9982 14.7781 23.9964 13.1075ZM22.8094 15.4648C21.9935 15.3406 21.1636 14.4492 21.0118 13.5345H22.8094V15.4648ZM6.12714 22.7526V20.8465C6.56353 20.9472 6.96294 21.1811 7.27657 21.5196C7.5902 21.8581 7.80446 22.2865 7.89319 22.7526H6.12714ZM21.0302 22.7367C21.2837 21.7238 21.9198 21.0484 22.8041 20.8512V22.7367H21.0302Z" fill="white"/>
<path id="Vector_3" d="M16.4463 20.5485C16.2292 20.8586 15.9506 21.114 15.6304 21.2966C15.3102 21.4793 14.9561 21.5846 14.5934 21.6052C14.5566 21.6052 14.5188 21.6052 14.482 21.6052C14.1372 21.6016 13.7969 21.522 13.4825 21.3713C13.1682 21.2206 12.8865 21.0021 12.6554 20.7297C12.1852 20.1981 11.9 19.5235 11.7579 18.606C11.7389 18.512 11.7383 18.415 11.7561 18.3208C11.7739 18.2266 11.8098 18.1373 11.8614 18.0585C11.9111 17.99 11.9735 17.9332 12.0448 17.8917C12.116 17.8503 12.1946 17.825 12.2755 17.8174C12.7291 17.7576 12.8598 18.2071 12.916 18.3986L12.9309 18.4509C13.0713 18.9349 13.2169 19.4357 13.481 19.8187C13.5823 19.9756 13.7145 20.1071 13.8685 20.204C14.0224 20.3008 14.1944 20.3606 14.3723 20.3793C14.7425 20.4092 15.1163 20.2467 15.4251 19.9215C15.8243 19.4964 16.0533 18.8387 16.0524 18.1164C16.0515 17.3942 15.8252 16.756 15.4321 16.3412C15.3147 16.2175 15.18 16.1138 15.0329 16.0338C14.4188 15.6984 14.3723 15.5797 14.4925 14.7631L14.5127 14.6323L14.6364 14.6463C15.5207 14.7444 16.2156 15.2322 16.7034 16.0955C17.0785 16.7817 17.2543 17.5709 17.2086 18.3635C17.1628 19.156 16.8976 19.9163 16.4463 20.5485Z" fill="white"/>
</g>
<defs>
<clipPath id="clip0_556_7141">
<rect width="24" height="24" fill="white"/>
</clipPath>
</defs>
</svg>
