<svg width="19" height="19" viewBox="0 0 19 19" fill="none" xmlns="http://www.w3.org/2000/svg">
<path d="M9.00586 18.4817C4.03206 18.4817 1.29628e-06 14.4496 1.51369e-06 9.47583C1.7311e-06 4.50203 4.03206 0.46997 9.00586 0.46997C13.9797 0.469971 18.0117 4.50203 18.0117 9.47583C18.0117 14.4496 13.9797 18.4817 9.00586 18.4817Z" fill="white"/>
<path fill-rule="evenodd" clip-rule="evenodd" d="M16.886 9.47583C16.886 5.12376 13.3579 1.5957 9.00586 1.5957C4.65379 1.5957 1.12573 5.12375 1.12573 9.47583C1.12573 13.8279 4.65379 17.356 9.00586 17.356C13.3579 17.356 16.886 13.8279 16.886 9.47583ZM9.00586 0.46997C13.9797 0.469971 18.0117 4.50203 18.0117 9.47583C18.0117 14.4496 13.9797 18.4817 9.00586 18.4817C4.03206 18.4817 1.29628e-06 14.4496 1.51369e-06 9.47583C1.7311e-06 4.50203 4.03206 0.46997 9.00586 0.46997Z" fill="#B3D2E2"/>
<path d="M12.4696 8.0241L9.00585 11.5541L5.54205 8.0241L6.15688 7.39753L9.00585 10.3009L11.8548 7.39753L12.4696 8.0241Z" fill="#0583D2"/>
</svg>
