<svg width="19" height="17" viewBox="0 0 19 17" fill="none" xmlns="http://www.w3.org/2000/svg">
<path d="M9.75036 0.988892C5.50124 0.988892 2.05688 4.43381 2.05688 8.68237C2.05688 10.7903 2.90558 12.6989 4.27859 14.0888C4.03418 14.4019 3.65854 14.8818 3.14324 15.5435C2.86166 15.905 2.92698 16.4248 3.28798 16.707C3.43947 16.8247 3.61856 16.8821 3.79708 16.8821C4.04375 16.8821 4.28873 16.7729 4.45205 16.5634C4.45205 16.5634 5.14588 15.6724 5.56656 15.1352C6.77175 15.9191 8.20671 16.3781 9.75092 16.3781C11.2951 16.3781 12.7307 15.9191 13.9364 15.1352C14.3565 15.6724 15.0504 16.5634 15.0504 16.5634C15.2142 16.7729 15.4592 16.8821 15.7053 16.8821C15.8833 16.8821 16.0635 16.8247 16.2139 16.707C16.5754 16.4248 16.6402 15.9039 16.3586 15.5435C15.8433 14.8818 15.4677 14.4014 15.2233 14.0882C16.5957 12.6989 17.4438 10.7909 17.4438 8.68237C17.4438 4.43381 13.9995 0.988892 9.75036 0.988892ZM3.53915 8.68237C3.53915 5.25773 6.32628 2.47116 9.75092 2.47116C13.1767 2.47116 15.9627 5.25773 15.9627 8.68237C15.9627 12.1087 13.1773 14.8958 9.75092 14.8958C6.32516 14.8958 3.53915 12.1087 3.53915 8.68237Z" fill="white"/>
<path d="M10.2577 7.63885L10.2616 5.48191C10.2616 5.20877 10.0414 4.98744 9.7683 4.98688C9.49573 4.98632 9.2744 5.20708 9.27384 5.48078L9.26989 7.62421C9.00408 7.74529 8.79064 7.96098 8.67688 8.23018L5.10018 8.22342C4.82704 8.22286 4.60628 8.44475 4.60571 8.71788C4.60515 8.98821 4.82535 9.21066 5.09849 9.21122L8.72137 9.21742C8.9151 9.5908 9.30087 9.84817 9.75084 9.84817C10.3957 9.84817 10.9155 9.32611 10.9155 8.68297C10.9149 8.22229 10.6468 7.82751 10.2577 7.63885Z" fill="white"/>
<path d="M1.86151 0.873461C0.727844 1.99924 0.676032 3.79688 1.70551 4.9863L5.97603 0.750689C4.7945 -0.287798 2.99404 -0.250628 1.86151 0.873461Z" fill="white"/>
<path d="M17.6415 0.873484C16.5061 -0.250042 14.7085 -0.287774 13.5264 0.751276L17.7958 4.98688C18.8252 3.7969 18.774 1.99926 17.6415 0.873484Z" fill="white"/>
</svg>
