<svg width="38" height="38" viewBox="0 0 38 38" fill="none" xmlns="http://www.w3.org/2000/svg">
<rect x="0.5" y="0.5" width="37" height="37" rx="7.5" stroke="#A9C9E5"/>
<path fill-rule="evenodd" clip-rule="evenodd" d="M28.5278 26.1322C28.5278 26.4473 28.2723 26.7028 27.9572 26.7028H10.8401C10.525 26.7028 10.2695 26.4473 10.2695 26.1322C10.2695 25.8171 10.525 25.5616 10.8401 25.5616H27.9572C28.2723 25.5616 28.5278 25.8171 28.5278 26.1322Z" fill="#008BE2"/>
<path fill-rule="evenodd" clip-rule="evenodd" d="M26.2137 14.2883L26.5145 14.3079C26.5444 14.3099 26.5697 14.3128 26.5865 14.315L26.5952 14.3161C27.0467 14.3009 27.4104 13.9277 27.4104 13.4727C27.4104 13.0079 27.0312 12.6287 26.5665 12.6287C26.1018 12.6287 25.7225 13.008 25.7225 13.4727C25.7225 13.7108 25.8248 13.9288 25.9977 14.0886L26.2137 14.2883ZM23.7096 20.1457L23.4092 20.1261C23.3792 20.1242 23.3539 20.1212 23.337 20.1191L23.3285 20.118C23.1995 20.1226 23.0591 20.1575 22.9624 20.2038L22.6928 20.3328L22.5637 20.6024C22.5064 20.7222 22.4774 20.8417 22.4774 20.9614C22.4774 21.4046 22.8705 21.8054 23.357 21.8054C23.8217 21.8054 24.201 21.4261 24.201 20.9614C24.201 20.7232 24.0986 20.5053 23.9257 20.3454L23.7096 20.1457ZM19.6706 17.3107L19.7997 17.0411C19.857 16.9214 19.886 16.8018 19.886 16.6821C19.886 16.2174 19.5067 15.8382 19.0421 15.8382C18.5774 15.8382 18.1981 16.2174 18.1981 16.6821C18.1981 16.8378 18.2438 16.987 18.3284 17.123L18.4852 17.375L18.7689 17.4734C18.8748 17.5101 18.9631 17.5261 19.0421 17.5261C19.1617 17.5261 19.2813 17.4971 19.401 17.4398L19.6706 17.3107ZM15.3196 21.3383L15.036 21.24C14.93 21.2032 14.8417 21.1873 14.7628 21.1873C14.2763 21.1873 13.8831 21.5881 13.8831 22.0312C13.8831 22.4744 14.2763 22.8752 14.7628 22.8752C15.2274 22.8752 15.6067 22.4959 15.6067 22.0312C15.6067 21.8756 15.561 21.7263 15.4764 21.5904L15.3196 21.3383ZM22.6339 19.5176L20.4859 17.3696C20.586 17.1603 20.6468 16.9291 20.6468 16.6821C20.6468 15.7973 19.9269 15.0774 19.0421 15.0774C18.1572 15.0774 17.4373 15.7973 17.4373 16.6821C17.4373 16.9922 17.5297 17.2793 17.6825 17.5249L15.2853 20.5212C15.1206 20.4641 14.9467 20.4265 14.7628 20.4265C13.8779 20.4265 13.1224 21.1464 13.1224 22.0312C13.1224 22.9161 13.8779 23.636 14.7628 23.636C15.6476 23.636 16.3675 22.9161 16.3675 22.0312C16.3675 21.7211 16.2751 21.434 16.1223 21.1885L18.5195 18.1921C18.6842 18.2492 18.8582 18.2869 19.0421 18.2869C19.289 18.2869 19.5203 18.2261 19.7295 18.126L21.8775 20.274C21.7773 20.4832 21.7166 20.7144 21.7166 20.9614C21.7166 21.8462 22.4722 22.5661 23.357 22.5661C24.2418 22.5661 24.9617 21.8462 24.9617 20.9614C24.9617 20.4961 24.7595 20.0802 24.4421 19.7868L26.4649 15.0671C26.4792 15.068 26.4933 15.07 26.5073 15.072C26.5268 15.0747 26.5462 15.0774 26.5665 15.0774C27.4513 15.0774 28.1712 14.3575 28.1712 13.4727C28.1712 12.5877 27.4513 11.8679 26.5665 11.8679C25.6816 11.8679 24.9617 12.5878 24.9617 13.4727C24.9617 13.9379 25.164 14.3539 25.4813 14.6472L23.4585 19.367C23.4441 19.366 23.43 19.3641 23.416 19.3621C23.3966 19.3594 23.3772 19.3567 23.357 19.3567C23.11 19.3567 22.8431 19.4174 22.6339 19.5176Z" fill="#008BE2"/>
<path fill-rule="evenodd" clip-rule="evenodd" d="M10.8401 11.2974C11.1552 11.2974 11.4107 11.5528 11.4107 11.8679L11.4107 26.1322C11.4107 26.4473 11.1552 26.7028 10.8401 26.7028C10.525 26.7028 10.2695 26.4473 10.2695 26.1322L10.2695 11.8679C10.2695 11.5528 10.525 11.2974 10.8401 11.2974Z" fill="#008BE2"/>
</svg>
