<svg width="63" height="63" viewBox="0 0 63 63" fill="none" xmlns="http://www.w3.org/2000/svg">
<path d="M47.2495 0H15.2479C6.82673 0 0 6.56779 0 14.6696V46.3375C0 54.4392 6.82673 61.007 15.2479 61.007H47.2495C55.6707 61.007 62.4974 54.4392 62.4974 46.3375V14.6696C62.4974 6.56779 55.6707 0 47.2495 0Z" fill="#8CEDFF"/>
<mask id="mask0_1842_42861" style="mask-type:luminance" maskUnits="userSpaceOnUse" x="0" y="0" width="63" height="62">
<path d="M47.1541 0H15.3432C6.86939 0 0 6.62668 0 14.8011V46.3707C0 54.5451 6.86939 61.1718 15.3432 61.1718H47.1541C55.6279 61.1718 62.4973 54.5451 62.4973 46.3707V14.8011C62.4973 6.62668 55.6279 0 47.1541 0Z" fill="white"/>
</mask>
<g mask="url(#mask0_1842_42861)">
<path d="M39.0147 19.4169C39.0147 19.4169 42.1596 16.1993 40.4442 13.8091C38.7288 11.4188 34.1926 13.2023 31.448 13.901C28.7033 14.5997 25.7491 15.0961 25.3679 16.0338L25.0058 16.9715C25.0058 16.9715 23.5 17.6702 23.7287 19.6008C23.9574 21.5314 25.406 32.4713 28.7987 31.8646C32.1913 31.2394 39.0147 19.4353 39.0147 19.4353V19.4169Z" fill="#0583D2"/>
<path d="M63.4508 50.8749C61.6211 56.5012 58.2475 61.4839 53.8256 65.3451C53.5206 64.4257 53.2729 63.5616 53.1013 62.7158C52.7392 61.0426 52.6058 59.4982 52.6248 58.1008C52.8345 49.6982 59.2005 46.168 59.2005 46.168L63.9655 49.1098C63.813 49.7166 63.6414 50.3049 63.4508 50.8933V50.8749Z" fill="#5799E2"/>
<path d="M38.7102 43.5412C38.7102 43.5412 37.5285 41.3348 30.5907 40.5626C23.6529 39.7903 20.0125 43.817 19.0976 44.8466C18.1637 45.8763 41.5311 45.3614 38.7102 43.5412Z" fill="#5799E2"/>
<path d="M63.4506 50.8756C61.6209 56.5019 58.2473 61.4846 53.8254 65.3458C53.4633 65.6583 53.1011 65.9709 52.7199 66.2651C52.1672 66.7064 51.6145 67.1293 51.0427 67.5338C48.7174 69.1702 46.1633 70.5308 43.4378 71.542C39.6258 72.9762 35.4708 73.7668 31.1251 73.7668C31.0298 73.7668 30.9345 73.7668 30.8582 73.7668C27.4847 73.7484 24.2445 73.2336 21.1759 72.3326C20.6041 72.1672 20.0513 71.9833 19.4986 71.781C19.2127 71.6891 18.9268 71.5788 18.6409 71.4685C10.9216 68.5082 4.59378 62.9004 0.87711 55.8032C0.629332 55.3251 0.381534 54.8471 0.171875 54.3507C4.57471 49.9195 11.5888 46.61 18.1453 44.5323C18.7362 44.3484 19.3271 44.1646 19.8989 43.9991C19.8989 43.9991 19.9179 43.9991 19.937 43.9991C21.0996 43.6681 22.2432 43.3739 23.3487 43.1165C23.5774 43.0614 23.787 43.0062 24.0158 42.9694C24.397 42.8959 24.7591 42.804 25.1213 42.7488C26.0171 42.5649 26.8748 42.4362 27.6753 42.3075C29.162 42.1053 31.8684 42.0133 35.1086 42.0685C35.6614 42.0685 36.2332 42.0869 36.805 42.1053C44.9435 42.3443 55.3692 43.4291 58.4379 45.5803C58.7047 45.7642 58.9525 45.9664 59.2193 46.1687C60.6298 47.3086 62.0593 48.8899 63.4697 50.8756H63.4506Z" fill="#CAF0F8"/>
<path d="M52.6241 58.083C52.4716 57.8256 52.3191 57.6785 52.2048 57.5682C51.0421 56.465 48.6978 57.7153 46.9824 58.6346C46.9824 58.6346 46.9442 58.6346 46.9442 58.653C47.0395 58.0647 47.192 57.3108 47.3064 56.6857C47.6304 55.0493 47.9163 53.5232 47.9163 52.7877C47.9163 52.3832 47.9163 51.6478 43.4944 47.4005C41.4169 45.3964 39.3012 43.521 39.2822 43.5026C39.0916 43.3371 38.8247 43.2819 38.577 43.3371C38.4435 43.3739 38.3292 43.4474 38.2339 43.5393C38.0242 43.76 37.9861 44.0542 38.1005 44.3116C38.1386 44.4035 38.1958 44.4771 38.272 44.5506C41.9887 47.8418 46.1437 51.9236 46.4105 52.8245C46.4105 53.4313 46.0865 55.086 45.8197 56.4099C45.2098 59.554 45.1526 59.9769 45.6101 60.3446C46.0866 60.7123 46.544 60.4733 47.6685 59.8665C50.1844 58.5243 50.9277 58.414 51.1374 58.5611C51.4614 58.8553 52.1476 60.3446 51.004 67.4969C51.5758 67.0924 52.1476 66.6695 52.6813 66.2282C52.8719 64.8125 53.0053 63.6541 53.0625 62.6613C53.234 59.8481 52.9291 58.653 52.586 58.0463L52.6241 58.083Z" fill="#5799E2"/>
<path d="M43.4183 71.5432C39.6063 72.9774 35.4512 73.768 31.1056 73.768C31.0103 73.768 30.915 73.768 30.8388 73.768C25.9022 63.8944 21.3279 53.2119 20.9467 47.0524C20.9086 46.4273 21.0229 45.8205 21.2516 45.2689C21.5757 44.4783 22.1665 43.798 22.9479 43.3384L23.3292 43.1177L23.9581 42.75C23.9581 42.75 24.3965 42.75 25.1017 42.75C27.3889 42.75 32.5541 42.8787 35.3559 43.7613C36.0802 43.9819 36.6329 44.2577 36.957 44.5886C38.1768 45.9492 41.6838 58.0108 43.3992 71.5432H43.4183Z" fill="#5799E2"/>
<path d="M29.0091 27.3047L23.9583 42.7493C23.7867 43.7054 30.5911 50.4716 35.1274 47.4563C36.4044 46.6105 35.4895 44.2938 35.2417 43.3377L33.8694 31.5336L29.0091 27.3047Z" fill="white"/>
<path d="M34.7464 39.0919L34.0412 33.0611L30.9154 32.1602C30.9154 32.1602 30.4389 35.911 32.1733 37.8048C32.9357 38.6506 33.9078 38.9815 34.7464 39.0919Z" fill="#0583D2"/>
<path d="M31.4502 20.8877L28.496 28.3342C27.7336 30.8716 29.1821 33.5376 31.7743 34.3466C33.8518 34.9901 35.2241 35.0637 37.9306 34.8798C40.1797 34.7327 41.4376 32.6918 41.5901 29.8603C41.7807 26.183 40.8658 22.7447 40.275 20.9245C38.9217 16.7875 33.7565 16.1624 31.4693 20.8877H31.4502Z" fill="white"/>
<path d="M41.2259 25.9063C41.2259 25.9063 38.7291 26.274 35.3555 25.5938C35.3555 25.5938 35.7748 27.3772 37.0518 28.223C38.3097 29.0688 40.1204 28.3517 41.2259 25.9063Z" fill="#CACACA"/>
<path d="M29.5059 22.5235C29.2772 21.7145 28.7244 20.5745 27.6571 21.4939C26.0942 22.8361 27.1996 26.7708 29.3725 26.5501C30.9735 26.3847 29.6393 22.9648 29.5059 22.5235Z" fill="white"/>
<path d="M38.0811 24.0133C38.6148 23.903 39.0722 23.6824 39.4916 23.3514C39.8156 23.094 40.1587 23.6088 39.8347 23.8662C39.3772 24.234 38.8626 24.473 38.2908 24.6017C37.8906 24.6936 37.7 24.1053 38.1002 24.0133H38.0811Z" fill="#CACACA"/>
<path d="M39.0153 20.3919C39.4727 20.4839 39.8921 20.6309 40.3114 20.7964C40.6926 20.9619 40.9404 20.3735 40.5592 20.2081C40.0827 20.0058 39.5871 19.8587 39.0915 19.7668C38.6722 19.6748 38.596 20.3184 39.0153 20.3919Z" fill="#CACACA"/>
<path d="M36.8438 19.6558C36.4435 19.7109 35.4524 19.8397 35.0522 19.9132C34.6328 19.9867 34.7472 20.6119 35.1665 20.5383C35.5668 20.4648 36.5579 20.3361 36.9581 20.2809C37.3775 20.2258 37.2631 19.6006 36.8438 19.6558Z" fill="#CACACA"/>
<path d="M40.0826 22.2316C40.0445 22.4891 40.1397 22.7281 40.2921 22.7465C40.4444 22.7649 40.5967 22.5626 40.6348 22.3052C40.6729 22.0477 40.5777 21.8086 40.4254 21.7902C40.273 21.7718 40.1207 21.9741 40.0826 22.2316Z" fill="#120054"/>
<path d="M35.985 21.6593C35.9469 21.9168 36.0421 22.1559 36.1945 22.1743C36.3468 22.1927 36.4991 21.9904 36.5372 21.7329C36.5753 21.4754 36.4801 21.2363 36.3278 21.218C36.1754 21.1996 36.023 21.4019 35.985 21.6593Z" fill="#120054"/>
<path d="M23.1952 64.9043C22.8902 65.5662 21.9754 65.7501 20.584 66.0075C19.5738 66.2097 17.8584 66.5223 17.5725 67.0555C17.5535 67.0923 17.4963 67.2026 17.6107 67.4784C17.8584 68.0484 19.1736 69.8135 21.1748 72.2957C20.6031 72.1302 20.0503 71.9463 19.4976 71.7441C19.2117 71.6521 18.9258 71.5418 18.6399 71.4315C17.3438 69.7583 16.4671 68.5264 16.2383 67.9932C16.1049 67.6807 16.0668 67.3865 16.0668 67.1474C16.0668 66.8165 16.1811 66.5407 16.2764 66.3568C16.9054 65.2352 18.7161 64.8859 20.3171 64.5733C20.6793 64.4998 21.1176 64.4262 21.4417 64.3343C20.908 64.0217 19.9741 63.6172 19.2307 63.3047C17.077 62.3853 14.3705 61.2454 13.4365 59.4435C12.1024 56.8878 16.4861 47.7129 18.1253 44.4769C18.2777 44.1644 18.4302 43.8886 18.5255 43.7047C18.7161 43.3553 19.1545 43.2083 19.5166 43.3921C19.7454 43.5024 19.8788 43.7047 19.9169 43.9253C19.9169 43.9253 19.9169 43.9253 19.9169 43.9437C19.9169 44.0724 19.9169 44.2195 19.8407 44.3482C19.7263 44.5872 19.5929 44.8079 19.4785 45.0469C16.5242 50.857 14.0274 57.421 14.7517 58.8184C15.4569 60.1606 17.8775 61.1902 19.8216 62.0176C21.4607 62.7163 22.6615 63.2127 23.0999 63.9298C23.2905 64.2424 23.3286 64.5733 23.1761 64.8675L23.1952 64.9043Z" fill="#5799E2"/>
<path d="M40.6356 15.6656C40.6356 15.6656 40.0829 18.35 37.3573 18.8648C34.6318 19.3797 30.6864 20.9793 29.6572 20.1151C28.6279 19.251 33.0307 14.6911 35.4513 13.7902C37.891 12.8892 40.5403 14.5624 40.6356 15.6472V15.6656Z" fill="#0583D2"/>
</g>
<path d="M15.2899 1.25H47.3795C55.1506 1.25 61.4194 7.45464 61.4194 15.0706V47.6041C61.4194 55.22 55.1506 61.4247 47.3795 61.4247H15.2899C7.51878 61.4247 1.25 55.22 1.25 47.6041V15.0706C1.25 7.45464 7.51878 1.25 15.2899 1.25Z" stroke="#0064A1" stroke-width="2.5"/>
</svg>
