<svg width="16" height="19" viewBox="0 0 16 19" fill="none" xmlns="http://www.w3.org/2000/svg">
<path d="M0.468262 15.9122V14.5078H2.44785V7.34574C2.44785 6.03863 2.8395 4.87195 3.61178 3.84571C4.38406 2.81947 5.41735 2.18212 6.68998 1.91206V1.23149C6.68998 0.875006 6.82049 0.572535 7.08154 0.345681C7.34259 0.118828 7.64714 0 8.01696 0C8.38679 0 8.69133 0.118828 8.95238 0.345681C9.21344 0.572535 9.34395 0.875006 9.34395 1.23149V1.91206C10.6166 2.18212 11.65 2.81947 12.4332 3.84571C13.2163 4.87195 13.6079 6.03863 13.6079 7.34574V14.5078H15.5658V15.9122H0.489905H0.468262ZM8.00607 18.7208C7.50572 18.7208 7.0598 18.5372 6.68998 18.1699C6.32015 17.8026 6.12434 17.3597 6.12434 16.852H9.89869C9.89869 17.3705 9.71377 17.8026 9.34395 18.1699C8.97412 18.5372 8.52819 18.7208 8.01696 18.7208H8.00607ZM3.86194 14.5078H12.1829V7.34574C12.1829 6.18986 11.7804 5.20683 10.9864 4.39664C10.1815 3.58645 9.2026 3.17595 8.03874 3.17595C6.87488 3.17595 5.89597 3.58645 5.08018 4.39664C4.26439 5.20683 3.86194 6.18986 3.86194 7.34574V14.5078Z" fill="#008BE2"/>
</svg>
