<svg width="149" height="362" viewBox="0 0 149 362" fill="none" xmlns="http://www.w3.org/2000/svg">
<g opacity="0.5">
<g style="mix-blend-mode:overlay" opacity="0.3">
<g style="mix-blend-mode:overlay">
<path d="M149 26.315L149 25.6454L130.414 25.6454L91.0113 73.6721C90.2044 72.9187 89.0369 72.992 88.2986 73.8918C87.4916 74.8754 87.4916 76.4658 88.2986 77.4494C89.1055 78.4329 90.4104 78.4329 91.2173 77.4494C91.9556 76.5495 92.0157 75.1265 91.3976 74.143L130.638 26.315L149 26.315Z" fill="white"/>
<path d="M33.4862 34.78C32.6792 33.7965 31.3743 33.7965 30.5674 34.78C29.7605 35.7636 29.7605 37.354 30.5674 38.3376C31.3057 39.2374 32.4732 39.3107 33.2801 38.5573L58.347 69.1103C57.7289 70.0938 57.789 71.5168 58.5273 72.4167C59.3343 73.4002 60.6391 73.4002 61.4461 72.4167C62.253 71.4331 62.253 69.8427 61.4461 68.8591C60.7078 67.9593 59.5403 67.8861 58.7333 68.6394L33.6664 38.0865C34.2845 37.1029 34.2244 35.6799 33.4862 34.78Z" fill="white"/>
<path d="M149 99.2553L122.414 131.66L93.6639 131.66L79.8514 114.825L55.3081 114.825C55.1708 113.59 54.3123 112.648 53.265 112.648C52.1232 112.648 51.2047 113.778 51.2047 115.16C51.2047 116.541 52.1318 117.671 53.265 117.671C54.3123 117.671 55.1708 116.719 55.3081 115.494L79.6196 115.494L93.4321 132.33L122.637 132.33L149 100.197L149 99.2553Z" fill="white"/>
<path d="M96.1874 114.228C96.0501 112.994 95.1916 112.052 94.1443 112.052C93.0026 112.052 92.084 113.182 92.084 114.563C92.084 115.944 93.0111 117.074 94.1443 117.074C95.1916 117.074 96.0501 116.122 96.1874 114.898L103.656 114.898L136.586 74.7605C137.393 75.5139 138.561 75.4407 139.299 74.5408C140.106 73.5573 140.106 71.9668 139.299 70.9833C138.492 69.9997 137.187 69.9997 136.38 70.9833C135.642 71.8831 135.582 73.3061 136.2 74.2897L103.433 114.228L96.196 114.228L96.1874 114.228Z" fill="white"/>
<path d="M62.5362 179.708C62.6736 180.942 63.532 181.884 64.5794 181.884C65.7211 181.884 66.6396 180.754 66.6396 179.373C66.6396 177.992 65.7125 176.862 64.5794 176.862C63.532 176.862 62.6736 177.814 62.5362 179.038L34.8081 179.038L22.4549 194.095C21.648 193.341 20.4805 193.415 19.7422 194.314C18.9353 195.298 18.9353 196.888 19.7422 197.872C20.5492 198.856 21.854 198.856 22.661 197.872C23.3992 196.972 23.4593 195.549 22.8412 194.566L35.0313 179.708L62.5362 179.708Z" fill="white"/>
<path d="M149 207.823L139.016 207.823L115.228 178.829L103.047 178.829C102.91 177.594 102.051 176.652 101.004 176.652C99.862 176.652 98.9434 177.782 98.9434 179.164C98.9434 180.545 99.8706 181.675 101.004 181.675C102.051 181.675 102.91 180.723 103.047 179.498L114.997 179.498L138.784 208.492L149 208.492L149 207.823Z" fill="white"/>
<path d="M113.803 187.419C112.996 186.435 111.692 186.435 110.885 187.419C110.078 188.402 110.078 189.993 110.885 190.976C111.623 191.876 112.79 191.949 113.597 191.196L130.191 211.422C129.573 212.405 129.633 213.828 130.372 214.728C131.178 215.712 132.483 215.712 133.29 214.728C134.097 213.745 134.097 212.154 133.29 211.171C132.552 210.271 131.385 210.198 130.578 210.951L113.984 190.725C114.602 189.742 114.542 188.319 113.803 187.419Z" fill="white"/>
<path d="M149 179.404L140.287 168.794C140.905 167.811 140.845 166.388 140.106 165.488C139.299 164.504 137.995 164.504 137.188 165.488C136.381 166.471 136.381 168.062 137.188 169.045C137.926 169.945 139.093 170.018 139.9 169.265L149 180.356L149 179.414L149 179.404Z" fill="white"/>
<path d="M92.0245 281.181C93.0374 281.014 93.8101 279.967 93.8101 278.691C93.8101 277.299 92.8829 276.18 91.7498 276.18C90.6166 276.18 89.6895 277.31 89.6895 278.691C89.6895 279.967 90.4707 281.014 91.4751 281.181L91.4751 311.493L70.7176 336.794C69.9106 336.04 68.7431 336.114 68.0049 337.013C67.1979 337.997 67.1979 339.587 68.0049 340.571C68.8118 341.555 70.1167 341.555 70.9236 340.571C71.6619 339.671 71.722 338.248 71.1039 337.265L92.0245 311.765L92.0245 281.171L92.0245 281.181Z" fill="white"/>
<path d="M51.522 277.352C50.3803 277.352 49.4617 278.482 49.4617 279.863C49.4617 281.139 50.2429 282.186 51.2473 282.353L51.2473 301.627L19.0295 340.896C18.2225 340.142 17.055 340.216 16.3167 341.115C15.5098 342.099 15.5098 343.689 16.3167 344.673C17.1237 345.656 18.4285 345.656 19.2355 344.673C19.9738 343.773 20.0339 342.35 19.4158 341.366L51.7881 301.909L51.7881 282.353C52.8011 282.186 53.5737 281.139 53.5737 279.863C53.5737 278.471 52.6466 277.352 51.5134 277.352L51.522 277.352Z" fill="white"/>
<path d="M126.225 228.76C126.363 229.994 127.221 230.936 128.268 230.936C129.41 230.936 130.329 229.806 130.329 228.425C130.329 227.044 129.401 225.914 128.268 225.914C127.221 225.914 126.363 226.866 126.225 228.09L101.416 228.09L79.8171 254.416L68.039 254.416L62.8969 260.683C62.0899 259.93 60.9224 260.003 60.1842 260.903C59.3772 261.887 59.3772 263.477 60.1842 264.461C60.9911 265.444 62.296 265.444 63.1029 264.461C63.8412 263.561 63.9013 262.138 63.2832 261.154L68.2708 255.075L80.0488 255.075L101.648 228.749L126.225 228.749L126.225 228.76Z" fill="white"/>
<path d="M84.9249 205.416C85.0623 206.651 85.9207 207.592 86.968 207.592C88.1098 207.592 89.0283 206.462 89.0283 205.081C89.0283 203.7 88.1012 202.57 86.968 202.57C85.9207 202.57 85.0623 203.522 84.9249 204.746L59.8666 204.746L21.2446 251.821C20.4377 251.068 19.2702 251.141 18.5319 252.041C17.725 253.024 17.725 254.615 18.5319 255.598C19.3389 256.582 20.6437 256.582 21.4507 255.598C22.1889 254.698 22.249 253.275 21.631 252.292L60.0898 205.416L84.9249 205.416Z" fill="white"/>
<path d="M66.2021 229.115C66.0648 227.881 65.2063 226.939 64.159 226.939C63.0172 226.939 62.0987 228.069 62.0987 229.45C62.0987 230.831 63.0258 231.961 64.159 231.961C65.2063 231.961 66.0648 231.009 66.2021 229.785L80.2207 229.785L96.2309 210.271C97.0378 211.024 98.2053 210.951 98.9436 210.051C99.7506 209.068 99.7506 207.477 98.9436 206.494C98.1367 205.51 96.8318 205.51 96.0249 206.494C95.2866 207.393 95.2265 208.816 95.8446 209.8L79.9975 229.115L66.2107 229.115L66.2021 229.115Z" fill="white"/>
<path d="M116.757 247.814C117.564 248.567 118.731 248.494 119.469 247.594C120.276 246.61 120.276 245.02 119.469 244.036C118.663 243.053 117.358 243.053 116.551 244.036C115.812 244.936 115.752 246.359 116.37 247.343C113.211 251.193 105.734 260.307 102.575 264.157C101.768 263.404 100.601 263.477 99.8624 264.377C99.0554 265.361 99.0554 266.951 99.8624 267.935C100.669 268.918 101.974 268.918 102.781 267.935C103.519 267.035 103.579 265.612 102.961 264.628C106.121 260.778 113.598 251.664 116.757 247.814Z" fill="white"/>
<path d="M149 272.183L137.54 286.152L128.414 286.152C128.277 284.917 127.418 283.975 126.371 283.975C125.229 283.975 124.311 285.105 124.311 286.486C124.311 287.867 125.238 288.998 126.371 288.998C127.418 288.998 128.277 288.045 128.414 286.821L137.763 286.821L149 273.125L149 272.183Z" fill="white"/>
<path d="M124.148 263.436C123.341 264.419 123.341 266.01 124.148 266.993C124.955 267.977 126.26 267.977 127.066 266.993C127.805 266.093 127.865 264.67 127.247 263.687L141.523 246.286C142.33 247.04 143.497 246.966 144.236 246.067C145.043 245.083 145.043 243.493 144.236 242.509C143.429 241.525 142.124 241.525 141.317 242.509C140.579 243.409 140.518 244.832 141.137 245.815L126.86 263.216C126.054 262.463 124.886 262.536 124.148 263.436Z" fill="white"/>
<path d="M149 348.042C146.45 348 143.978 347.969 141.643 347.927L113.984 314.214C114.602 313.23 114.542 311.807 113.803 310.907C112.996 309.924 111.692 309.924 110.885 310.907C110.078 311.891 110.078 313.481 110.885 314.465C111.623 315.365 112.79 315.438 113.597 314.685L141.411 348.586L141.523 348.586C141.583 348.586 144.545 348.638 149 348.701L149 348.031L149 348.042Z" fill="white"/>
<path d="M90.7452 353.033C91.7925 353.033 92.651 352.081 92.7883 350.856L104.824 350.856L113.958 361.989L114.73 361.989L105.047 350.187L92.7883 350.187C92.651 348.952 91.7925 348.01 90.7452 348.01C89.6035 348.01 88.6849 349.14 88.6849 350.521C88.6849 351.903 89.6121 353.033 90.7452 353.033Z" fill="white"/>
<path d="M64.3562 345.018L74.7349 357.668L86.5215 357.668L90.0755 362L90.8481 362L86.7447 356.999L74.9581 356.999L64.7425 344.547C65.3606 343.564 65.3005 342.141 64.5622 341.241C63.7553 340.257 62.4504 340.257 61.6435 341.241C60.8365 342.224 60.8365 343.815 61.6435 344.798C62.3817 345.698 63.5492 345.771 64.3562 345.018Z" fill="white"/>
<path d="M137.917 334.115C138.724 335.099 140.029 335.099 140.836 334.115C141.643 333.132 141.643 331.541 140.836 330.558C140.098 329.658 138.93 329.585 138.123 330.338L111.949 298.435C112.567 297.452 112.507 296.029 111.769 295.129C110.962 294.145 109.657 294.145 108.85 295.129C108.043 296.113 108.043 297.703 108.85 298.687C109.588 299.586 110.756 299.66 111.563 298.906L137.737 330.809C137.119 331.793 137.179 333.216 137.917 334.115Z" fill="white"/>
</g>
<g style="mix-blend-mode:overlay">
<path d="M149 26.315L149 25.6454L130.414 25.6454L91.0113 73.6721C90.2044 72.9187 89.0369 72.992 88.2986 73.8918C87.4916 74.8754 87.4916 76.4658 88.2986 77.4494C89.1055 78.4329 90.4104 78.4329 91.2173 77.4494C91.9556 76.5495 92.0157 75.1265 91.3976 74.143L130.638 26.315L149 26.315Z" fill="white"/>
<path d="M33.4862 34.78C32.6792 33.7965 31.3743 33.7965 30.5674 34.78C29.7605 35.7636 29.7605 37.354 30.5674 38.3376C31.3057 39.2374 32.4732 39.3107 33.2801 38.5573L58.347 69.1103C57.7289 70.0938 57.789 71.5168 58.5273 72.4167C59.3343 73.4002 60.6391 73.4002 61.4461 72.4167C62.253 71.4331 62.253 69.8427 61.4461 68.8591C60.7078 67.9593 59.5403 67.8861 58.7333 68.6394L33.6664 38.0865C34.2845 37.1029 34.2244 35.6799 33.4862 34.78Z" fill="white"/>
<path d="M149 99.2553L122.414 131.66L93.6639 131.66L79.8514 114.825L55.3081 114.825C55.1708 113.59 54.3123 112.648 53.265 112.648C52.1232 112.648 51.2047 113.778 51.2047 115.16C51.2047 116.541 52.1318 117.671 53.265 117.671C54.3123 117.671 55.1708 116.719 55.3081 115.494L79.6196 115.494L93.4321 132.33L122.637 132.33L149 100.197L149 99.2553Z" fill="white"/>
<path d="M96.1874 114.228C96.0501 112.994 95.1916 112.052 94.1443 112.052C93.0026 112.052 92.084 113.182 92.084 114.563C92.084 115.944 93.0111 117.074 94.1443 117.074C95.1916 117.074 96.0501 116.122 96.1874 114.898L103.656 114.898L136.586 74.7605C137.393 75.5139 138.561 75.4407 139.299 74.5408C140.106 73.5573 140.106 71.9668 139.299 70.9833C138.492 69.9997 137.187 69.9997 136.38 70.9833C135.642 71.8831 135.582 73.3061 136.2 74.2897L103.433 114.228L96.196 114.228L96.1874 114.228Z" fill="white"/>
<path d="M62.5362 179.708C62.6736 180.942 63.532 181.884 64.5794 181.884C65.7211 181.884 66.6396 180.754 66.6396 179.373C66.6396 177.992 65.7125 176.862 64.5794 176.862C63.532 176.862 62.6736 177.814 62.5362 179.038L34.8081 179.038L22.4549 194.095C21.648 193.341 20.4805 193.415 19.7422 194.314C18.9353 195.298 18.9353 196.888 19.7422 197.872C20.5492 198.856 21.854 198.856 22.661 197.872C23.3992 196.972 23.4593 195.549 22.8412 194.566L35.0313 179.708L62.5362 179.708Z" fill="white"/>
<path d="M149 207.823L139.016 207.823L115.228 178.829L103.047 178.829C102.91 177.594 102.051 176.652 101.004 176.652C99.862 176.652 98.9434 177.782 98.9434 179.164C98.9434 180.545 99.8706 181.675 101.004 181.675C102.051 181.675 102.91 180.723 103.047 179.498L114.997 179.498L138.784 208.492L149 208.492L149 207.823Z" fill="white"/>
<path d="M113.803 187.419C112.996 186.435 111.692 186.435 110.885 187.419C110.078 188.402 110.078 189.993 110.885 190.976C111.623 191.876 112.79 191.949 113.597 191.196L130.191 211.422C129.573 212.405 129.633 213.828 130.372 214.728C131.178 215.712 132.483 215.712 133.29 214.728C134.097 213.745 134.097 212.154 133.29 211.171C132.552 210.271 131.385 210.198 130.578 210.951L113.984 190.725C114.602 189.742 114.542 188.319 113.803 187.419Z" fill="white"/>
<path d="M149 179.404L140.287 168.794C140.905 167.811 140.845 166.388 140.106 165.488C139.299 164.504 137.995 164.504 137.188 165.488C136.381 166.471 136.381 168.062 137.188 169.045C137.926 169.945 139.093 170.018 139.9 169.265L149 180.356L149 179.414L149 179.404Z" fill="white"/>
<path d="M92.0245 281.181C93.0374 281.014 93.8101 279.967 93.8101 278.691C93.8101 277.299 92.8829 276.18 91.7498 276.18C90.6166 276.18 89.6895 277.31 89.6895 278.691C89.6895 279.967 90.4707 281.014 91.4751 281.181L91.4751 311.493L70.7176 336.794C69.9106 336.04 68.7431 336.114 68.0049 337.013C67.1979 337.997 67.1979 339.587 68.0049 340.571C68.8118 341.555 70.1167 341.555 70.9236 340.571C71.6619 339.671 71.722 338.248 71.1039 337.265L92.0245 311.765L92.0245 281.171L92.0245 281.181Z" fill="white"/>
<path d="M51.522 277.352C50.3803 277.352 49.4617 278.482 49.4617 279.863C49.4617 281.139 50.2429 282.186 51.2473 282.353L51.2473 301.627L19.0295 340.896C18.2225 340.142 17.055 340.216 16.3167 341.115C15.5098 342.099 15.5098 343.689 16.3167 344.673C17.1237 345.656 18.4285 345.656 19.2355 344.673C19.9738 343.773 20.0339 342.35 19.4158 341.366L51.7881 301.909L51.7881 282.353C52.8011 282.186 53.5737 281.139 53.5737 279.863C53.5737 278.471 52.6466 277.352 51.5134 277.352L51.522 277.352Z" fill="white"/>
<path d="M126.225 228.76C126.363 229.994 127.221 230.936 128.268 230.936C129.41 230.936 130.329 229.806 130.329 228.425C130.329 227.044 129.401 225.914 128.268 225.914C127.221 225.914 126.363 226.866 126.225 228.09L101.416 228.09L79.8171 254.416L68.039 254.416L62.8969 260.683C62.0899 259.93 60.9224 260.003 60.1842 260.903C59.3772 261.887 59.3772 263.477 60.1842 264.461C60.9911 265.444 62.296 265.444 63.1029 264.461C63.8412 263.561 63.9013 262.138 63.2832 261.154L68.2708 255.075L80.0488 255.075L101.648 228.749L126.225 228.749L126.225 228.76Z" fill="white"/>
<path d="M84.9249 205.416C85.0623 206.651 85.9207 207.592 86.968 207.592C88.1098 207.592 89.0283 206.462 89.0283 205.081C89.0283 203.7 88.1012 202.57 86.968 202.57C85.9207 202.57 85.0623 203.522 84.9249 204.746L59.8666 204.746L21.2446 251.821C20.4377 251.068 19.2702 251.141 18.5319 252.041C17.725 253.024 17.725 254.615 18.5319 255.598C19.3389 256.582 20.6437 256.582 21.4507 255.598C22.1889 254.698 22.249 253.275 21.631 252.292L60.0898 205.416L84.9249 205.416Z" fill="white"/>
<path d="M66.2021 229.115C66.0648 227.881 65.2063 226.939 64.159 226.939C63.0172 226.939 62.0987 228.069 62.0987 229.45C62.0987 230.831 63.0258 231.961 64.159 231.961C65.2063 231.961 66.0648 231.009 66.2021 229.785L80.2207 229.785L96.2309 210.271C97.0378 211.024 98.2053 210.951 98.9436 210.051C99.7506 209.068 99.7506 207.477 98.9436 206.494C98.1367 205.51 96.8318 205.51 96.0249 206.494C95.2866 207.393 95.2265 208.816 95.8446 209.8L79.9975 229.115L66.2107 229.115L66.2021 229.115Z" fill="white"/>
<path d="M116.757 247.814C117.564 248.567 118.731 248.494 119.469 247.594C120.276 246.61 120.276 245.02 119.469 244.036C118.663 243.053 117.358 243.053 116.551 244.036C115.812 244.936 115.752 246.359 116.37 247.343C113.211 251.193 105.734 260.307 102.575 264.157C101.768 263.404 100.601 263.477 99.8624 264.377C99.0554 265.361 99.0554 266.951 99.8624 267.935C100.669 268.918 101.974 268.918 102.781 267.935C103.519 267.035 103.579 265.612 102.961 264.628C106.121 260.778 113.598 251.664 116.757 247.814Z" fill="white"/>
<path d="M149 272.183L137.54 286.152L128.414 286.152C128.277 284.917 127.418 283.975 126.371 283.975C125.229 283.975 124.311 285.105 124.311 286.486C124.311 287.867 125.238 288.998 126.371 288.998C127.418 288.998 128.277 288.045 128.414 286.821L137.763 286.821L149 273.125L149 272.183Z" fill="white"/>
<path d="M124.148 263.436C123.341 264.419 123.341 266.01 124.148 266.993C124.955 267.977 126.26 267.977 127.066 266.993C127.805 266.093 127.865 264.67 127.247 263.687L141.523 246.286C142.33 247.04 143.497 246.966 144.236 246.067C145.043 245.083 145.043 243.493 144.236 242.509C143.429 241.525 142.124 241.525 141.317 242.509C140.579 243.409 140.518 244.832 141.137 245.815L126.86 263.216C126.054 262.463 124.886 262.536 124.148 263.436Z" fill="white"/>
<path d="M149 348.042C146.45 348 143.978 347.969 141.643 347.927L113.984 314.214C114.602 313.23 114.542 311.807 113.803 310.907C112.996 309.924 111.692 309.924 110.885 310.907C110.078 311.891 110.078 313.481 110.885 314.465C111.623 315.365 112.79 315.438 113.597 314.685L141.411 348.586L141.523 348.586C141.583 348.586 144.545 348.638 149 348.701L149 348.031L149 348.042Z" fill="white"/>
<path d="M90.7452 353.033C91.7925 353.033 92.651 352.081 92.7883 350.856L104.824 350.856L113.958 361.989L114.73 361.989L105.047 350.187L92.7883 350.187C92.651 348.952 91.7925 348.01 90.7452 348.01C89.6035 348.01 88.6849 349.14 88.6849 350.521C88.6849 351.903 89.6121 353.033 90.7452 353.033Z" fill="white"/>
<path d="M64.3562 345.018L74.7349 357.668L86.5215 357.668L90.0755 362L90.8481 362L86.7447 356.999L74.9581 356.999L64.7425 344.547C65.3606 343.564 65.3005 342.141 64.5622 341.241C63.7553 340.257 62.4504 340.257 61.6435 341.241C60.8365 342.224 60.8365 343.815 61.6435 344.798C62.3817 345.698 63.5492 345.771 64.3562 345.018Z" fill="white"/>
<path d="M137.917 334.115C138.724 335.099 140.029 335.099 140.836 334.115C141.643 333.132 141.643 331.541 140.836 330.558C140.098 329.658 138.93 329.585 138.123 330.338L111.949 298.435C112.567 297.452 112.507 296.029 111.769 295.129C110.962 294.145 109.657 294.145 108.85 295.129C108.043 296.113 108.043 297.703 108.85 298.687C109.588 299.586 110.756 299.66 111.563 298.906L137.737 330.809C137.119 331.793 137.179 333.216 137.917 334.115Z" fill="white"/>
</g>
<g style="mix-blend-mode:overlay">
<path d="M40.1396 296.468L40.1396 279.8C39.1266 279.633 38.354 278.586 38.354 277.31C38.354 275.918 39.2812 274.798 40.4143 274.798C41.5475 274.798 42.4746 275.929 42.4746 277.31C42.4746 278.586 41.6934 279.633 40.689 279.8L40.689 296.552C40.689 296.792 40.689 297.054 30.7052 309.076C27.4173 313.042 24.1036 316.997 22.258 319.194C22.8675 320.188 22.7988 321.601 22.0434 322.501C21.2278 323.474 19.923 323.453 19.1246 322.459C18.3262 321.465 18.3434 319.875 19.1589 318.901C19.9058 318.012 21.0733 317.96 21.8717 318.724C29.4003 309.756 39.4786 297.619 40.1396 296.479L40.1396 296.468Z" fill="white"/>
<path d="M98.6858 123.781C98.5485 122.546 97.69 121.605 96.6427 121.605C95.501 121.605 94.5824 122.735 94.5824 124.116C94.5824 125.497 95.5095 126.627 96.6427 126.627C97.69 126.627 98.5485 125.675 98.6858 124.451L119.718 124.451L134.037 106.998C134.844 107.751 136.011 107.678 136.75 106.778C137.557 105.795 137.557 104.204 136.75 103.221C135.943 102.237 134.638 102.237 133.831 103.221C133.093 104.121 133.033 105.544 133.651 106.527L119.495 123.781L98.6858 123.781Z" fill="white"/>
<path d="M149 235.498L137.72 235.498L100.961 280.302L100.961 320.147L86.616 337.631C85.8091 336.877 84.6416 336.951 83.9033 337.851C83.0963 338.834 83.0963 340.425 83.9033 341.408C84.7102 342.392 86.0151 342.392 86.822 341.408C87.5603 340.508 87.6204 339.085 87.0023 338.102L101.502 320.429L101.502 280.585L137.952 236.168L149 236.168L149 235.498Z" fill="white"/>
<path d="M149 0.669654L149 0L108.541 -1.76852e-06L80.9931 33.5769C80.1862 32.8235 79.0187 32.8967 78.2804 33.7966C77.4735 34.7801 77.4735 36.3706 78.2804 37.3541C79.0874 38.3377 80.3922 38.3377 81.1992 37.3541C81.9374 36.4543 81.9975 35.0313 81.3794 34.0477L108.764 0.669652L149 0.669654Z" fill="white"/>
<path d="M149 114.375L122.414 146.78L56.6387 146.78C56.5014 145.545 55.6429 144.603 54.5956 144.603C53.4539 144.603 52.5353 145.734 52.5353 147.115C52.5353 148.496 53.4624 149.626 54.5956 149.626C55.6429 149.626 56.5014 148.674 56.6387 147.45L122.637 147.45L149 115.327L149 114.385L149 114.375Z" fill="white"/>
<path d="M149 185.295L141.471 185.295L119.091 158.017L91.2002 158.017C91.0628 156.783 90.2044 155.841 89.157 155.841C88.0153 155.841 87.0967 156.971 87.0967 158.352C87.0967 159.733 88.0239 160.863 89.157 160.863C90.2044 160.863 91.0628 159.911 91.2002 158.687L118.86 158.687L141.24 185.965L149 185.965L149 185.295Z" fill="white"/>
<path d="M45.1444 361.99L45.1444 351.914L80.5042 308.815L80.5042 278.827L96.1367 259.773C96.9436 260.527 98.1111 260.453 98.8494 259.554C99.6563 258.57 99.6563 256.98 98.8494 255.996C98.0424 255.013 96.7376 255.013 95.9306 255.996C95.1924 256.896 95.1323 258.319 95.7504 259.302L79.9548 278.555L79.9548 308.543L44.595 351.641L44.595 361.99L45.1444 361.99Z" fill="white"/>
<path d="M149 327.262L116.138 287.208C116.756 286.225 116.696 284.802 115.958 283.902C115.151 282.918 113.846 282.918 113.039 283.902C112.232 284.885 112.232 286.476 113.039 287.459C113.778 288.359 114.945 288.432 115.752 287.679L149 328.204L149 327.262Z" fill="white"/>
<path d="M4.43577 111.707C4.29842 110.472 3.43996 109.53 2.39264 109.53C1.25089 109.53 0.332352 110.66 0.332352 112.042C0.332352 113.423 1.25948 114.553 2.39264 114.553C3.43996 114.553 4.29842 113.601 4.43577 112.376L40.2505 112.376L57.4197 133.303L78.8038 133.303C78.9412 134.538 79.7996 135.479 80.8469 135.479C81.9887 135.479 82.9072 134.349 82.9072 132.968C82.9072 131.587 81.9801 130.457 80.8469 130.457C79.7996 130.457 78.9412 131.409 78.8038 132.633L57.6514 132.633L40.4823 111.707L4.44435 111.707L4.43577 111.707Z" fill="white"/>
</g>
<g style="mix-blend-mode:overlay">
<path d="M40.1396 296.468L40.1396 279.8C39.1266 279.633 38.354 278.586 38.354 277.31C38.354 275.918 39.2812 274.798 40.4143 274.798C41.5475 274.798 42.4746 275.929 42.4746 277.31C42.4746 278.586 41.6934 279.633 40.689 279.8L40.689 296.552C40.689 296.792 40.689 297.054 30.7052 309.076C27.4173 313.042 24.1036 316.997 22.258 319.194C22.8675 320.188 22.7988 321.601 22.0434 322.501C21.2278 323.474 19.923 323.453 19.1246 322.459C18.3262 321.465 18.3434 319.875 19.1589 318.901C19.9058 318.012 21.0733 317.96 21.8717 318.724C29.4003 309.756 39.4786 297.619 40.1396 296.479L40.1396 296.468Z" fill="white"/>
<path d="M98.6858 123.781C98.5485 122.546 97.69 121.605 96.6427 121.605C95.501 121.605 94.5824 122.735 94.5824 124.116C94.5824 125.497 95.5095 126.627 96.6427 126.627C97.69 126.627 98.5485 125.675 98.6858 124.451L119.718 124.451L134.037 106.998C134.844 107.751 136.011 107.678 136.75 106.778C137.557 105.795 137.557 104.204 136.75 103.221C135.943 102.237 134.638 102.237 133.831 103.221C133.093 104.121 133.033 105.544 133.651 106.527L119.495 123.781L98.6858 123.781Z" fill="white"/>
<path d="M149 235.498L137.72 235.498L100.961 280.302L100.961 320.147L86.616 337.631C85.8091 336.877 84.6416 336.951 83.9033 337.851C83.0963 338.834 83.0963 340.425 83.9033 341.408C84.7102 342.392 86.0151 342.392 86.822 341.408C87.5603 340.508 87.6204 339.085 87.0023 338.102L101.502 320.429L101.502 280.585L137.952 236.168L149 236.168L149 235.498Z" fill="white"/>
<path d="M149 0.669654L149 0L108.541 -1.76852e-06L80.9931 33.5769C80.1862 32.8235 79.0187 32.8967 78.2804 33.7966C77.4735 34.7801 77.4735 36.3706 78.2804 37.3541C79.0874 38.3377 80.3922 38.3377 81.1992 37.3541C81.9374 36.4543 81.9975 35.0313 81.3794 34.0477L108.764 0.669652L149 0.669654Z" fill="white"/>
<path d="M149 114.375L122.414 146.78L56.6387 146.78C56.5014 145.545 55.6429 144.603 54.5956 144.603C53.4539 144.603 52.5353 145.734 52.5353 147.115C52.5353 148.496 53.4624 149.626 54.5956 149.626C55.6429 149.626 56.5014 148.674 56.6387 147.45L122.637 147.45L149 115.327L149 114.385L149 114.375Z" fill="white"/>
<path d="M149 185.295L141.471 185.295L119.091 158.017L91.2002 158.017C91.0628 156.783 90.2044 155.841 89.157 155.841C88.0153 155.841 87.0967 156.971 87.0967 158.352C87.0967 159.733 88.0239 160.863 89.157 160.863C90.2044 160.863 91.0628 159.911 91.2002 158.687L118.86 158.687L141.24 185.965L149 185.965L149 185.295Z" fill="white"/>
<path d="M45.1444 361.99L45.1444 351.914L80.5042 308.815L80.5042 278.827L96.1367 259.773C96.9436 260.527 98.1111 260.453 98.8494 259.554C99.6563 258.57 99.6563 256.98 98.8494 255.996C98.0424 255.013 96.7376 255.013 95.9306 255.996C95.1924 256.896 95.1323 258.319 95.7504 259.302L79.9548 278.555L79.9548 308.543L44.595 351.641L44.595 361.99L45.1444 361.99Z" fill="white"/>
<path d="M149 327.262L116.138 287.208C116.756 286.225 116.696 284.802 115.958 283.902C115.151 282.918 113.846 282.918 113.039 283.902C112.232 284.885 112.232 286.476 113.039 287.459C113.778 288.359 114.945 288.432 115.752 287.679L149 328.204L149 327.262Z" fill="white"/>
<path d="M4.43577 111.707C4.29842 110.472 3.43996 109.53 2.39264 109.53C1.25089 109.53 0.332352 110.66 0.332352 112.042C0.332352 113.423 1.25948 114.553 2.39264 114.553C3.43996 114.553 4.29842 113.601 4.43577 112.376L40.2505 112.376L57.4197 133.303L78.8038 133.303C78.9412 134.538 79.7996 135.479 80.8469 135.479C81.9887 135.479 82.9072 134.349 82.9072 132.968C82.9072 131.587 81.9801 130.457 80.8469 130.457C79.7996 130.457 78.9412 131.409 78.8038 132.633L57.6514 132.633L40.4823 111.707L4.44435 111.707L4.43577 111.707Z" fill="white"/>
</g>
<g style="mix-blend-mode:overlay">
<path d="M40.1396 296.468L40.1396 279.8C39.1266 279.633 38.354 278.586 38.354 277.31C38.354 275.918 39.2812 274.798 40.4143 274.798C41.5475 274.798 42.4746 275.929 42.4746 277.31C42.4746 278.586 41.6934 279.633 40.689 279.8L40.689 296.552C40.689 296.792 40.689 297.054 30.7052 309.076C27.4173 313.042 24.1036 316.997 22.258 319.194C22.8675 320.188 22.7988 321.601 22.0434 322.501C21.2278 323.474 19.923 323.453 19.1246 322.459C18.3262 321.465 18.3434 319.875 19.1589 318.901C19.9058 318.012 21.0733 317.96 21.8717 318.724C29.4003 309.756 39.4786 297.619 40.1396 296.479L40.1396 296.468Z" fill="white"/>
<path d="M98.6858 123.781C98.5485 122.546 97.69 121.605 96.6427 121.605C95.501 121.605 94.5824 122.735 94.5824 124.116C94.5824 125.497 95.5095 126.627 96.6427 126.627C97.69 126.627 98.5485 125.675 98.6858 124.451L119.718 124.451L134.037 106.998C134.844 107.751 136.011 107.678 136.75 106.778C137.557 105.795 137.557 104.204 136.75 103.221C135.943 102.237 134.638 102.237 133.831 103.221C133.093 104.121 133.033 105.544 133.651 106.527L119.495 123.781L98.6858 123.781Z" fill="white"/>
<path d="M149 235.498L137.72 235.498L100.961 280.302L100.961 320.147L86.616 337.631C85.8091 336.877 84.6416 336.951 83.9033 337.851C83.0963 338.834 83.0963 340.425 83.9033 341.408C84.7102 342.392 86.0151 342.392 86.822 341.408C87.5603 340.508 87.6204 339.085 87.0023 338.102L101.502 320.429L101.502 280.585L137.952 236.168L149 236.168L149 235.498Z" fill="white"/>
<path d="M149 0.669654L149 0L108.541 -1.76852e-06L80.9931 33.5769C80.1862 32.8235 79.0187 32.8967 78.2804 33.7966C77.4735 34.7801 77.4735 36.3706 78.2804 37.3541C79.0874 38.3377 80.3922 38.3377 81.1992 37.3541C81.9374 36.4543 81.9975 35.0313 81.3794 34.0477L108.764 0.669652L149 0.669654Z" fill="white"/>
<path d="M149 114.375L122.414 146.78L56.6387 146.78C56.5014 145.545 55.6429 144.603 54.5956 144.603C53.4539 144.603 52.5353 145.734 52.5353 147.115C52.5353 148.496 53.4624 149.626 54.5956 149.626C55.6429 149.626 56.5014 148.674 56.6387 147.45L122.637 147.45L149 115.327L149 114.385L149 114.375Z" fill="white"/>
<path d="M149 185.295L141.471 185.295L119.091 158.017L91.2002 158.017C91.0628 156.783 90.2044 155.841 89.157 155.841C88.0153 155.841 87.0967 156.971 87.0967 158.352C87.0967 159.733 88.0239 160.863 89.157 160.863C90.2044 160.863 91.0628 159.911 91.2002 158.687L118.86 158.687L141.24 185.965L149 185.965L149 185.295Z" fill="white"/>
<path d="M45.1444 361.99L45.1444 351.914L80.5042 308.815L80.5042 278.827L96.1367 259.773C96.9436 260.527 98.1111 260.453 98.8494 259.554C99.6563 258.57 99.6563 256.98 98.8494 255.996C98.0424 255.013 96.7376 255.013 95.9306 255.996C95.1924 256.896 95.1323 258.319 95.7504 259.302L79.9548 278.555L79.9548 308.543L44.595 351.641L44.595 361.99L45.1444 361.99Z" fill="white"/>
<path d="M149 327.262L116.138 287.208C116.756 286.225 116.696 284.802 115.958 283.902C115.151 282.918 113.846 282.918 113.039 283.902C112.232 284.885 112.232 286.476 113.039 287.459C113.778 288.359 114.945 288.432 115.752 287.679L149 328.204L149 327.262Z" fill="white"/>
<path d="M4.43577 111.707C4.29842 110.472 3.43996 109.53 2.39264 109.53C1.25089 109.53 0.332352 110.66 0.332352 112.042C0.332352 113.423 1.25948 114.553 2.39264 114.553C3.43996 114.553 4.29842 113.601 4.43577 112.376L40.2505 112.376L57.4197 133.303L78.8038 133.303C78.9412 134.538 79.7996 135.479 80.8469 135.479C81.9887 135.479 82.9072 134.349 82.9072 132.968C82.9072 131.587 81.9801 130.457 80.8469 130.457C79.7996 130.457 78.9412 131.409 78.8038 132.633L57.6514 132.633L40.4823 111.707L4.44435 111.707L4.43577 111.707Z" fill="white"/>
</g>
<g style="mix-blend-mode:overlay">
<path d="M149 131.827L149 131.158L146.081 131.158L131.676 148.715C130.869 147.962 129.702 148.035 128.964 148.935C128.157 149.919 128.157 151.509 128.964 152.493C129.771 153.476 131.075 153.476 131.882 152.493C132.621 151.593 132.681 150.17 132.063 149.186L146.304 131.827L149 131.827Z" fill="white"/>
<path d="M94.7115 170.898C94.8489 172.133 95.7073 173.074 96.7546 173.074C97.8964 173.074 98.8149 171.944 98.8149 170.563C98.8149 169.182 97.8878 168.052 96.7546 168.052C95.7073 168.052 94.8489 169.004 94.7115 170.228L61.7296 170.228L30.6106 132.299L10.0592 132.299C9.92183 131.064 9.06338 130.122 8.01607 130.122C6.87432 130.122 5.95576 131.252 5.95576 132.633C5.95576 134.015 6.8829 135.145 8.01607 135.145C9.06338 135.145 9.92183 134.192 10.0592 132.968L30.3874 132.968L61.5064 170.898L94.7115 170.898Z" fill="white"/>
<path d="M45.6159 91.774L26.2406 68.1583L15.673 68.1583C15.5357 66.9236 14.6772 65.9819 13.6299 65.9819C12.4881 65.9819 11.5696 67.1119 11.5696 68.4931C11.5696 69.8742 12.4967 71.0043 13.6299 71.0043C14.6772 71.0043 15.5357 70.0521 15.673 68.8279L26.0088 68.8279L45.3842 92.4437L91.303 92.4437L134.44 39.8758C135.247 40.6292 136.415 40.556 137.153 39.6561C137.96 38.6726 137.96 37.0821 137.153 36.0986C136.346 35.115 135.041 35.115 134.234 36.0986C133.496 36.9984 133.436 38.4214 134.054 39.405L91.0884 91.774L45.6245 91.774L45.6159 91.774Z" fill="white"/>
<path d="M149 223.047L124.568 223.047L97.7244 190.328L64.8714 190.328L49.2904 209.319L31.7693 209.319L5.99846 240.73C5.19151 239.977 4.02402 240.05 3.28573 240.95C2.47879 241.933 2.47879 243.524 3.28573 244.507C4.09269 245.491 5.39755 245.491 6.2045 244.507C6.94276 243.608 7.00285 242.185 6.38476 241.201L31.9925 209.989L49.5136 209.989L65.0946 190.998L97.5012 190.998L124.345 223.717L149 223.717L149 223.047Z" fill="white"/>
<path d="M30.0524 361.99L30.0524 352.217L70.0651 303.447L70.0651 277.456L102.446 237.989L111.614 237.989C111.752 239.223 112.61 240.165 113.657 240.165C114.799 240.165 115.718 239.035 115.718 237.654C115.718 236.273 114.791 235.143 113.657 235.143C112.61 235.143 111.752 236.095 111.614 237.319L102.223 237.319L69.5242 277.174L69.5242 303.165L29.5116 351.934L29.5116 361.99L30.061 361.99L30.0524 361.99Z" fill="white"/>
<path d="M149 360.682L133.505 360.682L106.112 327.293C106.73 326.31 106.67 324.887 105.931 323.987C105.124 323.003 103.819 323.003 103.013 323.987C102.206 324.971 102.206 326.561 103.013 327.545C103.751 328.444 104.918 328.518 105.725 327.764L133.273 361.341L149 361.341L149 360.671L149 360.682Z" fill="white"/>
<path d="M149 252.46L127.006 279.267L112.85 279.267C112.713 278.032 111.855 277.09 110.807 277.09C109.666 277.09 108.747 278.22 108.747 279.601C108.747 280.983 109.674 282.113 110.807 282.113C111.855 282.113 112.713 281.161 112.85 279.936L127.23 279.936L149 253.401L149 252.46Z" fill="white"/>
<path d="M149 13.0582L149 12.3885C147.026 12.3885 144.854 12.4095 142.467 12.4304C129.728 12.535 116.911 12.7547 116.782 12.7547L116.671 12.7547L88.8566 46.656C88.0496 45.9026 86.8821 45.9759 86.1438 46.8757C85.3369 47.8593 85.3369 49.4497 86.1438 50.4332C86.9508 51.4168 88.2557 51.4168 89.0626 50.4332C89.8009 49.5334 89.861 48.1104 89.2429 47.1268L116.902 13.4244C126.706 13.257 138.913 13.1 149 13.0582Z" fill="white"/>
<path d="M144.631 54.5975C143.489 54.5975 142.57 55.7275 142.57 57.1087C142.57 58.3852 143.352 59.4315 144.356 59.599L144.356 81.3732L115.246 116.854C114.439 116.101 113.271 116.174 112.533 117.074C111.726 118.058 111.726 119.648 112.533 120.632C113.34 121.615 114.645 121.615 115.452 120.632C116.19 119.732 116.25 118.309 115.632 117.325L144.905 81.6662L144.905 59.6094C145.918 59.442 146.691 58.3957 146.691 57.1191C146.691 55.7275 145.764 54.6079 144.631 54.6079L144.631 54.5975Z" fill="white"/>
<path d="M86.5216 239.15L100.609 221.98C101.416 222.733 102.583 222.66 103.322 221.76C104.128 220.777 104.128 219.186 103.322 218.203C102.515 217.219 101.21 217.219 100.403 218.203C99.6645 219.103 99.6044 220.526 100.223 221.509L86.2898 238.491L63.3347 238.491L33.3574 275.029C32.5504 274.276 31.3829 274.349 30.6447 275.249C29.8377 276.232 29.8377 277.823 30.6447 278.806C31.4516 279.79 32.7565 279.79 33.5634 278.806C34.3017 277.907 34.3618 276.484 33.7437 275.5L63.5579 239.161L86.513 239.161L86.5216 239.15Z" fill="white"/>
<path d="M57.7116 354.906C59.1023 356.622 61.3085 359.343 63.4632 361.99L64.2358 361.99C62.1841 359.479 59.9521 356.727 58.0979 354.435C58.7246 353.452 58.673 352.039 57.9348 351.129C57.1364 350.135 55.8316 350.124 55.016 351.097C54.2005 352.071 54.1919 353.661 54.9903 354.655C55.7285 355.565 56.8875 355.649 57.703 354.896L57.7116 354.906Z" fill="white"/>
<path d="M149 289.521L149 288.579L140.278 299.21C139.471 298.456 138.304 298.53 137.565 299.429C136.758 300.413 136.758 302.003 137.565 302.987C138.372 303.97 139.677 303.97 140.484 302.987C141.222 302.087 141.282 300.664 140.664 299.68L149 289.521Z" fill="white"/>
</g>
</g>
</g>
</svg>
