<svg width="22" height="19" viewBox="0 0 22 19" fill="none" xmlns="http://www.w3.org/2000/svg">
<path fill-rule="evenodd" clip-rule="evenodd" d="M10.5668 6.61774C8.96917 6.61774 7.67915 7.90775 7.67915 9.50539C7.67915 11.103 8.96917 12.393 10.5668 12.393C12.1644 12.393 13.4545 11.103 13.4545 9.50539C13.4545 7.90775 12.1644 6.61774 10.5668 6.61774ZM6.26074 9.50539C6.26074 7.12438 8.1858 5.19933 10.5668 5.19933C12.9478 5.19933 14.8729 7.12438 14.8729 9.50539C14.8729 11.8864 12.9478 13.8115 10.5668 13.8115C8.1858 13.8115 6.26074 11.8864 6.26074 9.50539Z" fill="#008BE2"/>
<path fill-rule="evenodd" clip-rule="evenodd" d="M0.817114 6.51192C3.21333 2.74522 6.72081 0.477081 10.5681 0.477081C14.4156 0.477081 17.9232 2.7454 20.3194 6.51238C20.8613 7.36192 21.1084 8.45261 21.1084 9.50025C21.1084 10.5481 20.8613 11.639 20.3191 12.4886C17.9229 16.2553 14.4154 18.5234 10.5681 18.5234C6.72065 18.5234 3.21304 16.2551 0.816818 12.4881C0.274887 11.6386 0.027832 10.5479 0.027832 9.50025C0.027832 8.45242 0.274977 7.36152 0.817114 6.51192ZM10.5681 1.89549C7.32234 1.89549 4.21896 3.80676 2.01362 7.27368L2.01302 7.27461C1.65113 7.84158 1.44624 8.64938 1.44624 9.50025C1.44624 10.3511 1.65113 11.1589 2.01302 11.7259L2.01362 11.7268C4.21896 15.1937 7.32234 17.105 10.5681 17.105C13.8139 17.105 16.9173 15.1937 19.1226 11.7268L19.1232 11.7259C19.4851 11.1589 19.69 10.3511 19.69 9.50025C19.69 8.64938 19.4851 7.84158 19.1232 7.27461L19.1226 7.27368C16.9173 3.80676 13.8139 1.89549 10.5681 1.89549Z" fill="#008BE2"/>
</svg>
