<svg xmlns="http://www.w3.org/2000/svg" width="16" height="18" viewBox="0 0 16 18" fill="none">
  <path d="M7.82908 17.9881C5.58481 17.9881 3.34055 17.9879 1.09628 17.9877C0.426169 17.9874 0.231635 17.7879 0.243685 17.1226C0.29502 14.2887 2.52437 11.6599 5.35438 11.2708C6.63895 11.0941 7.96011 11.1712 9.26493 11.1558C12.0433 11.1231 14.9389 13.2032 15.3782 16.6347C15.5002 17.5872 15.5631 18.0247 14.2146 17.9989C12.0868 17.9582 9.95767 17.9881 7.82908 17.9881ZM1.60346 16.6703H14.0525C13.8173 14.6458 12.1564 12.7952 10.1726 12.5754C8.70336 12.4109 7.22135 12.3934 5.74862 12.5231C3.58465 12.7191 1.82591 14.5718 1.60346 16.6703Z" fill="#008BE2"/>
  <path d="M7.84075 10.4064C6.87727 10.4094 5.93464 10.1263 5.13249 9.59312C4.33035 9.05992 3.70486 8.30065 3.33542 7.41168C2.96599 6.52271 2.86926 5.54413 3.05753 4.60015C3.2458 3.65616 3.71056 2.78934 4.39284 2.10971C5.07511 1.43008 5.94413 0.968298 6.88958 0.782961C7.83503 0.597624 8.81428 0.697094 9.70304 1.06875C10.5918 1.44041 11.35 2.06749 11.8814 2.87041C12.4128 3.67332 12.6934 4.61585 12.6876 5.57837C12.6867 8.22523 10.5015 10.4019 7.84075 10.4064ZM7.83816 2.08145C7.15285 2.07917 6.48219 2.27962 5.91074 2.65754C5.33929 3.03546 4.89262 3.57394 4.62704 4.20508C4.36145 4.83623 4.28885 5.5318 4.41837 6.20411C4.54789 6.87642 4.87374 7.49538 5.35485 7.98295C5.83595 8.47053 6.45078 8.80491 7.12182 8.94393C7.79286 9.08295 8.49008 9.0204 9.12559 8.76415C9.76109 8.50791 10.3064 8.06943 10.6929 7.50402C11.0793 6.9386 11.2896 6.27155 11.2971 5.58695C11.3016 5.12954 11.2156 4.67575 11.044 4.25167C10.8724 3.82758 10.6186 3.44156 10.2971 3.1158C9.97569 2.79003 9.59297 2.53095 9.17098 2.35344C8.74898 2.17593 8.29603 2.0835 7.83816 2.08145Z" fill="#008BE2"/>
</svg>