<svg xmlns="http://www.w3.org/2000/svg" width="24" height="22" viewBox="0 0 24 22" fill="none">
<path d="M0 22L2.94906e-06 -3.8147e-06L24 -7.35895e-07L24 18C24 20.2091 22.2091 22 20 22L0 22Z" fill="#F24822"/>
<path d="M18 13.005L16.24 13.2239C16.1942 13.3425 16.1392 13.4542 16.075 13.5591C16.0108 13.664 15.9421 13.7666 15.8688 13.8669L16.5563 15.495L13.9438 17L12.8713 15.5908C12.8071 15.5999 12.7452 15.6045 12.6856 15.6045L12.3144 15.6045C12.2548 15.6045 12.1929 15.5999 12.1288 15.5908L11.0563 17L8.44375 15.495L9.13125 13.8669C9.05792 13.7666 8.98917 13.6617 8.925 13.5522C8.86083 13.4428 8.80583 13.3333 8.76 13.2239L7 13.005L7 9.99502L8.76 9.77612C8.80583 9.65755 8.86083 9.54581 8.925 9.44092C8.98917 9.33603 9.05792 9.23342 9.13125 9.13309L8.44375 7.50498L11.0563 6L12.1288 7.40921C12.1929 7.40008 12.2548 7.39552 12.3144 7.39552L12.6856 7.39552C12.7452 7.39552 12.8071 7.40464 12.8713 7.42289L13.9438 6.01368L16.5563 7.51866L15.8688 9.13309C15.9421 9.23342 16.0108 9.33831 16.075 9.44776C16.1392 9.55721 16.1942 9.66667 16.24 9.77612L18 9.99503L18 13.005ZM14.425 11.4726C14.425 10.9436 14.2371 10.4921 13.8613 10.1182C13.4854 9.7442 13.0317 9.55721 12.5 9.55721C11.9683 9.55721 11.5146 9.7442 11.1388 10.1182C10.7629 10.4921 10.575 10.9436 10.575 11.4726C10.575 12.0108 10.7629 12.4646 11.1388 12.834C11.5146 13.2034 11.9683 13.3881 12.5 13.3881C13.0317 13.3881 13.4854 13.2034 13.8613 12.834C14.2371 12.4646 14.425 12.0108 14.425 11.4726ZM13.325 11.4726C13.325 11.7007 13.2448 11.8945 13.0844 12.0541C12.924 12.2137 12.7292 12.2935 12.5 12.2935C12.2708 12.2935 12.076 12.2137 11.9156 12.0541C11.7552 11.8945 11.675 11.7007 11.675 11.4726C11.675 11.2446 11.7552 11.0508 11.9156 10.8912C12.076 10.7316 12.2708 10.6517 12.5 10.6517C12.7292 10.6517 12.924 10.7316 13.0844 10.8912C13.2448 11.0508 13.325 11.2446 13.325 11.4726ZM16.9 12.0473L16.9 10.9664L15.4425 10.7749C15.3692 10.4921 15.2615 10.2299 15.1194 9.98819C14.9773 9.74648 14.8054 9.52529 14.6038 9.32463L15.1675 7.97015L14.2325 7.43657L13.3388 8.61318C13.2104 8.56758 13.0752 8.53566 12.9331 8.51741C12.791 8.49917 12.6467 8.49005 12.5 8.49005C12.3533 8.49005 12.209 8.49917 12.0669 8.51741C11.9248 8.53566 11.7896 8.56758 11.6613 8.61318L10.7675 7.43657L9.8325 7.97015L10.41 9.32463C10.1992 9.52529 10.0227 9.74648 9.88063 9.98818C9.73854 10.2299 9.63083 10.4921 9.5575 10.7749L8.1 10.9527L8.1 12.0336L9.5575 12.2251C9.63083 12.5079 9.73854 12.7701 9.88063 13.0118C10.0227 13.2535 10.1946 13.4747 10.3963 13.6754L9.8325 15.0299L10.7675 15.5634L11.6475 14.3868C11.785 14.4324 11.9225 14.4643 12.06 14.4826C12.1975 14.5008 12.3442 14.51 12.5 14.51C12.6467 14.51 12.7888 14.5008 12.9263 14.4826C13.0638 14.4643 13.2013 14.4324 13.3388 14.3868L14.2325 15.5634L15.1675 15.0299L14.59 13.6754C14.8008 13.4747 14.9773 13.2535 15.1194 13.0118C15.2615 12.7701 15.3692 12.5079 15.4425 12.2251L16.9 12.0473Z" fill="white"/>
</svg>