<svg width="20" height="16" viewBox="0 0 20 16" fill="none" xmlns="http://www.w3.org/2000/svg">
<path d="M16.8041 7.79722C16.7777 6.81696 16.5644 5.8923 16.1632 5.02553C15.736 4.10246 15.1539 3.30081 14.4183 2.61144C13.6827 1.92214 12.8292 1.37825 11.8482 0.979511C10.8628 0.57902 9.808 0.379639 8.68614 0.379639C7.56427 0.379639 6.50944 0.57902 5.52409 0.979511C4.54307 1.37825 3.68959 1.92214 2.95401 2.61144C2.21837 3.3008 1.63618 4.10244 1.20892 5.02553C0.779448 5.95341 0.56543 6.94761 0.56543 8.00531C0.56543 10.1323 1.35336 11.9316 2.93101 13.4099C4.50811 14.8878 6.43164 15.6202 8.67463 15.6202H8.69764C9.72849 15.6202 10.723 15.4313 11.68 15.0771C12.6379 14.7224 13.4804 14.2225 14.1937 13.5987L14.4015 13.4169L14.2 13.2281L13.2692 12.3559L13.1053 12.2022L12.9351 12.3489C12.3843 12.8238 11.7321 13.2078 10.9877 13.4889C10.2473 13.7685 9.47307 13.9034 8.68614 13.9034C6.94429 13.9034 5.46608 13.3237 4.22653 12.1621C2.98743 11.001 2.37532 9.62311 2.37532 8.00531C2.37532 6.38751 2.98743 5.00964 4.22653 3.8485C5.46608 2.68693 6.94429 2.10725 8.68614 2.10725C10.428 2.10725 11.9062 2.68693 13.1457 3.8485C14.3298 4.95807 14.9413 6.26554 14.9933 7.79117L13.9128 6.7785L13.7418 6.6183L13.5709 6.77849L12.6631 7.62915L12.4684 7.81157L12.6631 7.994L15.731 10.8688L15.902 11.0289L16.0729 10.8688L19.1407 7.99399L19.3353 7.81158L19.1407 7.62916L18.2331 6.77851L18.0621 6.61829L17.8912 6.77849L16.8041 7.79722Z" fill="#008BE2" stroke="#018DE1" stroke-width="0.5"/>
</svg>
