<svg width="226" height="42" viewBox="0 0 226 42" fill="none" xmlns="http://www.w3.org/2000/svg">
<path d="M198.45 23.3333H197.713L197.451 23.0813C198.366 22.0173 198.917 20.636 198.917 19.1333C198.917 15.7827 196.2 13.0667 192.847 13.0667C189.494 13.0667 186.777 15.7827 186.777 19.1333C186.777 22.484 189.494 25.2 192.847 25.2C194.351 25.2 195.733 24.6493 196.797 23.7347L197.05 23.996V24.7333L201.719 29.3907L203.11 28L198.45 23.3333ZM192.847 23.3333C190.522 23.3333 188.645 21.4573 188.645 19.1333C188.645 16.8093 190.522 14.9333 192.847 14.9333C195.172 14.9333 197.05 16.8093 197.05 19.1333C197.05 21.4573 195.172 23.3333 192.847 23.3333Z" fill="#008BE2"/>
<path d="M206.786 3.43274H182.273C178.055 3.43274 174.636 6.84967 174.636 11.0647V31.0507C174.636 35.2657 178.055 38.6826 182.273 38.6826H206.786C211.003 38.6826 214.422 35.2657 214.422 31.0507V11.0647C214.422 6.84967 211.003 3.43274 206.786 3.43274Z" stroke="#A8C9E5" stroke-miterlimit="10"/>
</svg>
