<svg width="14" height="14" viewBox="0 0 14 14" fill="none" xmlns="http://www.w3.org/2000/svg">
<path id="settings" d="M4.9338 13.4121L4.67509 11.3321C4.53496 11.2779 4.40291 11.2129 4.27894 11.1371C4.15498 11.0613 4.03371 10.98 3.91514 10.8934L1.99101 11.7059L0.212402 8.61836L1.87783 7.35086C1.86705 7.27503 1.86166 7.2019 1.86166 7.13148V6.69273C1.86166 6.62232 1.86705 6.54919 1.87783 6.47336L0.212402 5.20586L1.99101 2.11836L3.91514 2.93086C4.03371 2.84419 4.15768 2.76294 4.28703 2.68711C4.41638 2.61128 4.54574 2.54628 4.67509 2.49211L4.9338 0.412109H8.49101L8.74972 2.49211C8.88985 2.54628 9.0219 2.61128 9.14586 2.68711C9.26982 2.76294 9.39109 2.84419 9.50967 2.93086L11.4338 2.11836L13.2124 5.20586L11.547 6.47336C11.5578 6.54919 11.5631 6.62232 11.5631 6.69273V7.13148C11.5631 7.2019 11.5524 7.27503 11.5308 7.35086L13.1962 8.61836L11.4176 11.7059L9.50967 10.8934C9.39109 10.98 9.26713 11.0613 9.13778 11.1371C9.00842 11.2129 8.87907 11.2779 8.74972 11.3321L8.49101 13.4121H4.9338ZM6.74474 9.18711C7.36995 9.18711 7.90353 8.96503 8.34549 8.52086C8.78744 8.07669 9.00842 7.54044 9.00842 6.91211C9.00842 6.28378 8.78744 5.74753 8.34549 5.30336C7.90353 4.85919 7.36995 4.63711 6.74474 4.63711C6.10875 4.63711 5.57248 4.85919 5.13591 5.30336C4.69934 5.74753 4.48106 6.28378 4.48106 6.91211C4.48106 7.54044 4.69934 8.07669 5.13591 8.52086C5.57248 8.96503 6.10875 9.18711 6.74474 9.18711ZM6.74474 7.88711C6.47526 7.88711 6.24619 7.79232 6.05755 7.60273C5.86891 7.41315 5.77459 7.18294 5.77459 6.91211C5.77459 6.64128 5.86891 6.41107 6.05755 6.22148C6.24619 6.0319 6.47526 5.93711 6.74474 5.93711C7.01423 5.93711 7.24329 6.0319 7.43193 6.22148C7.62057 6.41107 7.71489 6.64128 7.71489 6.91211C7.71489 7.18294 7.62057 7.41315 7.43193 7.60273C7.24329 7.79232 7.01423 7.88711 6.74474 7.88711ZM6.06564 12.1121H7.343L7.56937 10.3896C7.90353 10.3029 8.21344 10.1757 8.49909 10.0077C8.78475 9.83982 9.04615 9.63669 9.2833 9.39836L10.884 10.0646L11.5146 8.95961L10.1241 7.90336C10.178 7.75169 10.2157 7.5919 10.2373 7.42398C10.2588 7.25607 10.2696 7.08544 10.2696 6.91211C10.2696 6.73878 10.2588 6.56815 10.2373 6.40023C10.2157 6.23232 10.178 6.07253 10.1241 5.92086L11.5146 4.86461L10.884 3.75961L9.2833 4.44211C9.04615 4.19294 8.78475 3.9844 8.49909 3.81648C8.21344 3.64857 7.90353 3.52128 7.56937 3.43461L7.35917 1.71211H6.08181L5.85544 3.43461C5.52128 3.52128 5.21137 3.64857 4.92571 3.81648C4.64006 3.9844 4.37865 4.18753 4.14151 4.42586L2.54076 3.75961L1.91016 4.86461L3.30071 5.90461C3.24681 6.06711 3.20909 6.22961 3.18753 6.39211C3.16597 6.55461 3.15519 6.72794 3.15519 6.91211C3.15519 7.08544 3.16597 7.25336 3.18753 7.41586C3.20909 7.57836 3.24681 7.74086 3.30071 7.90336L1.91016 8.95961L2.54076 10.0646L4.14151 9.38211C4.37865 9.63128 4.64006 9.83982 4.92571 10.0077C5.21137 10.1757 5.52128 10.3029 5.85544 10.3896L6.06564 12.1121Z" fill="#008BE2"/>
</svg>
