<svg width="45" height="45" viewBox="0 0 45 45" fill="none" xmlns="http://www.w3.org/2000/svg">
<g id="Group 2253">
<ellipse id="Ellipse 70" cx="22.4645" cy="22.3708" rx="22.4098" ry="22.3708" fill="#CCEEFF"/>
<path id="backup" d="M16.5958 30.893C14.9773 30.893 13.5945 30.3337 12.4473 29.2152C11.3001 28.0967 10.7266 26.7296 10.7266 25.1139C10.7266 23.729 11.1445 22.4951 11.9804 21.4121C12.8164 20.3291 13.9102 19.6366 15.2619 19.3348C15.7065 17.7014 16.5958 16.3787 17.9297 15.3666C19.2636 14.3546 20.7754 13.8486 22.465 13.8486C24.5459 13.8486 26.3111 14.5721 27.7607 16.0191C29.2102 17.4661 29.9349 19.2283 29.9349 21.3056C31.1621 21.4476 32.1804 21.9758 32.9896 22.8901C33.7988 23.8045 34.2035 24.8742 34.2035 26.0993C34.2035 27.4309 33.7366 28.5627 32.8028 29.4948C31.8691 30.427 30.7353 30.893 29.4014 30.893H23.5321C22.9452 30.893 22.4428 30.6844 22.0248 30.2672C21.6069 29.8499 21.3979 29.3484 21.3979 28.7625V23.2763L19.6905 24.9275L18.1965 23.4361L22.465 19.175L26.7335 23.4361L25.2396 24.9275L23.5321 23.2763V28.7625H29.4014C30.1484 28.7625 30.7797 28.505 31.2955 27.9901C31.8113 27.4753 32.0692 26.845 32.0692 26.0993C32.0692 25.3536 31.8113 24.7233 31.2955 24.2084C30.7797 23.6935 30.1484 23.4361 29.4014 23.4361H27.8007V21.3056C27.8007 19.8319 27.2804 18.5758 26.24 17.5371C25.1995 16.4985 23.9412 15.9792 22.465 15.9792C20.9888 15.9792 19.7305 16.4985 18.69 17.5371C17.6496 18.5758 17.1294 19.8319 17.1294 21.3056H16.5958C15.5642 21.3056 14.6838 21.6695 13.9546 22.3975C13.2254 23.1254 12.8608 24.0042 12.8608 25.034C12.8608 26.0638 13.2254 26.9426 13.9546 27.6706C14.6838 28.3985 15.5642 28.7625 16.5958 28.7625H19.2636V30.893H16.5958Z" fill="#008BE2"/>
</g>
</svg>
