<svg width="24" height="24" viewBox="0 0 24 24" fill="none" xmlns="http://www.w3.org/2000/svg">
<g id="Group 2610374">
<rect id="Rectangle 788" width="24" height="24" rx="3.39394" fill="#008BE2"/>
<g id="Vector">
<path d="M12 9.22222C10.4922 9.22222 9.26562 10.4683 9.26562 12C9.26562 13.5317 10.4922 14.7778 12 14.7778C13.5078 14.7778 14.7344 13.5317 14.7344 12C14.7344 10.4683 13.5078 9.22222 12 9.22222ZM12 13.6667C11.0954 13.6667 10.3594 12.919 10.3594 12C10.3594 11.081 11.0954 10.3333 12 10.3333C12.9046 10.3333 13.6406 11.081 13.6406 12C13.6406 12.919 12.9046 13.6667 12 13.6667Z" fill="white"/>
<path d="M18.8198 11.7062C18.2835 10.8319 15.5544 7 12 7C8.44641 7 5.71657 10.8318 5.18022 11.7062L5 12L5.18022 12.2938C5.71652 13.1681 8.44561 17 12 17C15.5536 17 18.2834 13.1682 18.8198 12.2938L19 12L18.8198 11.7062ZM12 15.8889C9.24277 15.8889 6.97252 12.9513 6.30955 11.9996C6.97129 11.0471 9.23571 8.11111 12 8.11111C14.757 8.11111 17.0272 11.0483 17.6905 12.0004C17.0287 12.953 14.7643 15.8889 12 15.8889Z" fill="white"/>
</g>
</g>
</svg>
