<svg width="21" height="20" viewBox="0 0 21 20" fill="none" xmlns="http://www.w3.org/2000/svg">
<path id="Vector" d="M20.8023 11.1984L20.8022 11.1982C20.7126 11.0308 20.5381 10.9264 20.3482 10.9264C20.3482 10.9264 20.3482 10.9264 20.3482 10.9264H20.0656V10.4099V10.4098C20.0642 8.87049 19.1841 7.47406 17.8115 6.80299C18.9487 5.8919 19.2081 4.2446 18.3715 3.02258L18.2769 3.08737L18.3715 3.02258C17.4937 1.74059 15.7421 1.41228 14.459 2.28917L14.5291 2.39176L14.459 2.28917C13.1759 3.16615 12.8472 4.9164 13.725 6.19851C13.8812 6.42669 14.07 6.63025 14.2851 6.80293C12.9124 7.47401 12.0322 8.87043 12.0309 10.4098V10.4099V10.9258H11.4619C11.1778 10.9258 10.9474 11.1559 10.9474 11.44C10.9474 11.7241 11.1778 11.9543 11.4619 11.9543H19.3853L14.8063 18.8H12.3488V17.9718V17.9717C12.3465 15.9313 11.1248 14.0988 9.26142 13.3033C10.7686 12.2692 11.2387 10.2306 10.2971 8.63213C9.3131 6.96179 7.16028 6.40473 5.4886 7.38778C3.81685 8.37086 3.25916 10.5219 4.24317 12.1923C4.50367 12.6346 4.85753 13.0134 5.27894 13.3032C3.41519 14.0985 2.19301 15.931 2.19056 17.9717V17.9718V18.8H1.38959C1.10549 18.8 0.875 19.0301 0.875 19.3143C0.875 19.5984 1.10549 19.8285 1.38959 19.8285H15.0814H15.0815C15.2533 19.8284 15.4138 19.7427 15.5093 19.6L15.4117 19.5347L15.5093 19.6L20.7761 11.7257L20.7761 11.7256C20.8813 11.5681 20.8913 11.3655 20.8023 11.1984ZM14.2627 4.6201V4.61996C14.2582 3.63481 15.0539 2.8324 16.0401 2.82794C17.0264 2.82347 17.8294 3.61865 17.8338 4.60375C17.8383 5.58876 17.0428 6.39114 16.0567 6.39578H16.0567H16.0567H16.0566H16.0566H16.0566H16.0566H16.0566H16.0565H16.0565H16.0565H16.0565H16.0565H16.0565H16.0564H16.0564H16.0564H16.0564H16.0564H16.0564H16.0563H16.0563H16.0563H16.0563H16.0563H16.0563H16.0562H16.0562H16.0562H16.0562H16.0562H16.0562H16.0561H16.0561H16.0561H16.0561H16.0561H16.0561H16.056H16.056H16.056H16.056H16.056H16.056H16.0559H16.0559H16.0559H16.0559H16.0559H16.0559H16.0558H16.0558H16.0558H16.0558H16.0558H16.0558H16.0557H16.0557H16.0557H16.0557H16.0557H16.0557H16.0556H16.0556H16.0556H16.0556H16.0556H16.0556H16.0555H16.0555H16.0555H16.0555H16.0555H16.0555H16.0554H16.0554H16.0554H16.0554H16.0554H16.0554H16.0553H16.0553H16.0553H16.0553H16.0553H16.0553H16.0552H16.0552H16.0552H16.0552H16.0552H16.0551H16.0551H16.0551H16.0551H16.0551H16.0551H16.055H16.055H16.055H16.055H16.055H16.055H16.0549H16.0549H16.0549H16.0549H16.0549H16.0549H16.0548H16.0548H16.0548H16.0548H16.0548H16.0548H16.0547H16.0547H16.0547H16.0547H16.0547H16.0547H16.0546H16.0546H16.0546H16.0546H16.0546H16.0546H16.0545H16.0545H16.0545H16.0545H16.0545H16.0545H16.0544H16.0544H16.0544H16.0544H16.0544H16.0544H16.0543H16.0543H16.0543H16.0543H16.0543H16.0543H16.0542H16.0542H16.0542H16.0542H16.0542H16.0542H16.0541H16.0541H16.0541H16.0541H16.0541H16.054H16.054H16.054H16.054H16.054H16.054H16.0539H16.0539H16.0539H16.0539H16.0539H16.0539H16.0538H16.0538H16.0538H16.0538H16.0538H16.0538H16.0537H16.0537H16.0537H16.0537H16.0537H16.0537H16.0536H16.0536H16.0536H16.0536H16.0536H16.0536H16.0535H16.0535H16.0535H16.0535H16.0535H16.0535H16.0534H16.0534H16.0534H16.0534H16.0534H16.0534H16.0533H16.0533H16.0533H16.0533H16.0533H16.0533H16.0532H16.0532H16.0532H16.0532H16.0532H16.0532H16.0531H16.0531H16.0531H16.0531H16.0531H16.0531H16.053H16.053H16.053H16.053H16.053H16.0529H16.0529H16.0529H16.0529H16.0529H16.0529H16.0528H16.0528H16.0528H16.0528H16.0528H16.0528H16.0527H16.0527H16.0527H16.0527H16.0527H16.0527H16.0526H16.0526H16.0526H16.0526H16.0526H16.0526H16.0525H16.0525H16.0525H16.0525H16.0525H16.0525H16.0524H16.0524H16.0524H16.0524H16.0524H16.0524H16.0523H16.0523H16.0523H16.0523H16.0523H16.0523H16.0522H16.0522H16.0522H16.0522H16.0522H16.0522H16.0521H16.0521H16.0521H16.0521H16.0521H16.052H16.052H16.052H16.052H16.052H16.052H16.0519H16.0519H16.0519H16.0519H16.0519H16.0519H16.0518H16.0518H16.0518H16.0518H16.0518H16.0518H16.0517H16.0517H16.0517H16.0517H16.0517H16.0517H16.0516H16.0516H16.0516H16.0516H16.0516H16.0516H16.0515H16.0515H16.0515H16.0515H16.0515H16.0515H16.0514H16.0514H16.0514H16.0514H16.0514H16.0514H16.0513H16.0513H16.0513H16.0513H16.0513H16.0513H16.0512H16.0512H16.0512H16.0512H16.0512H16.0512H16.0511H16.0511H16.0511H16.0511H16.0511H16.0511H16.051H16.051H16.051H16.051H16.051H16.0509H16.0509H16.0509H16.0509H16.0509H16.0509H16.0508H16.0508H16.0508H16.0508H16.0508H16.0508H16.0507H16.0507H16.0507H16.0507H16.0507H16.0507H16.0506H16.0506H16.0506H16.0506H16.0506H16.0506H16.0505H16.0505H16.0505H16.0505H16.0505H16.0505H16.0504H16.0504H16.0504H16.0504H16.0504H16.0504H16.0503H16.0503H16.0503H16.0503H16.0503H16.0503H16.0502H16.0502H16.0502H16.0502H16.0502H16.0502H16.0501H16.0501H16.0501H16.0501H16.0501H16.0501H16.05H16.05H16.05H16.05H16.05H16.05H16.0499H16.0499H16.0499H16.0499H16.0499H16.0498H16.0498H16.0498H16.0498H16.0498H16.0498H16.0497H16.0497H16.0497H16.0497H16.0497H16.0497H16.0496H16.0496H16.0496H16.0496H16.0496H16.0496H16.0495H16.0495H16.0495H16.0495H16.0495H16.0495H16.0494H16.0494H16.0494H16.0494H16.0494H16.0494H16.0493H16.0493H16.0493H16.0493H16.0493H16.0493H16.0492H16.0492H16.0492H16.0492H16.0492H16.0492H16.0491H16.0491H16.0491H16.0491H16.0491H16.0491H16.049H16.049H16.049H16.049H16.049H16.049H16.0489H16.0489H16.0489H16.0489H16.0489H16.0489H16.0488H16.0488H16.0488H16.0488H16.0488H16.0488H16.0487H16.0487H16.0487H16.0487H16.0487H16.0487H16.0486H16.0486H16.0486H16.0486H16.0486H16.0486H16.0485H16.0485H16.0485H16.0485H16.0485H16.0485H16.0484H16.0484H16.0484H16.0484H16.0484H16.0483H16.0483H16.0483H16.0483H16.0483H16.0481C15.0647 6.39698 14.266 5.60251 14.2627 4.6201ZM13.0601 10.4099L13.06 10.4089C13.046 8.76016 14.3725 7.41208 16.0229 7.39809C17.6733 7.38411 19.0224 8.70954 19.0364 10.3583C19.0366 10.3751 19.0366 10.392 19.0364 10.4089V10.4099L19.0364 10.9258H13.0601L13.0601 10.4099ZM4.78704 10.4275L4.78704 10.4274C4.78062 9.05735 5.88699 7.94133 7.25847 7.93487C8.62993 7.92841 9.74678 9.03402 9.75324 10.404C9.75966 11.774 8.65329 12.8901 7.28182 12.8965L7.27507 12.8965L7.26907 12.8966H7.26896C5.90181 12.8977 4.79173 11.7932 4.78704 10.4275ZM11.3204 17.9718L11.3204 18.8H3.21974L3.21974 17.9718L3.21974 17.9709C3.20346 15.7361 5.00352 13.911 7.24057 13.8947C9.47762 13.8784 11.3041 15.6771 11.3204 17.9119C11.3206 17.9316 11.3206 17.9513 11.3204 17.971V17.9718ZM10.9299 5.60884L10.9301 5.60896C11.1831 5.73858 11.4933 5.63877 11.6231 5.38599C11.6603 5.31352 11.6798 5.23321 11.6798 5.1517V5.1516V2.64006C11.6798 1.71097 10.9261 0.958008 9.99644 0.958008H6.60129C5.67165 0.958008 4.91788 1.71097 4.91788 2.64006V3.16747V3.16756C4.91855 4.09629 5.67192 4.84884 6.6012 4.84951H6.60132L9.45411 4.84885L10.9299 5.60884ZM10.6514 2.64006V4.30797L9.81552 3.87736L9.81525 3.87723C9.74259 3.84002 9.66213 3.82047 9.58036 3.82035H9.58016H6.60134C6.24014 3.82035 5.94743 3.52798 5.94711 3.16735V2.64006C5.94711 2.27924 6.2399 1.98651 6.60134 1.98651H9.99715C10.3586 1.98651 10.6514 2.2792 10.6514 2.64006Z" fill="white" stroke="white" stroke-width="0.25"/>
</svg>
