<svg width="21" height="20" viewBox="0 0 21 20" fill="none" xmlns="http://www.w3.org/2000/svg">
<g id="meeting 1" clip-path="url(#clip0_642_15670)">
<path id="Vector" d="M12.535 14.1667C12.535 13.2526 11.7917 12.5093 10.8776 12.5093C9.96371 12.5093 9.22017 13.2526 9.22017 14.1667C9.22017 15.0808 9.96371 15.8241 10.8776 15.8241C11.7917 15.8241 12.535 15.0808 12.535 14.1667ZM10.0489 14.1667C10.0489 13.7099 10.4206 13.338 10.8776 13.338C11.3345 13.338 11.7063 13.7099 11.7063 14.1667C11.7063 14.6235 11.3345 14.9954 10.8776 14.9954C10.4206 14.9954 10.0489 14.6235 10.0489 14.1667ZM7.56274 14.1667C7.56274 13.2526 6.8192 12.5093 5.90531 12.5093C4.99141 12.5093 4.24787 13.2526 4.24787 14.1667C4.24787 15.0808 4.99141 15.8241 5.90531 15.8241C6.8192 15.8241 7.56274 15.0808 7.56274 14.1667ZM5.07659 14.1667C5.07659 13.7099 5.44826 13.338 5.90531 13.338C6.36235 13.338 6.73402 13.7099 6.73402 14.1667C6.73402 14.6235 6.36235 14.9954 5.90531 14.9954C5.44826 14.9954 5.07659 14.6235 5.07659 14.1667ZM16.6786 16.2385H15.0212C14.3411 16.2385 13.7418 16.5724 13.3638 17.08C12.9858 16.5724 12.3864 16.2385 11.7063 16.2385H10.0489C9.36881 16.2385 8.76945 16.5724 8.39146 17.08C8.01347 16.5724 7.41411 16.2385 6.73402 16.2385H5.07659C3.93427 16.2385 3.00479 17.168 3.00479 18.3103V18.7246C3.00479 18.9537 3.19033 19.139 3.41915 19.139H8.39146H13.3638H18.3361C18.5651 19.139 18.7504 18.9537 18.7504 18.7246V18.3103C18.7504 17.168 17.8209 16.2385 16.6786 16.2385ZM5.07659 17.0672H6.73402C7.41949 17.0672 7.9771 17.6248 7.9771 18.3103H3.83351C3.83351 17.6248 4.39112 17.0672 5.07659 17.0672ZM10.0489 17.0672H11.7063C12.3918 17.0672 12.9494 17.6248 12.9494 18.3103H8.80582C8.80582 17.6248 9.36342 17.0672 10.0489 17.0672ZM13.7781 18.3103C13.7781 17.6248 14.3357 17.0672 15.0212 17.0672H16.6786C17.3641 17.0672 17.9217 17.6248 17.9217 18.3103H13.7781ZM17.5073 14.1667C17.5073 13.2526 16.764 12.5093 15.8499 12.5093C14.9358 12.5093 14.1925 13.2526 14.1925 14.1667C14.1925 15.0808 14.9358 15.8241 15.8499 15.8241C16.764 15.8241 17.5073 15.0808 17.5073 14.1667ZM15.0212 14.1667C15.0212 13.7099 15.3931 13.338 15.8499 13.338C16.3068 13.338 16.6786 13.7099 16.6786 14.1667C16.6786 14.6235 16.3068 14.9954 15.8499 14.9954C15.3931 14.9954 15.0212 14.6235 15.0212 14.1667ZM19.5791 7.12261H15.0212C15.0212 5.6526 13.9209 4.43744 12.5014 4.25004C12.7777 3.89795 12.9494 3.46022 12.9494 2.97902C12.9494 1.8367 12.0199 0.907227 10.8776 0.907227C9.73529 0.907227 8.80582 1.8367 8.80582 2.97902C8.80582 3.46022 8.97751 3.89795 9.25381 4.25004C7.83413 4.43744 6.73402 5.65257 6.73402 7.12261H2.17608C1.94725 7.12261 1.76172 7.30814 1.76172 7.53696V9.1944C1.76172 9.42323 1.94725 9.60876 2.17608 9.60876H2.59044V11.2662C2.59044 11.4952 2.77597 11.6806 3.00479 11.6806H18.7504C18.9795 11.6806 19.1648 11.4952 19.1648 11.2662V9.60876H19.5791C19.8082 9.60876 19.9935 9.42323 19.9935 9.1944V7.53696C19.9935 7.30814 19.8082 7.12261 19.5791 7.12261ZM10.8776 1.73594C11.5631 1.73594 12.1207 2.29355 12.1207 2.97902C12.1207 3.66449 11.5631 4.2221 10.8776 4.2221C10.1921 4.2221 9.63453 3.66449 9.63453 2.97902C9.63453 2.29355 10.1921 1.73594 10.8776 1.73594ZM9.63453 5.05081H12.1207C13.263 5.05081 14.1925 5.98029 14.1925 7.12261H7.56274C7.56274 5.98029 8.49221 5.05081 9.63453 5.05081ZM18.3361 10.8518H3.41915V9.60876H18.3361V10.8518ZM19.1648 8.78004H18.7504H3.00479H2.59044V7.95132H7.14838H14.6068H19.1648V8.78004Z" fill="white"/>
</g>
<defs>
<clipPath id="clip0_642_15670">
<rect width="19.8892" height="19.8892" fill="white" transform="translate(0.932617 0.0786133)"/>
</clipPath>
</defs>
</svg>
