<svg width="17" height="20" viewBox="0 0 17 20" fill="none" xmlns="http://www.w3.org/2000/svg">
<g id="Group 177110">
<path id="Vector" d="M14.13 14.8429V14.8418C14.1368 14.6306 14.1334 14.4226 14.1153 14.219C14.0895 13.8799 14.0162 13.5681 13.8978 13.2866C13.8939 13.2775 13.8901 13.2685 13.8861 13.2595C13.8854 13.2571 13.8842 13.2548 13.8833 13.2525C13.7553 12.9559 13.5697 12.677 13.3068 12.4209C13.096 12.2158 12.8598 12.0706 12.6098 11.955C12.4735 11.889 12.3287 11.8308 12.1758 11.7813C12.1741 11.7805 12.1723 11.78 12.1706 11.7796C12.0123 11.7239 11.8517 11.6723 11.6915 11.6186C11.3831 11.5151 11.0771 11.3795 10.7998 11.2076C10.2353 10.8576 9.69057 10.4739 9.13872 10.1026C8.89125 9.93613 8.87235 9.71266 9.0929 9.51751C9.64932 9.02485 9.97451 8.40093 10.1214 7.66879C10.1378 7.58655 10.2029 7.48458 10.2732 7.44844C10.58 7.2908 10.7146 7.04233 10.7135 6.69969C10.7114 6.08886 10.7076 5.47802 10.7185 4.86738C10.7206 4.74686 10.7943 4.62946 10.8197 4.50737C10.8309 4.45365 10.842 4.39993 10.8529 4.34601C10.8529 4.34582 10.8529 4.34562 10.8531 4.34543C10.8838 4.25733 10.9117 4.16903 10.9201 4.07879C10.9436 3.82738 10.9367 3.57148 10.9233 3.31851C10.923 3.31168 10.9228 3.30523 10.9228 3.29878C10.9316 3.2394 10.9493 3.18744 10.9818 3.14739C11.0137 3.10832 11.0593 3.08098 11.1137 3.06105C11.1273 3.05812 11.1414 3.05558 11.1565 3.05343C11.2865 3.03409 11.4166 3.01319 11.5464 2.99131C11.5913 2.98604 11.635 2.97979 11.6761 2.97159C11.8452 2.93779 12.0158 2.91201 12.196 2.88095C12.2031 2.95361 12.2126 3.0085 12.2128 3.06359C12.2144 3.4199 12.2136 3.776 12.2136 4.12625C11.7492 4.27764 11.6999 4.39837 11.6566 4.87481C11.5859 5.64758 11.4649 6.41547 11.3648 7.18532C11.3492 7.30604 11.3234 7.42637 11.3182 7.54748C11.3028 7.9114 11.5174 8.16476 11.8726 8.17726C12.2671 8.19113 12.6627 8.19152 13.057 8.17726C13.4294 8.16359 13.6665 7.87585 13.6117 7.49435C13.5199 6.85421 13.4005 6.21837 13.3062 5.57862C13.2722 5.34851 13.2695 5.11254 13.2665 4.87891C13.2604 4.39524 13.1765 4.27198 12.7154 4.12899C12.7154 3.70431 12.7129 3.273 12.7183 2.84207C12.719 2.78328 12.7498 2.71842 12.783 2.66763C12.7883 2.65962 12.7935 2.65142 12.7983 2.64341C12.8464 2.5852 12.8831 2.5137 12.9075 2.42834C12.9254 2.36602 12.9338 2.30605 12.9333 2.24862C12.9398 2.00738 12.782 1.81418 12.4685 1.70987C12.4655 1.7087 12.4622 1.70772 12.459 1.70655C12.4523 1.7042 12.4456 1.70186 12.4387 1.69971C12.2585 1.64072 12.078 1.58211 11.8974 1.52371C11.8901 1.52136 11.8831 1.51902 11.8758 1.51668C11.7255 1.46803 11.5752 1.41959 11.425 1.37115C10.9029 1.20335 10.3807 1.03633 9.85918 0.866771C9.68866 0.811294 9.51833 0.755621 9.348 0.699558C9.34571 0.698581 9.34342 0.6978 9.34113 0.697214C9.22389 0.658731 9.10664 0.619858 8.98959 0.58079C8.63824 0.46378 8.28766 0.344621 7.93803 0.222532C8.00009 0.244215 8.06234 0.265312 8.12459 0.286799C8.06291 0.265507 8.00105 0.24402 7.93937 0.222532C7.72894 0.148888 7.52787 0.103568 7.3289 0.0863782C7.31573 0.0852062 7.30236 0.0842294 7.28918 0.0832527C7.19199 0.0764158 7.09537 0.0764158 6.99837 0.0832527C6.98519 0.0842294 6.97183 0.0852062 6.95865 0.0863782C6.75949 0.103568 6.55842 0.148888 6.34818 0.222532C6.28613 0.244215 6.22407 0.265703 6.16201 0.28719C6.22445 0.265507 6.28708 0.24441 6.34952 0.222532C5.99989 0.344621 5.64931 0.46378 5.29815 0.58079C5.1811 0.619858 5.06386 0.658731 4.94661 0.697214C4.27313 0.919123 3.59774 1.13478 2.92274 1.35181C2.75241 1.4067 2.58208 1.46159 2.41176 1.51668C2.4045 1.51902 2.39744 1.52136 2.39018 1.52371C2.20973 1.58211 2.02928 1.64072 1.84884 1.69971C1.84196 1.70186 1.83528 1.7042 1.8286 1.70655C1.82707 1.70713 1.82554 1.70752 1.82401 1.70811C1.82229 1.7087 1.82058 1.70928 1.81905 1.70987C1.50551 1.81418 1.34778 2.00738 1.35428 2.24862C1.3537 2.30605 1.36211 2.36602 1.38006 2.42834C1.40469 2.5137 1.44116 2.5852 1.48928 2.64341C1.49405 2.65142 1.49921 2.65962 1.50455 2.66763L1.51372 2.67095C1.59354 2.75436 1.70009 2.80672 1.83031 2.82977C1.90956 2.84383 1.9888 2.85809 2.06786 2.87235L2.09153 2.88095C2.27179 2.91201 2.44231 2.93779 2.61149 2.97159C2.65254 2.97979 2.69627 2.98604 2.74134 2.99131C2.87118 3.01319 3.00103 3.03409 3.13106 3.05343C3.14615 3.05558 3.16028 3.05812 3.17384 3.06105C3.22826 3.08098 3.27389 3.10832 3.30559 3.14739C3.33805 3.18744 3.35581 3.2394 3.36479 3.29898C3.36479 3.30523 3.3646 3.31187 3.36421 3.31851C3.35085 3.57148 3.34397 3.82738 3.36746 4.07879C3.37586 4.16903 3.40355 4.25733 3.43448 4.34543C3.43467 4.34562 3.43467 4.34582 3.43467 4.34601C3.44556 4.39993 3.45663 4.45365 3.4679 4.50737C3.4933 4.62946 3.567 4.74686 3.5691 4.86738C3.57999 5.47802 3.57617 6.08886 3.57407 6.69969C3.57292 7.04233 3.70754 7.2908 4.0144 7.44844C4.08467 7.48458 4.14978 7.58655 4.1662 7.66879C4.31304 8.40093 4.63823 9.02485 5.19466 9.51751C5.4152 9.71266 5.3963 9.93613 5.14883 10.1026C4.59698 10.4739 4.05221 10.8576 3.48776 11.2076C3.2105 11.3795 2.90441 11.5151 2.59602 11.6186C2.43582 11.6723 2.27523 11.7239 2.11693 11.7796C2.11521 11.7802 2.11349 11.7807 2.11177 11.7813C1.95882 11.8308 1.81408 11.8888 1.67775 11.955C1.42779 12.0706 1.1914 12.2158 0.980779 12.4209C0.717842 12.677 0.532238 12.9559 0.404302 13.2525L0.401438 13.2595C0.397428 13.2685 0.393609 13.2775 0.38979 13.2866C0.272738 13.5652 0.199604 13.8736 0.173253 14.2087C0.154158 14.4155 0.150721 14.6271 0.157595 14.8418V14.8429C0.15263 15.3872 0.153585 15.9314 0.158359 16.4756C0.152058 16.5996 0.15454 16.7243 0.157595 16.8485C0.166952 17.2214 0.281521 17.5199 0.484692 17.726C0.491566 17.733 0.49844 17.7399 0.505315 17.7465C0.51238 17.7533 0.519445 17.76 0.526701 17.7664C0.527465 17.7674 0.528419 17.768 0.529183 17.7688C0.541977 17.7801 0.555152 17.7912 0.568519 17.802C0.575584 17.8078 0.58284 17.8135 0.590096 17.819C0.597352 17.8246 0.604799 17.8301 0.612246 17.8354C0.617784 17.8395 0.623512 17.8434 0.629241 17.8473C0.632296 17.8494 0.635542 17.8516 0.638597 17.8537C0.645854 17.8586 0.653301 17.8633 0.660748 17.868C0.668577 17.8731 0.676406 17.878 0.684425 17.8827C0.692445 17.8873 0.700465 17.892 0.708485 17.8965C0.716696 17.9012 0.724907 17.9057 0.733308 17.91C0.749921 17.9188 0.766916 17.927 0.784101 17.935C0.803578 17.944 0.823437 17.9524 0.843677 17.9604C0.985553 18.0163 1.14729 18.0467 1.32602 18.0497C1.33747 18.0499 1.34893 18.0501 1.36039 18.0501C5.21757 18.0514 9.07495 18.0514 12.9321 18.0501C12.9421 18.0501 12.9518 18.0501 12.9615 18.0497C13.1277 18.0469 13.2789 18.0204 13.4131 17.9719C13.4443 17.9608 13.4742 17.9485 13.5035 17.935C13.5206 17.927 13.5376 17.9188 13.5542 17.91C13.5626 17.9057 13.5709 17.9012 13.5791 17.8965C13.5871 17.892 13.5951 17.8873 13.6031 17.8827C13.6111 17.878 13.6192 17.8731 13.6268 17.868C13.6318 17.8651 13.6365 17.8619 13.6413 17.8586C13.6451 17.8563 13.649 17.8537 13.6526 17.8512C13.6602 17.8459 13.6679 17.8407 13.6753 17.8354C13.6828 17.8299 13.6902 17.8244 13.6975 17.819C13.7047 17.8135 13.712 17.8078 13.719 17.802C13.7324 17.7912 13.7456 17.7801 13.7584 17.7688C13.7591 17.7678 13.7599 17.7672 13.7609 17.7664C13.7681 17.76 13.7752 17.7533 13.7822 17.7465C13.7891 17.7399 13.7962 17.733 13.8029 17.726C13.8097 17.7192 13.8164 17.7121 13.8231 17.7049C14.0137 17.4998 14.121 17.2089 14.13 16.8485C14.133 16.7243 14.1355 16.5996 14.1292 16.4756C14.134 15.9314 14.1349 15.3872 14.13 14.8429ZM7.14387 13.6668C7.02682 13.4697 6.91397 13.2796 6.80341 13.0931C6.80284 13.0923 6.80245 13.0915 6.80207 13.0907C6.59546 12.7348 6.39974 12.3972 6.19905 12.0517H8.0885C7.88781 12.3972 7.69209 12.7348 7.48548 13.0907C7.4851 13.0915 7.48453 13.0923 7.48414 13.0931C7.37358 13.2796 7.26073 13.4697 7.14387 13.6668ZM4.67604 7.42793C4.64892 7.21266 4.57388 7.07182 4.40584 6.99134C4.40279 6.98978 4.39973 6.98841 4.39649 6.98704C4.36269 6.97083 4.32488 6.95735 4.28249 6.9468C4.238 6.93117 4.1874 6.88996 4.15265 6.84425C4.15226 6.84366 4.15169 6.84288 4.15131 6.84229C4.13336 6.81319 4.11885 6.78174 4.11121 6.75322C4.08868 6.55377 4.10166 6.35023 4.10281 6.12168C4.1641 6.11425 4.22158 6.10703 4.27562 6.0998C4.54696 6.11093 4.80206 6.07362 4.96246 5.88199C5.04973 5.79702 5.10281 5.67473 5.14329 5.48955C5.2107 5.25631 5.24354 5.00217 5.30484 4.75604H8.98272C9.04401 5.00217 9.07686 5.25631 9.14426 5.48955C9.18436 5.67337 9.23725 5.79545 9.32356 5.88043C9.32394 5.88062 9.32414 5.88082 9.32433 5.88101C9.48472 6.07343 9.74022 6.11093 10.0119 6.0998C10.066 6.10703 10.1235 6.11425 10.1847 6.12168C10.1859 6.35023 10.1989 6.55377 10.1763 6.75322C10.1687 6.78174 10.1542 6.81319 10.1362 6.84229C10.1359 6.84288 10.1353 6.84347 10.1349 6.84425C10.1002 6.88996 10.0496 6.93117 10.0051 6.9468C9.96267 6.95735 9.92486 6.97083 9.89107 6.98704C9.88782 6.98841 9.88476 6.98978 9.88171 6.99134C9.71367 7.07182 9.63863 7.21266 9.61151 7.42793C9.56244 7.81471 9.44672 8.16515 9.2764 8.46891C9.2701 8.48044 9.2636 8.49177 9.25673 8.5031C9.15037 8.68418 9.02396 8.84963 8.88113 8.99634C8.87178 9.0061 8.86204 9.01587 8.8523 9.02544C8.8439 9.03384 8.8353 9.04224 8.82671 9.05025C8.3902 9.46613 7.8057 9.70797 7.14387 9.71676C6.48319 9.70797 5.89926 9.46711 5.46294 9.0524C5.46122 9.05103 5.4597 9.04947 5.45817 9.04771C5.45148 9.04146 5.4448 9.03501 5.43831 9.02837C5.2802 8.87171 5.14119 8.69238 5.02586 8.4947C5.02032 8.48551 5.01516 8.47633 5.00982 8.46696C4.84025 8.16359 4.72492 7.81393 4.67604 7.42793ZM3.90059 3.11731C3.92064 3.11419 3.9405 3.11086 3.95998 3.10774C3.97315 3.10598 3.98633 3.10403 3.99931 3.10227H3.99969C4.01421 3.10149 4.02891 3.10012 4.0438 3.09856C4.21337 3.08 4.80111 2.99327 5.37491 2.91494C5.37587 2.91474 5.37663 2.91455 5.37759 2.91455C5.42762 2.90947 5.47764 2.90458 5.52786 2.90029C6.06539 2.85379 6.60444 2.81844 7.14368 2.79656C7.68311 2.81844 8.22217 2.85379 8.75969 2.90029C8.80991 2.90458 8.85994 2.90947 8.90997 2.91455C8.91092 2.91474 8.91168 2.91474 8.91264 2.91494C9.48644 2.99327 10.0742 3.08 10.2438 3.09856C10.2586 3.10012 10.2733 3.10149 10.2879 3.10227H10.2882C10.3012 3.10403 10.3144 3.10598 10.3276 3.10774C10.3471 3.11086 10.3669 3.11419 10.387 3.11731V4.16337H3.90059V3.11731ZM9.62335 5.40008C9.62335 5.40008 9.62316 5.39989 9.62316 5.39969C9.57791 5.30026 9.56626 5.15336 9.58039 4.94708C9.5886 4.88809 9.60006 4.82421 9.61457 4.75526H10.1693V5.55421C10.1032 5.56417 10.0434 5.57022 9.98979 5.57198C9.80609 5.56085 9.68732 5.50772 9.62335 5.40008ZM4.11827 5.55421V4.75526H4.67298C4.6875 4.82421 4.69895 4.88809 4.70716 4.94708C4.72129 5.15336 4.70965 5.30026 4.66439 5.39969L4.6642 5.40008C4.60023 5.50772 4.48146 5.56085 4.29777 5.57198C4.24411 5.57022 4.18434 5.56417 4.11827 5.55421ZM10.5976 11.7137C9.75034 12.2296 8.93517 12.7262 8.12058 13.2224C8.11294 13.2163 8.10549 13.2103 8.09786 13.2042C8.35812 12.7321 8.56664 12.2474 8.71367 11.7317C8.81907 11.3738 8.89278 11.0004 8.93823 10.6095C9.35411 10.8859 9.7553 11.1523 10.1721 11.4295C10.1769 11.4324 10.1815 11.4356 10.1861 11.4387C10.3218 11.5295 10.4588 11.621 10.5976 11.7137ZM6.18645 11.4655C6.12897 11.4645 6.03636 11.3934 6.00906 11.3338C5.93879 10.8964 5.88666 10.4555 5.82059 9.95058C6.23209 10.1285 6.62964 10.2256 7.02606 10.2413C7.05241 10.2422 7.07895 10.243 7.1053 10.2434C7.13108 10.2436 7.15666 10.2436 7.18225 10.2434C7.2086 10.243 7.23515 10.2422 7.2615 10.2413C7.65791 10.2256 8.05547 10.1285 8.46696 9.95058C8.40089 10.4555 8.34876 10.8964 8.27849 11.3338C8.25119 11.3934 8.15858 11.4645 8.1011 11.4655C8.01384 11.467 7.92657 11.4684 7.8395 11.4696C7.92581 11.4686 8.01231 11.468 8.09862 11.4666C7.92276 11.4692 7.74708 11.4711 7.57122 11.4725C7.51011 11.4729 7.4492 11.4733 7.3881 11.4735C7.22522 11.4741 7.06215 11.4741 6.89927 11.4735C6.83835 11.4733 6.77725 11.4729 6.71634 11.4725C6.54047 11.4711 6.3648 11.4692 6.18893 11.4666C6.27543 11.4678 6.36174 11.4686 6.44805 11.4696C6.36079 11.4684 6.27352 11.467 6.18645 11.4655ZM5.34933 10.6095C5.39458 11.0004 5.46848 11.3738 5.57388 11.7317C5.72091 12.2474 5.92943 12.7321 6.1897 13.2042C6.18206 13.2103 6.17461 13.2163 6.16697 13.2224C5.35238 12.7262 4.53703 12.2296 3.68997 11.7137C3.82899 11.621 3.96571 11.5295 4.10147 11.4387C4.10624 11.4356 4.11083 11.4324 4.11541 11.4295C4.53225 11.1523 4.93344 10.8859 5.34933 10.6095ZM13.1114 7.63851H11.8143C11.8947 7.17184 11.973 6.73349 12.0452 6.29416C12.1496 5.65832 12.1477 5.65793 12.7975 5.72122C12.9027 6.36371 13.0056 6.99271 13.1114 7.63851ZM12.7523 4.70583V5.1645H12.1802V4.70583H12.7523ZM7.31038 0.591338C7.37416 0.611654 7.43793 0.632165 7.50171 0.652676C9.078 1.16193 10.6522 1.67764 12.2266 2.19256C12.2334 2.1949 12.2405 2.19725 12.2474 2.19959C12.2497 2.20037 12.252 2.20115 12.2541 2.20194C12.2554 2.20233 12.2569 2.20291 12.2585 2.2035C12.2913 2.21561 12.323 2.2328 12.3545 2.26073C12.297 2.27988 12.2401 2.29765 12.1834 2.31426C11.9222 2.36016 11.664 2.42619 11.4049 2.48147C11.0721 2.52894 10.7339 2.59067 10.4015 2.57367C10.3669 2.57191 10.3324 2.56977 10.2978 2.56742C10.2543 2.56195 10.2105 2.55492 10.1666 2.54632C10.1307 2.53949 10.0935 2.53988 10.0568 2.53636C10.048 2.53558 10.0391 2.5348 10.0305 2.53441C10.0742 2.54164 10.1166 2.54886 10.1574 2.55629C10.0881 2.55023 10.0188 2.5432 9.9495 2.53539C9.97527 2.53285 10.0024 2.53265 10.0305 2.53441C9.79005 2.49475 9.50687 2.45901 9.19849 2.42834C9.1265 2.41681 9.05451 2.40529 8.98253 2.39396C8.54277 2.32403 7.86986 2.30078 7.14387 2.3123C6.41769 2.30078 5.74478 2.32403 5.30503 2.39396C5.23323 2.40529 5.16143 2.41681 5.08944 2.42834C4.78087 2.45901 4.4975 2.49475 4.25709 2.53441C4.28516 2.53265 4.31228 2.53285 4.33806 2.53539C4.26874 2.5432 4.19943 2.55023 4.13011 2.55629C4.17098 2.54886 4.21337 2.54164 4.25709 2.53441C4.2485 2.5348 4.23953 2.53558 4.23074 2.53636C4.19408 2.53988 4.15685 2.53949 4.12095 2.54632C4.07703 2.55492 4.0333 2.56195 3.98976 2.56742C3.9552 2.56977 3.92064 2.57191 3.88608 2.57367C3.55364 2.59067 3.21546 2.52894 2.88264 2.48147C2.62333 2.42619 2.36497 2.35997 2.10375 2.31426C2.04723 2.29765 1.99052 2.27988 1.93324 2.26073C1.96455 2.2328 1.99625 2.21561 2.02909 2.2035C2.03062 2.20291 2.03215 2.20252 2.03349 2.20194C2.03578 2.20115 2.03788 2.20037 2.04017 2.19959C2.04704 2.19725 2.05411 2.1949 2.06098 2.19256C3.63536 1.67764 5.20955 1.16193 6.78584 0.652676C6.84962 0.632165 6.9134 0.611654 6.97717 0.591338C7.02835 0.575125 7.0864 0.565553 7.14387 0.564967C7.20135 0.565748 7.2594 0.575125 7.31038 0.591338ZM13.5932 17.0138C13.5588 17.2316 13.4408 17.3978 13.2573 17.4746C13.2107 17.4926 13.1599 17.5041 13.1057 17.5084C12.7087 17.5396 12.3073 17.5162 11.8855 17.516C11.8855 17.1683 11.8834 16.8374 11.8863 16.5063C11.8878 16.3264 11.8766 16.1494 11.6711 16.1312C11.6577 16.1297 11.6434 16.1289 11.6283 16.1289C11.4009 16.1289 11.3744 16.2994 11.3751 16.4832C11.3767 16.8194 11.3757 17.1554 11.3757 17.5115H2.91185C2.91185 17.1554 2.9109 16.8194 2.91224 16.4832C2.91319 16.2994 2.88665 16.1289 2.65923 16.1289C2.64414 16.1289 2.62982 16.1297 2.61645 16.1312C2.41099 16.1494 2.39973 16.3264 2.40125 16.5063C2.40412 16.8374 2.40202 17.1683 2.40202 17.516C1.98021 17.5162 1.57883 17.5396 1.18185 17.5084C1.12724 17.5041 1.07606 17.4924 1.02928 17.4744C0.850361 17.399 0.734072 17.2386 0.696455 17.0282C0.696264 17.0265 0.695882 17.0247 0.695691 17.0228C0.6913 16.9919 0.689008 16.9599 0.688817 16.9272C0.688435 16.8714 0.688244 16.8153 0.687671 16.7594C0.692445 16.6768 0.697983 16.5942 0.686144 16.5168C0.683089 16.0044 0.679843 15.4919 0.683662 14.9795C0.689772 14.8732 0.689008 14.766 0.68729 14.6585C0.689008 14.5128 0.691872 14.3669 0.69531 14.2212C0.696455 14.171 0.699701 14.1211 0.705048 14.0717C0.752594 13.7213 0.882058 13.3951 1.0774 13.1173C1.08084 13.1126 1.08408 13.1079 1.08752 13.1032C1.26281 12.8637 1.48966 12.6578 1.75203 12.5023C1.85399 12.4439 1.96188 12.3937 2.07511 12.3525C2.33118 12.2591 2.5922 12.1753 2.85629 12.1085C2.85648 12.1085 2.85667 12.1085 2.85705 12.1083C3.11445 12.0626 3.28077 12.107 3.56738 12.2656C3.56815 12.2658 3.56872 12.2662 3.56929 12.2666C3.78889 12.3978 4.0081 12.5295 4.22731 12.6612C4.22941 12.6625 4.23132 12.6637 4.23342 12.6649C4.87539 13.0554 5.5187 13.4431 6.1601 13.8342C6.16144 13.835 6.16258 13.8357 6.16392 13.8365C6.40719 13.9854 6.65046 14.1346 6.89335 14.2841C6.96648 14.3292 7.03312 14.3554 7.09804 14.3636H7.09843C7.10836 14.3647 7.11828 14.3657 7.12802 14.3661C7.13853 14.3667 7.14903 14.3667 7.15953 14.3661C7.16927 14.3657 7.1792 14.3647 7.18913 14.3636C7.18913 14.3636 7.18932 14.3636 7.18951 14.3636C7.25443 14.3554 7.32088 14.3292 7.39421 14.2841C7.63709 14.1346 7.88037 13.9854 8.12364 13.8365C8.12497 13.8357 8.12631 13.835 8.12745 13.8342C8.76885 13.4431 9.41216 13.0554 10.0541 12.6649C10.0562 12.6637 10.0581 12.6625 10.0602 12.6612C10.2795 12.5295 10.4987 12.3978 10.7183 12.2666C10.7188 12.2664 10.7196 12.266 10.7202 12.2656C11.007 12.1068 11.1735 12.0626 11.4311 12.1085H11.4315C11.6953 12.1753 11.9564 12.2591 12.2124 12.3525C12.3261 12.3939 12.4343 12.4443 12.5367 12.5029C12.7964 12.6571 13.0211 12.8606 13.1958 13.0972C13.399 13.3792 13.5338 13.7127 13.5825 14.0717C13.5879 14.1211 13.5911 14.171 13.5922 14.2212C13.5957 14.3669 13.5985 14.5128 13.6003 14.6585C13.5985 14.766 13.5978 14.8732 13.6039 14.9795C13.6077 15.4919 13.6045 16.0044 13.6014 16.5168C13.5896 16.5936 13.5951 16.6754 13.5999 16.7575C13.5993 16.8139 13.5991 16.8706 13.5987 16.9272C13.5987 16.9563 13.5966 16.9851 13.5934 17.0128C13.5932 17.0132 13.5932 17.0136 13.5932 17.0138Z" fill="white"/>
<circle id="Ellipse 79" cx="13.1352" cy="16.0546" r="2.99551" fill="#0FB8CE"/>
<path id="close" d="M11.5371 18.0516L11.1377 17.6522L12.7353 16.0546L11.1377 14.457L11.5371 14.0576L13.1347 15.6552L14.7323 14.0576L15.1317 14.457L13.5341 16.0546L15.1317 17.6522L14.7323 18.0516L13.1347 16.454L11.5371 18.0516Z" fill="white"/>
</g>
</svg>
