<svg width="27" height="17" viewBox="0 0 27 17" fill="none" xmlns="http://www.w3.org/2000/svg">
<path id="Vector" d="M25.2081 4.9169L15.2266 0.750796C14.3661 0.383198 12.9033 0.383198 12.0428 0.750796L1.8318 4.9169C1.11473 5.21098 1 5.62759 1 5.84815C1 6.06871 1.11473 6.46081 1.8318 6.7794L2.66359 7.12249V11.0435C2.14731 11.2151 1.77443 11.6562 1.77443 12.1463C1.77443 12.6365 2.14731 13.0776 2.63491 13.2491L1.34419 16.7536H4.9582L3.66749 13.2491C4.18377 13.0776 4.52796 12.6365 4.52796 12.1463C4.52796 11.6317 4.15509 11.2151 3.6388 11.0435V7.5391L5.15898 8.17627V13.2736C5.15898 13.3471 5.18766 13.4207 5.24503 13.4942C5.38844 13.6412 8.05593 16.7536 13.5056 16.7536C18.9553 16.7536 21.6228 13.6167 21.7375 13.4942C21.7949 13.4207 21.8236 13.3471 21.8236 13.2736V8.20078L25.2081 6.7794C25.9252 6.48532 26.0399 6.06871 26.0399 5.84815C26.0113 5.62759 25.9252 5.21098 25.2081 4.9169ZM20.9057 13.1511C20.4468 13.6412 17.9801 15.9938 13.5056 15.9938C9.03114 15.9938 6.56443 13.6412 6.10551 13.1511V8.51936L12.0428 10.9455C12.4731 11.1171 13.0467 11.2151 13.6204 11.2151C14.2227 11.2151 14.7963 11.1171 15.2266 10.921L20.9057 8.54387V13.1511ZM24.8066 6.09322L21.3647 7.5391C21.2213 7.5391 21.1065 7.58811 21.0492 7.68614L14.825 10.2593C14.2227 10.5289 13.0467 10.5289 12.4157 10.2593L4.75743 7.12249L13.563 6.24026C13.8211 6.21575 13.9932 6.0197 13.9646 5.82365C13.9359 5.60309 13.7064 5.45605 13.4769 5.48055L3.26593 6.50983L2.23335 6.09322C1.97521 5.99519 1.91784 5.87266 1.91784 5.87266C1.91784 5.84815 1.97521 5.75013 2.23335 5.6521L12.4444 1.46148C12.7599 1.33895 13.1901 1.26543 13.6204 1.26543C14.0793 1.26543 14.5382 1.33895 14.825 1.46148L24.8066 5.62759C25.0647 5.72562 25.1221 5.82365 25.1221 5.87266C25.1221 5.87266 25.036 5.99519 24.8066 6.09322Z" fill="#008BE2" stroke="#008BE2" stroke-width="0.25"/>
</svg>
