<svg width="17" height="20" viewBox="0 0 17 20" fill="none" xmlns="http://www.w3.org/2000/svg">
<g id="Vector">
<path d="M15.7705 8.06744H13.5388L13.249 2.79679C13.1826 1.27197 11.9219 0.0786133 10.3957 0.0786133H6.54709C5.02093 0.0786133 3.79334 1.27197 3.6938 2.79679L3.40477 8.0343H1.17235C0.807388 8.0343 0.508789 8.33264 0.508789 8.69729V9.36027C0.508789 9.72488 0.807388 10.0232 1.17235 10.0232V13.6696C1.17235 14.2331 1.60365 14.6641 2.16768 14.6641H2.49945V14.9955C2.49945 15.1944 2.63214 15.327 2.83121 15.327H3.82654V18.9734C3.82654 19.5369 4.25784 19.9678 4.82187 19.9678C5.3859 19.9678 5.8172 19.5369 5.8172 18.9734V15.327H11.1256V18.9734C11.1256 19.5369 11.5569 19.9678 12.1209 19.9678C12.685 19.9678 13.1163 19.5369 13.1163 18.9734V15.327H14.1116C14.3107 15.327 14.4434 15.1944 14.4434 14.9955V14.6641H14.7751C15.3392 14.6641 15.7704 14.2331 15.7704 13.7027V10.0232C16.1354 10.0232 16.434 9.72488 16.434 9.39341V8.73042C16.4341 8.36577 16.1355 8.06744 15.7705 8.06744ZM6.54713 0.7416H10.3957C11.557 0.7416 12.5191 1.66975 12.5855 2.82997L12.9563 9.6583C12.9525 9.67893 12.9504 9.70091 12.9504 9.72492L13.0309 11.0319L13.0492 11.3696C13.0268 11.3662 13.0041 11.3634 12.9813 11.3608C12.9231 11.3495 12.8539 11.3492 12.7845 11.3492H4.15834C4.0889 11.3492 4.0197 11.3495 3.96153 11.3608C3.93875 11.3634 3.91608 11.3662 3.89361 11.3696L3.98218 9.73871C3.98614 9.72348 3.98976 9.70795 3.99244 9.69182L4.05881 8.36589C4.05881 8.36018 4.05823 8.35393 4.05772 8.34775L4.35741 2.83005C4.42374 1.66975 5.3859 0.7416 6.54713 0.7416ZM1.17235 8.69729H3.36208L3.32891 9.36027H1.17235V8.69729ZM2.16768 14.0011C1.96862 14.0011 1.83592 13.8685 1.83592 13.6696V10.0232H3.29501L3.28836 10.1435L3.19622 11.6475C3.19027 11.6521 3.18471 11.657 3.1788 11.6616C2.7648 11.9604 2.49949 12.4473 2.49949 13.0066V14.0011H2.16768ZM5.15367 18.9734C5.15367 19.1723 5.02097 19.3048 4.82191 19.3048C4.62284 19.3048 4.49014 19.1723 4.49014 18.9734V15.327H5.15371L5.15367 18.9734ZM12.4527 18.9734C12.4527 19.1723 12.32 19.3048 12.121 19.3048C11.9219 19.3048 11.7892 19.1723 11.7892 18.9734V15.327H12.4527V18.9734ZM13.7798 14.6641H3.16301V13.0066C3.16301 12.9844 3.16383 12.9623 3.16527 12.9404L3.16554 12.9364C3.18043 12.7247 3.26223 12.527 3.39011 12.3629C3.45139 12.2893 3.52347 12.2253 3.60426 12.1727C3.63191 12.1683 3.66282 12.1602 3.69388 12.1447C3.77413 12.0846 3.86659 12.049 3.96371 12.03C3.97417 12.028 3.98466 12.0262 3.9952 12.0246C4.00029 12.0238 4.00543 12.0231 4.01056 12.0224C4.02397 12.0205 4.03746 12.0188 4.05107 12.0175C4.05581 12.017 4.06056 12.0167 4.06534 12.0163C4.07798 12.0152 4.09061 12.0142 4.1034 12.0135C4.12168 12.0127 4.14003 12.0121 4.15834 12.0121H12.7845C12.8029 12.0121 12.8212 12.0127 12.8395 12.0135C12.8523 12.0142 12.8649 12.0152 12.8775 12.0163C12.8823 12.0167 12.8871 12.017 12.8918 12.0175C12.9054 12.0188 12.9189 12.0205 12.9323 12.0224C12.9375 12.0231 12.9426 12.0238 12.9477 12.0246C12.9583 12.0262 12.9688 12.0281 12.9792 12.03C13.0763 12.049 13.1688 12.0846 13.249 12.1447C13.2627 12.1538 13.2771 12.1614 13.2918 12.168C13.5771 12.3286 13.7548 12.6159 13.7773 12.9367L13.7776 12.9402C13.7791 12.9622 13.7798 12.9843 13.7798 13.0066V14.6641ZM15.107 13.6696C15.107 13.8685 14.9743 14.0011 14.7752 14.0011H14.4434V13.0066C14.4434 12.9744 14.4423 12.9425 14.4406 12.9107C14.4399 12.8987 14.4388 12.8867 14.4379 12.8747C14.4365 12.8558 14.4349 12.8369 14.4329 12.8182C14.4312 12.8025 14.4292 12.787 14.4271 12.7714C14.4252 12.7579 14.4233 12.7445 14.4211 12.7311C14.418 12.7119 14.4148 12.6929 14.4111 12.674C14.41 12.6682 14.4087 12.6625 14.4075 12.6567C14.322 12.2403 14.086 11.8822 13.7467 11.6475L13.6471 10.0232H15.107V13.6696ZM15.7705 9.36023H13.6139L13.5808 8.69725H15.7705V9.36023Z" fill="white"/>
<path d="M5.31953 3.19458C5.5186 3.22771 5.6845 3.09513 5.6845 2.89624C5.71766 2.43214 6.08263 2.06753 6.54713 2.06753H10.3957C10.8602 2.06753 11.2252 2.43218 11.2584 2.89624C11.2584 3.062 11.4243 3.19458 11.5901 3.19458C11.7892 3.19458 11.9219 3.02882 11.9219 2.8631C11.8887 2.0344 11.2252 1.40455 10.3957 1.40455H6.54713C5.75087 1.40455 5.05414 2.03436 5.02097 2.82993C4.98777 3.02886 5.12047 3.19458 5.31953 3.19458Z" fill="white"/>
</g>
</svg>
