<svg width="17" height="17" viewBox="0 0 17 17" fill="none" xmlns="http://www.w3.org/2000/svg">
<path d="M14.5 0H4.5C3.83696 0 3.20107 0.263392 2.73223 0.732233C2.26339 1.20107 2 1.83696 2 2.5V3.5C2 3.63261 2.05268 3.75979 2.14645 3.85355C2.24021 3.94732 2.36739 4 2.5 4C2.63261 4 2.75979 3.94732 2.85355 3.85355C2.94732 3.75979 3 3.63261 3 3.5V2.5C3 2.10218 3.15804 1.72064 3.43934 1.43934C3.72064 1.15804 4.10218 1 4.5 1H9V16H4.5C4.10218 16 3.72064 15.842 3.43934 15.5607C3.15804 15.2794 3 14.8978 3 14.5V13.5C3 13.3674 2.94732 13.2402 2.85355 13.1464C2.75979 13.0527 2.63261 13 2.5 13C2.36739 13 2.24021 13.0527 2.14645 13.1464C2.05268 13.2402 2 13.3674 2 13.5V14.5C2 15.163 2.26339 15.7989 2.73223 16.2678C3.20107 16.7366 3.83696 17 4.5 17H14.5C15.163 17 15.7989 16.7366 16.2678 16.2678C16.7366 15.7989 17 15.163 17 14.5V2.5C17 1.83696 16.7366 1.20107 16.2678 0.732233C15.7989 0.263392 15.163 0 14.5 0ZM16 14.5C16 14.8978 15.842 15.2794 15.5607 15.5607C15.2794 15.842 14.8978 16 14.5 16H10V1H14.5C14.8978 1 15.2794 1.15804 15.5607 1.43934C15.842 1.72064 16 2.10218 16 2.5V14.5ZM3 6.5V8H4.5C4.63261 8 4.75979 8.05268 4.85355 8.14645C4.94732 8.24021 5 8.36739 5 8.5C5 8.63261 4.94732 8.75979 4.85355 8.85355C4.75979 8.94732 4.63261 9 4.5 9H3V10.5C3 10.6326 2.94732 10.7598 2.85355 10.8536C2.75979 10.9473 2.63261 11 2.5 11C2.36739 11 2.24021 10.9473 2.14645 10.8536C2.05268 10.7598 2 10.6326 2 10.5V9H0.5C0.367392 9 0.240215 8.94732 0.146447 8.85355C0.0526785 8.75979 0 8.63261 0 8.5C0 8.36739 0.0526785 8.24021 0.146447 8.14645C0.240215 8.05268 0.367392 8 0.5 8H2V6.5C2 6.36739 2.05268 6.24021 2.14645 6.14645C2.24021 6.05268 2.36739 6 2.5 6C2.63261 6 2.75979 6.05268 2.85355 6.14645C2.94732 6.24021 3 6.36739 3 6.5Z" fill="#008BE2"/>
</svg>
