<svg width="17" height="17" viewBox="0 0 17 17" fill="none" xmlns="http://www.w3.org/2000/svg">
<path d="M7.62543 16.9855C7.62504 16.9855 7.62455 16.9855 7.62407 16.9855C7.12335 16.9851 6.65251 16.7898 6.29858 16.4353L1.31347 11.443C0.584313 10.7125 0.584313 9.52384 1.31347 8.79342L8.03347 2.06052C8.726 1.36663 9.64745 0.984375 10.628 0.984375H14.8915C15.9253 0.984375 16.7666 1.82545 16.7666 2.85951V7.1099C16.7666 8.08976 16.3847 9.01082 15.6915 9.70325L8.95062 16.4371C8.5965 16.7908 8.12586 16.9855 7.62543 16.9855ZM10.628 2.23446C9.98185 2.23446 9.37468 2.48634 8.9183 2.94359L2.1982 9.67649C1.95511 9.92006 1.95511 10.3162 2.1982 10.5598L7.18331 15.552C7.30119 15.6701 7.45804 15.7353 7.62504 15.7354C7.79185 15.7354 7.94919 15.6705 8.06716 15.5527L14.8081 8.81891C15.2649 8.36263 15.5165 7.75555 15.5165 7.1099V2.85951C15.5165 2.51485 15.2361 2.23446 14.8915 2.23446H10.628ZM12.2349 7.32857C11.201 7.32857 10.3598 6.4875 10.3598 5.45344C10.3598 4.41938 11.201 3.57831 12.2349 3.57831C13.2689 3.57831 14.1101 4.41938 14.1101 5.45344C14.1101 6.4875 13.2689 7.32857 12.2349 7.32857ZM12.2349 4.82839C11.8903 4.82839 11.6099 5.10879 11.6099 5.45344C11.6099 5.79809 11.8903 6.07848 12.2349 6.07848C12.5797 6.07848 12.86 5.79809 12.86 5.45344C12.86 5.10879 12.5797 4.82839 12.2349 4.82839Z" fill="#008BE2"/>
</svg>
