<svg width="38" height="38" viewBox="0 0 38 38" fill="none" xmlns="http://www.w3.org/2000/svg">
<path d="M10.6802 23.9651C10.4998 23.9651 10.3268 23.8934 10.1993 23.7658C10.0717 23.6383 10 23.4653 10 23.2849V11.4942C10 11.3138 10.0717 11.1408 10.1992 11.0132C10.3268 10.8856 10.4998 10.814 10.6802 10.814C10.8606 10.814 11.0337 10.8856 11.1612 11.0132C11.2888 11.1408 11.3605 11.3138 11.3605 11.4942V23.2849C11.3604 23.4653 11.2887 23.6383 11.1612 23.7658C11.0336 23.8934 10.8606 23.9651 10.6802 23.9651Z" fill="#008CE0"/>
<path d="M26.0991 26.6861H18.8433C18.6629 26.6861 18.4899 26.6145 18.3623 26.4869C18.2348 26.3593 18.1631 26.1863 18.1631 26.0059C18.1631 25.8255 18.2348 25.6525 18.3623 25.5249C18.4899 25.3973 18.6629 25.3257 18.8433 25.3257H26.0991C26.159 25.3249 26.2163 25.3008 26.2587 25.2585C26.3011 25.2161 26.3252 25.1588 26.3259 25.0989V21.471C26.3259 21.2906 26.3975 21.1176 26.5251 20.99C26.6527 20.8624 26.8257 20.7908 27.0061 20.7908C27.1865 20.7908 27.3595 20.8624 27.4871 20.99C27.6147 21.1176 27.6863 21.2906 27.6863 21.471V25.0989C27.6858 25.5197 27.5184 25.9231 27.2209 26.2207C26.9233 26.5182 26.5199 26.6856 26.0991 26.6861Z" fill="#008CE0"/>
<path d="M27.0057 18.5233C26.8253 18.5232 26.6523 18.4515 26.5247 18.324C26.3972 18.1964 26.3255 18.0234 26.3254 17.843V14.2151C26.3247 14.1552 26.3006 14.098 26.2582 14.0556C26.2159 14.0132 26.1586 13.9891 26.0987 13.9884H24.2847C24.1043 13.9884 23.9313 13.9167 23.8037 13.7892C23.6762 13.6616 23.6045 13.4886 23.6045 13.3082C23.6045 13.1278 23.6762 12.9547 23.8037 12.8272C23.9313 12.6996 24.1043 12.6279 24.2847 12.6279H26.0987C26.5195 12.6284 26.9229 12.7958 27.2204 13.0934C27.518 13.3909 27.6854 13.7943 27.6859 14.2151V17.843C27.6858 18.0234 27.6142 18.1964 27.4866 18.324C27.359 18.4515 27.186 18.5232 27.0057 18.5233Z" fill="#008CE0"/>
<path d="M24.2849 13.9884H12.4942C11.8327 13.9884 11.1983 13.7256 10.7305 13.2578C10.2628 12.7901 10 12.1557 10 11.4942C10 10.8327 10.2628 10.1983 10.7305 9.73053C11.1983 9.26278 11.8327 9 12.4942 9H23.3779C23.7987 9.00051 24.2021 9.1679 24.4997 9.46545C24.7972 9.763 24.9646 10.1664 24.9651 10.5872V13.3081C24.9651 13.4885 24.8934 13.6615 24.7658 13.7891C24.6383 13.9166 24.4653 13.9883 24.2849 13.9884ZM12.4942 10.3605C12.1935 10.3605 11.9051 10.4799 11.6925 10.6925C11.4799 10.9051 11.3605 11.1935 11.3605 11.4942C11.3605 11.7949 11.4799 12.0832 11.6925 12.2958C11.9051 12.5085 12.1935 12.6279 12.4942 12.6279H23.6047V10.5872C23.6045 10.5271 23.5806 10.4695 23.5381 10.427C23.4956 10.3845 23.438 10.3606 23.3779 10.3605H12.4942Z" fill="#008CE0"/>
<path d="M28.3995 22.1512H25.0568C24.4312 22.1505 23.8315 21.9017 23.3891 21.4594C22.9468 21.017 22.698 20.4172 22.6973 19.7917V19.5224C22.698 18.8968 22.9468 18.2971 23.3891 17.8547C23.8315 17.4123 24.4312 17.1635 25.0568 17.1628H28.3995C28.6912 17.1631 28.9708 17.2791 29.1771 17.4854C29.3833 17.6916 29.4993 17.9712 29.4996 18.2629V21.0512C29.4993 21.3428 29.3833 21.6225 29.1771 21.8287C28.9708 22.0349 28.6912 22.1509 28.3995 22.1512ZM25.0568 18.5233C24.7919 18.5236 24.538 18.629 24.3507 18.8163C24.1634 19.0036 24.058 19.2575 24.0577 19.5224V19.7917C24.058 20.0565 24.1634 20.3105 24.3507 20.4978C24.538 20.6851 24.7919 20.7905 25.0568 20.7907H28.1391V18.5233H25.0568Z" fill="#008CE0"/>
<path d="M15.2151 28.5001C14.1837 28.5001 13.1754 28.1942 12.3178 27.6212C11.4601 27.0481 10.7917 26.2336 10.397 25.2807C10.0023 24.3277 9.89898 23.2792 10.1002 22.2675C10.3014 21.2559 10.7981 20.3266 11.5275 19.5973C12.2568 18.868 13.1861 18.3713 14.1977 18.17C15.2093 17.9688 16.2579 18.0721 17.2109 18.4668C18.1638 18.8615 18.9783 19.53 19.5513 20.3876C20.1244 21.2452 20.4302 22.2535 20.4302 23.2849C20.4286 24.6676 19.8787 25.9931 18.901 26.9708C17.9233 27.9485 16.5978 28.4984 15.2151 28.5001ZM15.2151 19.4303C14.4527 19.4303 13.7075 19.6564 13.0736 20.0799C12.4397 20.5035 11.9456 21.1055 11.6539 21.8098C11.3621 22.5142 11.2858 23.2892 11.4345 24.0369C11.5833 24.7847 11.9504 25.4715 12.4895 26.0106C13.0286 26.5497 13.7154 26.9168 14.4631 27.0655C15.2108 27.2143 15.9859 27.1379 16.6902 26.8462C17.3946 26.5544 17.9966 26.0604 18.4201 25.4265C18.8437 24.7926 19.0698 24.0473 19.0698 23.2849C19.0686 22.263 18.662 21.2833 17.9394 20.5606C17.2168 19.838 16.2371 19.4315 15.2151 19.4303Z" fill="#008CE0"/>
<path d="M15.2154 25.7791C15.035 25.7791 14.862 25.7074 14.7344 25.5799C14.6069 25.4523 14.5352 25.2793 14.5352 25.0989V21.471C14.5352 21.2906 14.6068 21.1176 14.7344 20.99C14.862 20.8624 15.035 20.7908 15.2154 20.7908C15.3958 20.7908 15.5688 20.8624 15.6964 20.99C15.824 21.1176 15.8956 21.2906 15.8956 21.471V25.0989C15.8956 25.2793 15.8239 25.4523 15.6963 25.5799C15.5688 25.7074 15.3958 25.7791 15.2154 25.7791Z" fill="#008CE0"/>
<path d="M17.0288 23.9652H13.4009C13.2205 23.9652 13.0475 23.8935 12.9199 23.766C12.7924 23.6384 12.7207 23.4654 12.7207 23.285C12.7207 23.1046 12.7924 22.9315 12.9199 22.804C13.0475 22.6764 13.2205 22.6047 13.4009 22.6047H17.0288C17.2093 22.6047 17.3823 22.6764 17.5098 22.804C17.6374 22.9315 17.7091 23.1046 17.7091 23.285C17.7091 23.4654 17.6374 23.6384 17.5098 23.766C17.3823 23.8935 17.2093 23.9652 17.0288 23.9652Z" fill="#008CE0"/>
<rect x="0.5" y="0.5" width="37" height="37" rx="7.5" stroke="#A9C9E5"/>
</svg>
