<svg width="17" height="18" viewBox="0 0 17 18" fill="none" xmlns="http://www.w3.org/2000/svg">
<g id="Vector">
<path d="M11.8483 15.5233C10.3302 15.5233 8.89903 14.7168 8.12415 13.4121C7.71299 12.7479 7.4995 11.973 7.4995 11.1744C7.4995 8.7786 9.45252 6.82558 11.8483 6.82558C14.2442 6.82558 16.1972 8.7786 16.1972 11.1744C16.1972 11.973 15.9758 12.7479 15.5646 13.42C14.7976 14.7168 13.3744 15.5233 11.8483 15.5233ZM11.8483 8.01163C10.1009 8.01163 8.68555 9.42698 8.68555 11.1744C8.68555 11.7516 8.84369 12.313 9.14415 12.7953C9.71345 13.7521 10.7493 14.3372 11.8483 14.3372C12.9711 14.3372 13.9832 13.7679 14.5525 12.8033C14.853 12.313 15.0111 11.7516 15.0111 11.1744C15.0111 9.42698 13.5958 8.01163 11.8483 8.01163Z" fill="#008BE2"/>
<path d="M13.2558 11.7516H10.4488C10.1246 11.7516 9.85576 11.4828 9.85576 11.1586C9.85576 10.8344 10.1246 10.5656 10.4488 10.5656H13.2558C13.5799 10.5656 13.8488 10.8344 13.8488 11.1586C13.8488 11.4828 13.5799 11.7516 13.2558 11.7516Z" fill="#008BE2"/>
<path d="M11.8483 13.1828C11.5242 13.1828 11.2553 12.9139 11.2553 12.5898V9.7907C11.2553 9.46651 11.5242 9.19767 11.8483 9.19767C12.1725 9.19767 12.4414 9.46651 12.4414 9.7907V12.5977C12.4414 12.9219 12.1804 13.1828 11.8483 13.1828Z" fill="#008BE2"/>
<path d="M7.14363 17.5C6.76409 17.5 6.38456 17.4051 6.04456 17.2154C5.34084 16.82 4.92176 16.1084 4.92176 15.3098V11.0795C4.92176 10.6842 4.66084 10.0832 4.40781 9.77487L1.40316 6.61999C0.905019 6.10604 0.517578 5.2442 0.517578 4.61164V2.7693C0.517578 1.49628 1.48223 0.5 2.70781 0.5H13.2557C14.4655 0.5 15.446 1.48048 15.446 2.69025V4.44557C15.446 5.27581 14.9557 6.20886 14.4813 6.69909L13.058 7.95627C12.9157 8.08279 12.718 8.13021 12.5283 8.09068C12.3148 8.03533 12.0855 8.01163 11.8483 8.01163C10.1009 8.01163 8.68555 9.42698 8.68555 11.1744C8.68555 11.7516 8.84363 12.313 9.14409 12.8033C9.39711 13.2223 9.73711 13.5703 10.1325 13.8154C10.3064 13.9261 10.4171 14.1158 10.4171 14.3214V14.5902C10.4171 15.2149 10.0376 16.0926 9.40502 16.4642L8.31386 17.1679C7.95804 17.3893 7.54688 17.5 7.14363 17.5ZM2.71572 1.68605C2.15432 1.68605 1.71153 2.16046 1.71153 2.7693V4.61164C1.71153 4.89629 1.94874 5.48141 2.26502 5.79768L5.30921 9C5.71246 9.49814 6.11572 10.3442 6.11572 11.0875V15.3177C6.11572 15.8395 6.47944 16.1005 6.62967 16.1875C6.96967 16.3772 7.37293 16.3693 7.6813 16.1795L8.78828 15.4679C9.00176 15.3414 9.21525 14.9382 9.23107 14.6535C8.79618 14.3293 8.41665 13.9102 8.132 13.4358C7.72084 12.7637 7.49944 11.9889 7.49944 11.1982C7.49944 8.80235 9.45246 6.84933 11.8483 6.84933C12.0697 6.84933 12.2911 6.86514 12.4966 6.89677L13.6669 5.86095C13.9357 5.58421 14.2678 4.92791 14.2678 4.4614V2.70603C14.2678 2.15254 13.8171 1.70188 13.2636 1.70188H2.71572V1.68605Z" fill="#008BE2"/>
</g>
</svg>
