<svg width="19" height="19" viewBox="0 0 19 19" fill="none" xmlns="http://www.w3.org/2000/svg">
<path id="Vector" d="M18.973 17.3039C18.9729 16.6686 18.5951 16.0973 18.0105 15.8486L13.5264 13.9408V12.868C13.9404 12.257 14.2008 11.5339 14.2525 10.7547H14.7912C15.8573 10.7547 16.7248 9.88722 16.7248 8.82113V7.25625C16.7248 6.34561 16.0917 5.58055 15.2429 5.37647C15.2044 3.82368 14.8531 2.6436 14.1723 1.77568C13.2982 0.661519 11.8855 0.0966797 9.97314 0.0966797C8.06084 0.0966797 6.64813 0.661519 5.77403 1.77582C5.09302 2.6436 4.74187 3.82368 4.70341 5.37647C3.85445 5.58055 3.2215 6.34561 3.2215 7.25625V8.82113C3.2215 9.88722 4.089 10.7547 5.15509 10.7547H5.69383C5.74547 11.5339 6.00584 12.257 6.41989 12.868V13.9408L1.93582 15.8486C1.35121 16.0973 0.973282 16.6687 0.973282 17.304L0.973145 17.5692C0.973145 17.7091 1.02863 17.8433 1.12764 17.9422C1.22652 18.0411 1.36055 18.0967 1.50049 18.0967H18.4458C18.5857 18.0967 18.7199 18.0411 18.8188 17.9422C18.9177 17.8432 18.9731 17.709 18.9731 17.5692L18.973 17.3039ZM12.4723 14.3108C12.4727 14.3234 12.5022 15.6033 11.7462 16.3906C11.3311 16.8228 10.7345 17.0418 9.97314 17.0418C9.21454 17.0418 8.61949 16.8243 8.20462 16.3953C7.43956 15.6039 7.47375 14.3219 7.47403 14.3108C7.4743 14.3046 7.47444 14.2984 7.47444 14.2922C7.47444 14.29 7.47458 14.2878 7.47458 14.2855V13.9523C8.17853 14.4588 9.04164 14.7574 9.97314 14.7574C10.9046 14.7574 11.7678 14.4587 12.4717 13.9523V14.2856C12.4717 14.2877 12.4718 14.2899 12.4718 14.2921C12.4718 14.2983 12.472 14.3044 12.4723 14.3108ZM13.2092 6.9555C13.2085 6.96607 13.2075 6.97665 13.2075 6.98749V9.94627L12.206 10.6141C11.8874 10.8266 11.5164 10.9389 11.1333 10.9389H10.2413C9.95021 10.9389 9.714 11.175 9.714 11.4662C9.714 11.7575 9.95021 11.9936 10.2413 11.9936H11.1333C11.7253 11.9936 12.2987 11.82 12.7911 11.4915L13.1034 11.2833C12.7413 12.6735 11.4751 13.7028 9.97314 13.7028C8.18965 13.7028 6.73877 12.2518 6.73877 10.4684V6.98749C6.73877 6.97651 6.73781 6.96593 6.73712 6.95522V6.23383C6.73781 6.22311 6.73877 6.21254 6.73877 6.20155C6.73877 5.29435 6.95836 4.69504 7.39149 4.42052C8.09709 3.9731 9.33113 4.38454 9.74628 4.58051C9.8891 4.64862 10.056 4.64849 10.1991 4.58092C10.6152 4.38468 11.8491 3.97324 12.5548 4.42052C12.9879 4.69504 13.2075 5.29435 13.2075 6.20155C13.2075 6.2124 13.2085 6.22298 13.2092 6.23355V6.9555ZM15.6701 7.25625V8.82113C15.6701 9.30577 15.2758 9.70004 14.7912 9.70004H14.2639V6.37734H14.7912C15.2758 6.37734 15.6701 6.77161 15.6701 7.25625ZM9.97314 1.15138C12.7657 1.15138 14.0772 2.42772 14.1845 5.27581C14.037 4.46941 13.6795 3.88315 13.1159 3.52746C12.0248 2.83875 10.5373 3.30966 9.97314 3.53158C9.409 3.30966 7.92145 2.83875 6.83037 3.52746C6.26677 3.88315 5.9093 4.46941 5.76181 5.27581C5.86906 2.42772 7.18056 1.15138 9.97314 1.15138ZM5.68243 9.70004H5.15509C4.67046 9.70004 4.27618 9.30577 4.27618 8.82113V7.25625C4.27618 6.77161 4.67046 6.37734 5.15509 6.37734H5.68243V9.70004ZM2.34877 16.8191L6.48032 15.0613C6.57288 15.6335 6.80276 16.4122 7.36636 17.042H2.0976C2.15349 16.9443 2.24055 16.8651 2.34877 16.8191ZM12.5799 17.042C13.1435 16.4122 13.3734 15.6335 13.466 15.0613L17.5975 16.8191C17.7057 16.8651 17.7927 16.9443 17.8487 17.042H12.5799Z" fill="#007ECC"/>
</svg>
