<svg width="15" height="14" viewBox="0 0 15 14" fill="none" xmlns="http://www.w3.org/2000/svg">
<g id="Vector">
<path d="M10.102 6.72606L7.19499 4.61285C7.0883 4.53552 6.94667 4.52387 6.82974 4.58397C6.71187 4.6436 6.63827 4.76473 6.63827 4.89564V9.12066C6.63827 9.25296 6.71187 9.37363 6.82974 9.43326C6.87959 9.45842 6.9341 9.47099 6.98907 9.47099C7.06081 9.47099 7.13349 9.44817 7.19499 9.40298L10.102 7.29163C10.1938 7.22408 10.2474 7.11973 10.2474 7.00885C10.2479 6.89611 10.1929 6.79222 10.102 6.72606Z" fill="#FB5050"/>
<path d="M7.7932 0C3.92644 0 0.792969 3.13389 0.792969 7.00117C0.792969 10.867 3.92644 14 7.7932 14C11.659 14 14.793 10.8666 14.793 7.00117C14.7934 3.13389 11.659 0 7.7932 0ZM7.7932 12.8319C4.57308 12.8319 1.96231 10.2222 1.96231 7.00117C1.96231 3.78154 4.57308 1.16857 7.7932 1.16857C11.0129 1.16857 13.6232 3.78108 13.6232 7.00117C13.6236 10.2222 11.0129 12.8319 7.7932 12.8319Z" fill="#FB5050"/>
</g>
</svg>
