<svg width="42" height="38" viewBox="0 0 42 38" fill="none" xmlns="http://www.w3.org/2000/svg">
<g id="Group 2609169">
<path id="Vector" d="M8.00634 0.5H33.7066C37.8395 0.5 41.213 3.94671 41.213 8.22729V29.7725C41.213 34.0531 37.8395 37.4998 33.7066 37.4998H8.00634C3.87345 37.4998 0.5 34.0531 0.5 29.7725V8.22729C0.5 3.94671 3.87345 0.5 8.00634 0.5Z" stroke="#A9C9E5"/>
<g id="Vector_2">
<path d="M23.1822 23.4635L18.903 16.9412L18.6726 16.5888C18.9386 16.1811 19.051 15.7181 18.9956 15.2581C18.9403 14.7982 18.7196 14.362 18.3615 14.0045C18.0033 13.6471 17.5238 13.3845 16.9834 13.2498C16.443 13.1151 15.8659 13.1144 15.325 13.2478C14.7841 13.3812 14.3037 13.6427 13.9443 13.9993C13.5849 14.3558 13.3626 14.7915 13.3056 15.2513C13.2486 15.7111 13.3594 16.1745 13.6239 16.5828C13.8885 16.9912 14.295 17.3262 14.7921 17.5458L15.0013 18.1562L17.1245 24.319H14.0283V26.0313H26.5823V23.4635H23.1822ZM16.1311 16.2133C15.947 16.2134 15.7669 16.1688 15.6138 16.0851C15.4606 16.0015 15.3412 15.8825 15.2707 15.7434C15.2002 15.6042 15.1817 15.451 15.2176 15.3033C15.2535 15.1555 15.3422 15.0198 15.4724 14.9132C15.6026 14.8067 15.7686 14.7342 15.9492 14.7048C16.1298 14.6754 16.317 14.6905 16.4871 14.7482C16.6572 14.8059 16.8026 14.9036 16.9049 15.0289C17.0071 15.1542 17.0617 15.3015 17.0616 15.4521C17.0609 15.6538 16.9627 15.8472 16.7884 15.9898C16.614 16.1324 16.3777 16.2128 16.1311 16.2133Z" fill="#008BE2"/>
<path d="M27.8883 16.701L25.132 17.9238C25.0008 17.9823 24.8522 18.0001 24.7067 17.9748C24.5611 17.9495 24.4258 17.8823 24.3193 17.7824L23.0409 16.6902C22.9793 16.773 22.8975 16.8403 22.8021 16.8867C22.7068 16.9331 22.6004 16.9574 22.4916 16.9574C22.0983 16.9549 21.7668 16.6484 21.4861 16.2738L21.4516 15.1922L18.2135 15.1712C18.2129 15.1731 18.2122 15.1744 18.2116 15.1764L18.1872 14.4101L21.4273 14.4312L21.3996 13.5624C21.6497 13.1913 21.9618 12.8883 22.3551 12.8909C22.4639 12.8924 22.5717 12.918 22.67 12.9656C22.7682 13.0133 22.8542 13.0817 22.921 13.1654L24.1309 12.0892C24.231 11.9908 24.362 11.9254 24.506 11.9021C24.6499 11.8787 24.7995 11.8987 24.9343 11.959L27.7704 13.2175C27.8998 13.2773 28.0014 13.3817 28.0534 13.5086C28.1055 13.6356 28.104 13.7749 28.0492 13.897C27.9921 14.0186 27.8856 14.1121 27.7531 14.1569C27.6205 14.2017 27.4726 14.1942 27.3418 14.1361L24.7383 12.9811L23.0342 14.4538L23.0645 15.4026L24.8632 16.8987L27.401 15.9924L27.4078 15.9924C27.6692 15.6562 27.9873 15.7737 28.1239 16.0254C28.1565 16.086 28.1764 16.1517 28.1822 16.2186C28.1881 16.2856 28.1798 16.3525 28.1578 16.4154C28.1359 16.4783 28.1007 16.536 28.0544 16.585C28.0082 16.6341 27.9517 16.6735 27.8883 16.701Z" fill="#008BE2"/>
</g>
</g>
</svg>
