<svg width="38" height="39" viewBox="0 0 38 39" fill="none" xmlns="http://www.w3.org/2000/svg">
<g id="Group 2609182">
<path id="Vector" d="M12.5883 27.6915C12.4205 27.6914 12.2544 27.6592 12.0998 27.5967C11.9451 27.5343 11.8051 27.443 11.6879 27.3279C11.5653 27.217 11.4674 27.0833 11.4003 26.9351C11.3331 26.7869 11.2982 26.6272 11.2974 26.4657V13.7208C11.2982 13.5593 11.3331 13.3996 11.4003 13.2514C11.4674 13.1032 11.5653 12.9695 11.6879 12.8586C11.8051 12.7435 11.9451 12.6522 12.0998 12.5898C12.2544 12.5273 12.4205 12.4951 12.5883 12.495H13.9553V11.259H15.344V12.495H22.6344V11.259H24.0231V12.495H25.4225C25.7603 12.5004 26.0827 12.6313 26.3216 12.86C26.5605 13.0887 26.6972 13.3974 26.7028 13.7208V26.4657C26.6972 26.7891 26.5605 27.0978 26.3216 27.3265C26.0827 27.5553 25.7603 27.6861 25.4225 27.6915H12.5883ZM12.5883 26.4657H25.466V17.6264H12.5883V26.4657ZM12.5883 16.4006H25.466V13.7208H12.5883V16.4006ZM19.0218 21.1164C18.9096 21.1199 18.7978 21.1015 18.6934 21.0622C18.5889 21.0229 18.4939 20.9635 18.4142 20.8878C18.3334 20.8101 18.2696 20.7177 18.2268 20.616C18.1839 20.5143 18.1628 20.4055 18.1647 20.2958C18.1671 20.1332 18.2192 19.9747 18.3147 19.8402C18.4102 19.7057 18.545 19.601 18.7021 19.5391C18.8592 19.4772 19.0317 19.4607 19.1985 19.4918C19.3652 19.5229 19.5188 19.6002 19.6401 19.7141C19.7192 19.7904 19.7812 19.8813 19.8222 19.9814C19.8633 20.0814 19.8824 20.1884 19.8788 20.2958C19.8826 20.4048 19.8635 20.5133 19.8225 20.6151C19.7815 20.7168 19.7195 20.8096 19.6401 20.8878C19.5588 20.9643 19.462 21.024 19.3556 21.0633C19.2493 21.1026 19.1357 21.1208 19.0218 21.1164ZM15.5935 21.1164C15.4812 21.1206 15.3694 21.1024 15.2648 21.0631C15.1602 21.0237 15.0652 20.964 14.9859 20.8878C14.903 20.8116 14.8379 20.7195 14.7949 20.6175C14.7519 20.5154 14.7319 20.4058 14.7364 20.2958C14.7321 20.1874 14.7521 20.0794 14.7952 19.9791C14.8382 19.8787 14.9033 19.7883 14.9859 19.7141C15.0643 19.636 15.1589 19.5745 15.2635 19.5334C15.3681 19.4923 15.4804 19.4724 15.5935 19.4752C15.8208 19.4752 16.0388 19.5617 16.1995 19.7156C16.3602 19.8695 16.4506 20.0782 16.4506 20.2958C16.4524 20.4055 16.4312 20.5143 16.3884 20.616C16.3455 20.7177 16.2818 20.8101 16.201 20.8878C16.1213 20.9635 16.0264 21.0229 15.9219 21.0622C15.8175 21.1015 15.7057 21.1199 15.5935 21.1164ZM22.4608 21.1164C22.3466 21.1224 22.2324 21.1053 22.1256 21.0662C22.0188 21.0271 21.9218 20.9668 21.8409 20.8893C21.76 20.8119 21.6971 20.7191 21.6563 20.6169C21.6154 20.5146 21.5976 20.4052 21.6038 20.2958C21.6002 20.1884 21.6193 20.0814 21.6604 19.9814C21.7014 19.8813 21.7634 19.7904 21.8425 19.7141C21.9236 19.6367 22.0202 19.5758 22.1264 19.5348C22.2326 19.4937 22.3463 19.4734 22.4608 19.4752C22.6881 19.4752 22.9061 19.5617 23.0668 19.7156C23.2276 19.8695 23.3179 20.0782 23.3179 20.2958C23.3197 20.4055 23.2987 20.5143 23.2558 20.616C23.2129 20.7177 23.1492 20.8101 23.0684 20.8878C22.9887 20.9635 22.8937 21.0229 22.7892 21.0622C22.6848 21.1015 22.573 21.1199 22.4608 21.1164ZM19.0218 24.4091C18.7945 24.4091 18.5764 24.3227 18.4156 24.1688C18.2549 24.0149 18.1647 23.8062 18.1647 23.5886C18.1628 23.4789 18.1839 23.37 18.2268 23.2683C18.2696 23.1666 18.3334 23.0742 18.4142 22.9964C18.5819 22.8505 18.8005 22.7696 19.0272 22.7696C19.2539 22.7696 19.4724 22.8505 19.6401 22.9964C19.7195 23.0747 19.7815 23.1675 19.8225 23.2692C19.8635 23.3709 19.8826 23.4796 19.8788 23.5886C19.8824 23.696 19.8633 23.8029 19.8222 23.9029C19.7812 24.0029 19.7192 24.0939 19.6401 24.1702C19.5593 24.248 19.4629 24.3094 19.3566 24.3505C19.2503 24.3916 19.1364 24.4114 19.0218 24.4091ZM15.5935 24.4091C15.4804 24.4119 15.3681 24.3921 15.2635 24.351C15.1589 24.3099 15.0643 24.2483 14.9859 24.1702C14.9033 24.096 14.8382 24.0057 14.7952 23.9053C14.7521 23.805 14.7321 23.697 14.7364 23.5886C14.7319 23.4786 14.7519 23.369 14.7949 23.2669C14.8379 23.1649 14.903 23.0727 14.9859 22.9964C15.0652 22.9203 15.1602 22.8607 15.2648 22.8213C15.3694 22.782 15.4812 22.7638 15.5935 22.768C15.7057 22.7645 15.8175 22.7829 15.9219 22.8222C16.0264 22.8615 16.1213 22.9208 16.201 22.9964C16.2818 23.0742 16.3455 23.1666 16.3884 23.2683C16.4312 23.37 16.4524 23.4789 16.4506 23.5886C16.4506 23.8062 16.3602 24.0149 16.1995 24.1688C16.0388 24.3227 15.8208 24.4091 15.5935 24.4091ZM22.4608 24.4091C22.3463 24.4108 22.2326 24.3907 22.1264 24.3496C22.0202 24.3086 21.9236 24.2476 21.8425 24.1702C21.7634 24.0939 21.7014 24.0029 21.6604 23.9029C21.6193 23.8029 21.6002 23.696 21.6038 23.5886C21.5976 23.4792 21.6154 23.3698 21.6563 23.2675C21.6971 23.1653 21.76 23.0724 21.8409 22.9949C21.9218 22.9175 22.0188 22.8573 22.1256 22.8182C22.2324 22.7791 22.3466 22.762 22.4608 22.768C22.573 22.7645 22.6848 22.7829 22.7892 22.8222C22.8937 22.8615 22.9887 22.9208 23.0684 22.9964C23.1492 23.0742 23.2129 23.1666 23.2558 23.2683C23.2987 23.37 23.3197 23.4789 23.3179 23.5886C23.3179 23.8062 23.2276 24.0149 23.0668 24.1688C22.9061 24.3227 22.6881 24.4091 22.4608 24.4091Z" fill="#008BE2"/>
<rect id="Rectangle 847" x="0.5" y="1.48877" width="37" height="37" rx="7.5" stroke="#A9C9E5"/>
</g>
</svg>
