<svg width="21" height="21" viewBox="0 0 21 21" fill="none" xmlns="http://www.w3.org/2000/svg">
<path d="M18.9781 15.8954C18.9781 16.1954 18.9114 16.5038 18.7698 16.8038C18.6281 17.1038 18.4448 17.3871 18.2031 17.6538C17.7948 18.1038 17.3448 18.4288 16.8364 18.6371C16.3364 18.8454 15.7948 18.9538 15.2114 18.9538C14.3614 18.9538 13.4531 18.7538 12.4948 18.3454C11.5364 17.9371 10.5781 17.3871 9.62809 16.6954C8.66976 15.9954 7.76143 15.2204 6.89476 14.3621C6.03643 13.4954 5.26143 12.5871 4.56976 11.6371C3.88643 10.6871 3.33643 9.73711 2.93643 8.79544C2.53643 7.84544 2.33643 6.93711 2.33643 6.07044C2.33643 5.50378 2.43643 4.96211 2.63643 4.46211C2.83643 3.95378 3.15309 3.48711 3.59476 3.07044C4.12809 2.54544 4.71143 2.28711 5.32809 2.28711C5.56143 2.28711 5.79476 2.33711 6.00309 2.43711C6.21976 2.53711 6.41143 2.68711 6.56143 2.90378L8.49476 5.62878C8.64476 5.83711 8.75309 6.02878 8.82809 6.21211C8.90309 6.38711 8.94476 6.56211 8.94476 6.72044C8.94476 6.92044 8.88643 7.12044 8.76976 7.31211C8.66143 7.50378 8.50309 7.70378 8.30309 7.90378L7.66976 8.56211C7.57809 8.65378 7.53643 8.76211 7.53643 8.89544C7.53643 8.96211 7.54476 9.02044 7.56143 9.08711C7.58643 9.15378 7.61143 9.20378 7.62809 9.25378C7.77809 9.52878 8.03643 9.88711 8.40309 10.3204C8.77809 10.7538 9.17809 11.1954 9.61143 11.6371C10.0614 12.0788 10.4948 12.4871 10.9364 12.8621C11.3698 13.2288 11.7281 13.4788 12.0114 13.6288C12.0531 13.6454 12.1031 13.6704 12.1614 13.6954C12.2281 13.7204 12.2948 13.7288 12.3698 13.7288C12.5114 13.7288 12.6198 13.6788 12.7114 13.5871L13.3448 12.9621C13.5531 12.7538 13.7531 12.5954 13.9448 12.4954C14.1364 12.3788 14.3281 12.3204 14.5364 12.3204C14.6948 12.3204 14.8614 12.3538 15.0448 12.4288C15.2281 12.5038 15.4198 12.6121 15.6281 12.7538L18.3864 14.7121C18.6031 14.8621 18.7531 15.0371 18.8448 15.2454C18.9281 15.4538 18.9781 15.6621 18.9781 15.8954Z" stroke="#7E92A2" stroke-width="1.5" stroke-miterlimit="10"/>
<path d="M16.0866 8.12077C16.0866 7.62077 15.6949 6.8541 15.1116 6.2291C14.5783 5.6541 13.8699 5.2041 13.1699 5.2041" stroke="#7E92A2" stroke-width="1.5" stroke-linecap="round" stroke-linejoin="round"/>
<path d="M19.0033 8.12044C19.0033 4.89544 16.3949 2.28711 13.1699 2.28711" stroke="#7E92A2" stroke-width="1.5" stroke-linecap="round" stroke-linejoin="round"/>
</svg>
