<svg width="16" height="18" viewBox="0 0 16 18" fill="none" xmlns="http://www.w3.org/2000/svg">
<g id="Vector">
<path d="M7.85789 17.4881C5.61362 17.4881 3.36936 17.4879 1.12509 17.4877C0.454978 17.4874 0.260444 17.2879 0.272493 16.6226C0.323828 13.7887 2.55318 11.1599 5.38319 10.7707C6.66776 10.5941 7.98892 10.6712 9.29374 10.6558C12.0721 10.6231 14.9677 12.7032 15.4071 16.1347C15.529 17.0872 15.5919 17.5247 14.2435 17.4989C12.1156 17.4582 9.98648 17.4881 7.85789 17.4881ZM1.63227 16.1703H14.0813C13.8461 14.1458 12.1852 12.2952 10.2014 12.0754C8.73217 11.9109 7.25016 11.8934 5.77743 12.0231C3.61346 12.2191 1.85472 14.0718 1.63227 16.1703Z" fill="#008BE2"/>
<path d="M7.86956 9.90641C6.90608 9.90938 5.96345 9.62631 5.1613 9.09311C4.35915 8.55992 3.73366 7.80064 3.36423 6.91167C2.99479 6.02271 2.89807 5.04413 3.08634 4.10014C3.27461 3.15616 3.73937 2.28934 4.42165 1.60971C5.10392 0.930081 5.97293 0.468294 6.91839 0.282957C7.86384 0.0976204 8.84309 0.19709 9.73185 0.568748C10.6206 0.940405 11.3788 1.56749 11.9102 2.3704C12.4416 3.17331 12.7222 4.11585 12.7164 5.07837C12.7155 7.72523 10.5303 9.90192 7.86956 9.90641ZM7.86697 1.58145C7.18166 1.57916 6.511 1.77961 5.93955 2.15753C5.3681 2.53545 4.92143 3.07393 4.65585 3.70508C4.39026 4.33623 4.31766 5.03179 4.44718 5.7041C4.5767 6.37641 4.90255 6.99537 5.38366 7.48295C5.86476 7.97053 6.47959 8.3049 7.15063 8.44393C7.82167 8.58295 8.51889 8.52039 9.15439 8.26415C9.7899 8.0079 10.3353 7.56943 10.7217 7.00402C11.1081 6.4386 11.3184 5.77155 11.3259 5.08694C11.3304 4.62953 11.2444 4.17575 11.0728 3.75166C10.9012 3.32758 10.6474 2.94156 10.3259 2.61579C10.0045 2.29003 9.62178 2.03095 9.19979 1.85344C8.77779 1.67593 8.32484 1.5835 7.86697 1.58145Z" fill="#008BE2"/>
</g>
</svg>
