<svg width="20" height="11" viewBox="0 0 20 11" fill="none" xmlns="http://www.w3.org/2000/svg">
<path d="M19.3638 1.79264C19.3638 2.70931 18.5865 3.45931 17.6365 3.45931C17.481 3.45931 17.3342 3.44264 17.196 3.40098L14.1215 6.35931C14.1647 6.49264 14.182 6.64264 14.182 6.79264C14.182 7.70931 13.4047 8.45931 12.4547 8.45931C11.5047 8.45931 10.7274 7.70931 10.7274 6.79264C10.7274 6.64264 10.7447 6.49264 10.7879 6.35931L8.58559 4.23431C8.44741 4.27598 8.29195 4.29264 8.1365 4.29264C7.98104 4.29264 7.82559 4.27598 7.68741 4.23431L3.75786 8.03431C3.80104 8.16764 3.81831 8.30931 3.81831 8.45931C3.81831 9.37598 3.04104 10.126 2.09104 10.126C1.14104 10.126 0.36377 9.37598 0.36377 8.45931C0.36377 7.54264 1.14104 6.79264 2.09104 6.79264C2.2465 6.79264 2.39331 6.80931 2.5315 6.85098L6.46968 3.05931C6.4265 2.92598 6.40922 2.77598 6.40922 2.62598C6.40922 1.70931 7.1865 0.95931 8.1365 0.95931C9.0865 0.95931 9.86377 1.70931 9.86377 2.62598C9.86377 2.77598 9.8465 2.92598 9.80331 3.05931L12.0056 5.18431C12.1438 5.14264 12.2992 5.12598 12.4547 5.12598C12.6101 5.12598 12.7656 5.14264 12.9038 5.18431L15.9697 2.21764C15.9265 2.08431 15.9092 1.94264 15.9092 1.79264C15.9092 0.875977 16.6865 0.125977 17.6365 0.125977C18.5865 0.125977 19.3638 0.875977 19.3638 1.79264Z" fill="#008BE2"/>
</svg>
