<svg xmlns="http://www.w3.org/2000/svg" width="16" height="17" viewBox="0 0 16 17" fill="none">
  <path d="M1.53412 16.7027C1.36629 16.7026 1.20022 16.6704 1.04558 16.608C0.890934 16.5455 0.750899 16.4542 0.633709 16.3392C0.511111 16.2282 0.413194 16.0945 0.346065 15.9464C0.278935 15.7982 0.244003 15.6385 0.243164 15.477V2.73202C0.244003 2.5705 0.278935 2.4108 0.346065 2.26262C0.413194 2.11443 0.511111 1.98076 0.633709 1.8698C0.750899 1.75478 0.890934 1.66343 1.04558 1.60099C1.20022 1.53856 1.36629 1.50633 1.53412 1.50627H2.9011V0.270264H4.28979V1.50627H11.5802V0.270264H12.9689V1.50627H14.3683C14.7061 1.51162 15.0285 1.64248 15.2674 1.87119C15.5063 2.09991 15.643 2.40861 15.6486 2.73202V15.477C15.643 15.8004 15.5063 16.1091 15.2674 16.3378C15.0285 16.5665 14.7061 16.6973 14.3683 16.7027H1.53412ZM1.53412 15.477H14.4118V6.6376H1.53412V15.477ZM1.53412 5.41186H14.4118V2.73202H1.53412V5.41186ZM7.96759 10.1277C7.85541 10.1312 7.74362 10.1127 7.63915 10.0734C7.53468 10.0341 7.43967 9.97473 7.35998 9.89906C7.27918 9.82134 7.21545 9.7289 7.17259 9.6272C7.12973 9.52551 7.10864 9.41669 7.11048 9.30704C7.11287 9.1444 7.165 8.98598 7.26053 8.85146C7.35605 8.71695 7.4908 8.61225 7.64789 8.55032C7.80499 8.48839 7.9775 8.47191 8.14425 8.50303C8.311 8.53414 8.46461 8.61142 8.58592 8.7253C8.66496 8.8016 8.72697 8.89257 8.76801 8.99259C8.80905 9.09261 8.82822 9.19964 8.82456 9.30704C8.82844 9.41603 8.80929 9.52458 8.76828 9.62632C8.72726 9.72805 8.66527 9.82083 8.58592 9.89906C8.50458 9.97553 8.4078 10.0352 8.30145 10.0745C8.1951 10.1138 8.08149 10.132 7.96759 10.1277ZM4.53929 10.1277C4.42703 10.1318 4.31515 10.1136 4.21059 10.0743C4.10603 10.035 4.01099 9.97524 3.93169 9.89906C3.84878 9.82284 3.78373 9.73078 3.74072 9.62873C3.69771 9.52667 3.67774 9.41701 3.68219 9.30704C3.6779 9.19864 3.69794 9.09065 3.74099 8.99031C3.78403 8.88996 3.84906 8.79953 3.93169 8.7253C4.01006 8.64724 4.10466 8.58575 4.20927 8.54462C4.31387 8.50348 4.42624 8.48363 4.53929 8.48642C4.7666 8.48642 4.98457 8.57293 5.14531 8.72682C5.30604 8.88071 5.3964 9.08941 5.3964 9.30704C5.39824 9.41669 5.37701 9.52551 5.33416 9.6272C5.2913 9.7289 5.22756 9.82134 5.14676 9.89906C5.06707 9.97473 4.97219 10.0341 4.86773 10.0734C4.76326 10.1127 4.65147 10.1312 4.53929 10.1277ZM11.4066 10.1277C11.2924 10.1337 11.1782 10.1166 11.0714 10.0775C10.9646 10.0383 10.8676 9.97801 10.7867 9.90058C10.7058 9.82315 10.6429 9.73037 10.6021 9.62809C10.5612 9.52581 10.5434 9.41638 10.5496 9.30704C10.546 9.19964 10.5651 9.09261 10.6062 8.99259C10.6472 8.89257 10.7092 8.8016 10.7883 8.7253C10.8695 8.64794 10.966 8.58704 11.0722 8.54601C11.1784 8.50498 11.2921 8.48466 11.4066 8.48642C11.6339 8.48642 11.8519 8.57293 12.0126 8.72682C12.1734 8.88071 12.2637 9.08941 12.2637 9.30704C12.2656 9.41669 12.2445 9.52551 12.2016 9.6272C12.1587 9.7289 12.095 9.82134 12.0142 9.89906C11.9345 9.97473 11.8395 10.0341 11.735 10.0734C11.6306 10.1127 11.5188 10.1312 11.4066 10.1277ZM7.96759 13.4203C7.74028 13.4203 7.52217 13.3339 7.36144 13.18C7.20071 13.0261 7.11048 12.8175 7.11048 12.5998C7.10864 12.4902 7.12973 12.3812 7.17259 12.2795C7.21545 12.1778 7.27918 12.0854 7.35998 12.0077C7.52772 11.8617 7.74634 11.7808 7.97302 11.7808C8.1997 11.7808 8.41817 11.8617 8.58592 12.0077C8.66527 12.0859 8.72726 12.1787 8.76828 12.2804C8.80929 12.3822 8.82844 12.4908 8.82456 12.5998C8.82822 12.7072 8.80905 12.8141 8.76801 12.9141C8.72697 13.0142 8.66496 13.1051 8.58592 13.1814C8.50511 13.2593 8.40868 13.3207 8.30238 13.3617C8.19608 13.4028 8.08219 13.4227 7.96759 13.4203ZM4.53929 13.4203C4.42624 13.4231 4.31387 13.4034 4.20927 13.3622C4.10466 13.3211 4.01006 13.2595 3.93169 13.1814C3.84906 13.1072 3.78403 13.0169 3.74099 12.9166C3.69794 12.8162 3.6779 12.7082 3.68219 12.5998C3.67774 12.4899 3.69771 12.3802 3.74072 12.2781C3.78373 12.1761 3.84878 12.0839 3.93169 12.0077C4.01099 11.9315 4.10603 11.8719 4.21059 11.8326C4.31515 11.7932 4.42703 11.7751 4.53929 11.7792C4.65147 11.7757 4.76326 11.7942 4.86773 11.8335C4.97219 11.8728 5.06707 11.932 5.14676 12.0077C5.22756 12.0854 5.2913 12.1778 5.33416 12.2795C5.37701 12.3812 5.39824 12.4902 5.3964 12.5998C5.3964 12.8175 5.30604 13.0261 5.14531 13.18C4.98457 13.3339 4.7666 13.4203 4.53929 13.4203ZM11.4066 13.4203C11.2921 13.4221 11.1784 13.4019 11.0722 13.3609C10.966 13.3198 10.8695 13.2588 10.7883 13.1814C10.7092 13.1051 10.6472 13.0142 10.6062 12.9141C10.5651 12.8141 10.546 12.7072 10.5496 12.5998C10.5434 12.4905 10.5612 12.381 10.6021 12.2788C10.6429 12.1765 10.7058 12.0836 10.7867 12.0062C10.8676 11.9287 10.9646 11.8685 11.0714 11.8294C11.1782 11.7903 11.2924 11.7732 11.4066 11.7792C11.5188 11.7757 11.6306 11.7942 11.735 11.8335C11.8395 11.8728 11.9345 11.932 12.0142 12.0077C12.095 12.0854 12.1587 12.1778 12.2016 12.2795C12.2445 12.3812 12.2656 12.4902 12.2637 12.5998C12.2637 12.8175 12.1734 13.0261 12.0126 13.18C11.8519 13.3339 11.6339 13.4203 11.4066 13.4203Z" fill="#008BE2"/>
</svg>