<svg width="38" height="38" viewBox="0 0 38 38" fill="none" xmlns="http://www.w3.org/2000/svg">
<path d="M12.5883 26.7027C12.4205 26.7026 12.2544 26.6704 12.0998 26.608C11.9451 26.5455 11.8051 26.4542 11.6879 26.3392C11.5653 26.2282 11.4674 26.0945 11.4003 25.9464C11.3331 25.7982 11.2982 25.6385 11.2974 25.477V12.732C11.2982 12.5705 11.3331 12.4108 11.4003 12.2626C11.4674 12.1144 11.5653 11.9808 11.6879 11.8698C11.8051 11.7548 11.9451 11.6634 12.0998 11.601C12.2544 11.5386 12.4205 11.5063 12.5883 11.5063H13.9553V10.2703H15.344V11.5063H22.6344V10.2703H24.0231V11.5063H25.4225C25.7603 11.5116 26.0827 11.6425 26.3216 11.8712C26.5605 12.0999 26.6972 12.4086 26.7028 12.732V25.477C26.6972 25.8004 26.5605 26.1091 26.3216 26.3378C26.0827 26.5665 25.7603 26.6973 25.4225 26.7027H12.5883ZM12.5883 25.477H25.466V16.6376H12.5883V25.477ZM12.5883 15.4119H25.466V12.732H12.5883V15.4119ZM19.0218 20.1277C18.9096 20.1312 18.7978 20.1127 18.6934 20.0734C18.5889 20.0341 18.4939 19.9747 18.4142 19.8991C18.3334 19.8213 18.2696 19.7289 18.2268 19.6272C18.1839 19.5255 18.1628 19.4167 18.1647 19.307C18.1671 19.1444 18.2192 18.986 18.3147 18.8515C18.4102 18.717 18.545 18.6123 18.7021 18.5503C18.8592 18.4884 19.0317 18.4719 19.1985 18.503C19.3652 18.5341 19.5188 18.6114 19.6401 18.7253C19.7192 18.8016 19.7812 18.8926 19.8222 18.9926C19.8633 19.0926 19.8824 19.1996 19.8788 19.307C19.8826 19.416 19.8635 19.5246 19.8225 19.6263C19.7815 19.7281 19.7195 19.8208 19.6401 19.8991C19.5588 19.9755 19.462 20.0352 19.3556 20.0745C19.2493 20.1138 19.1357 20.132 19.0218 20.1277ZM15.5935 20.1277C15.4812 20.1318 15.3694 20.1136 15.2648 20.0743C15.1602 20.035 15.0652 19.9752 14.9859 19.8991C14.903 19.8228 14.8379 19.7308 14.7949 19.6287C14.7519 19.5267 14.7319 19.417 14.7364 19.307C14.7321 19.1986 14.7521 19.0907 14.7952 18.9903C14.8382 18.89 14.9033 18.7995 14.9859 18.7253C15.0643 18.6472 15.1589 18.5858 15.2635 18.5446C15.3681 18.5035 15.4804 18.4836 15.5935 18.4864C15.8208 18.4864 16.0388 18.5729 16.1995 18.7268C16.3602 18.8807 16.4506 19.0894 16.4506 19.307C16.4524 19.4167 16.4312 19.5255 16.3884 19.6272C16.3455 19.7289 16.2818 19.8213 16.201 19.8991C16.1213 19.9747 16.0264 20.0341 15.9219 20.0734C15.8175 20.1127 15.7057 20.1312 15.5935 20.1277ZM22.4608 20.1277C22.3466 20.1337 22.2324 20.1166 22.1256 20.0775C22.0188 20.0383 21.9218 19.978 21.8409 19.9006C21.76 19.8231 21.6971 19.7304 21.6563 19.6281C21.6154 19.5258 21.5976 19.4164 21.6038 19.307C21.6002 19.1996 21.6193 19.0926 21.6604 18.9926C21.7014 18.8926 21.7634 18.8016 21.8425 18.7253C21.9236 18.6479 22.0202 18.587 22.1264 18.546C22.2326 18.505 22.3463 18.4847 22.4608 18.4864C22.6881 18.4864 22.9061 18.5729 23.0668 18.7268C23.2276 18.8807 23.3179 19.0894 23.3179 19.307C23.3197 19.4167 23.2987 19.5255 23.2558 19.6272C23.2129 19.7289 23.1492 19.8213 23.0684 19.8991C22.9887 19.9747 22.8937 20.0341 22.7892 20.0734C22.6848 20.1127 22.573 20.1312 22.4608 20.1277ZM19.0218 23.4203C18.7945 23.4203 18.5764 23.3339 18.4156 23.18C18.2549 23.0261 18.1647 22.8175 18.1647 22.5998C18.1628 22.4902 18.1839 22.3812 18.2268 22.2795C18.2696 22.1778 18.3334 22.0854 18.4142 22.0077C18.5819 21.8617 18.8005 21.7808 19.0272 21.7808C19.2539 21.7808 19.4724 21.8617 19.6401 22.0077C19.7195 22.0859 19.7815 22.1787 19.8225 22.2804C19.8635 22.3822 19.8826 22.4908 19.8788 22.5998C19.8824 22.7072 19.8633 22.8141 19.8222 22.9141C19.7812 23.0142 19.7192 23.1051 19.6401 23.1814C19.5593 23.2593 19.4629 23.3207 19.3566 23.3617C19.2503 23.4028 19.1364 23.4227 19.0218 23.4203ZM15.5935 23.4203C15.4804 23.4231 15.3681 23.4034 15.2635 23.3622C15.1589 23.3211 15.0643 23.2595 14.9859 23.1814C14.9033 23.1072 14.8382 23.0169 14.7952 22.9166C14.7521 22.8162 14.7321 22.7082 14.7364 22.5998C14.7319 22.4899 14.7519 22.3802 14.7949 22.2781C14.8379 22.1761 14.903 22.0839 14.9859 22.0077C15.0652 21.9315 15.1602 21.8719 15.2648 21.8326C15.3694 21.7932 15.4812 21.7751 15.5935 21.7792C15.7057 21.7757 15.8175 21.7942 15.9219 21.8335C16.0264 21.8728 16.1213 21.932 16.201 22.0077C16.2818 22.0854 16.3455 22.1778 16.3884 22.2795C16.4312 22.3812 16.4524 22.4902 16.4506 22.5998C16.4506 22.8175 16.3602 23.0261 16.1995 23.18C16.0388 23.3339 15.8208 23.4203 15.5935 23.4203ZM22.4608 23.4203C22.3463 23.4221 22.2326 23.4019 22.1264 23.3609C22.0202 23.3198 21.9236 23.2588 21.8425 23.1814C21.7634 23.1051 21.7014 23.0142 21.6604 22.9141C21.6193 22.8141 21.6002 22.7072 21.6038 22.5998C21.5976 22.4905 21.6154 22.381 21.6563 22.2788C21.6971 22.1765 21.76 22.0836 21.8409 22.0062C21.9218 21.9287 22.0188 21.8685 22.1256 21.8294C22.2324 21.7903 22.3466 21.7732 22.4608 21.7792C22.573 21.7757 22.6848 21.7942 22.7892 21.8335C22.8937 21.8728 22.9887 21.932 23.0684 22.0077C23.1492 22.0854 23.2129 22.1778 23.2558 22.2795C23.2987 22.3812 23.3197 22.4902 23.3179 22.5998C23.3179 22.8175 23.2276 23.0261 23.0668 23.18C22.9061 23.3339 22.6881 23.4203 22.4608 23.4203Z" fill="#008BE2"/>
<rect x="0.5" y="0.5" width="37" height="37" rx="7.5" stroke="#A9C9E5"/>
</svg>
