<svg xmlns="http://www.w3.org/2000/svg" width="12" height="15" viewBox="0 0 12 15" fill="none">
    <path d="M1.2 2.14062H3.2V1.73047C3.2 1.05199 3.73832 0.5 4.4 0.5H7.6C8.26168 0.5 8.8 1.05199 8.8 1.73047V2.14062H10.8C11.4617 2.14062 12 2.69261 12 3.37109C12 3.916 11.6527 4.37901 11.1732 4.54034L10.4597 13.3717C10.4083 14.0044 9.88307 14.5 9.26389 14.5H2.73611C2.11691 14.5 1.59163 14.0044 1.54021 13.3715L0.826799 4.54031C0.347333 4.37901 0 3.916 0 3.37109C0 2.69261 0.53832 2.14062 1.2 2.14062ZM8 1.73047C8 1.50431 7.82056 1.32031 7.6 1.32031H4.4C4.17944 1.32031 4 1.50431 4 1.73047V2.14062H8V1.73047ZM2.33749 13.3036C2.35464 13.5145 2.52971 13.6797 2.73611 13.6797H9.26389C9.47027 13.6797 9.64536 13.5145 9.66245 13.3038L10.3655 4.60156H1.63451L2.33749 13.3036ZM1.2 3.78125H10.8C11.0206 3.78125 11.2 3.59725 11.2 3.37109C11.2 3.14493 11.0206 2.96094 10.8 2.96094H1.2C0.97944 2.96094 0.8 3.14493 0.8 3.37109C0.8 3.59725 0.97944 3.78125 1.2 3.78125Z" fill="#008BE2"/>
    <path d="M7.60077 12.4238L8.00077 5.80663C8.01445 5.58052 8.20531 5.40856 8.42475 5.42264C8.64525 5.43667 8.81291 5.6313 8.79925 5.85738L8.39925 12.4746C8.38611 12.6921 8.21 12.8594 8.0004 12.8594C7.76875 12.8594 7.58656 12.6593 7.60077 12.4238Z" fill="#008BE2"/>
    <path d="M6 5.42188C6.22091 5.42188 6.4 5.60552 6.4 5.83203V12.4492C6.4 12.6757 6.22091 12.8594 6 12.8594C5.77909 12.8594 5.6 12.6757 5.6 12.4492V5.83203C5.6 5.60552 5.77909 5.42188 6 5.42188Z" fill="#008BE2"/>
    <path d="M3.57528 5.42267C3.79528 5.40864 3.9856 5.58055 3.99925 5.80666L4.39925 12.4238C4.41288 12.6499 4.24523 12.8446 4.02475 12.8586C3.80413 12.8726 3.61443 12.7006 3.60077 12.4746L3.20077 5.85741C3.18712 5.6313 3.35477 5.43667 3.57528 5.42267Z" fill="#008BE2"/>
</svg>