<svg width="17" height="18" viewBox="0 0 17 18" fill="none" xmlns="http://www.w3.org/2000/svg">
<path d="M16.336 0.5H0.664098C0.297288 0.5 0 0.797272 0 1.16406C0 3.01333 0.792767 4.7788 2.17505 6.00745L5.08346 8.59237C5.58776 9.04062 5.87701 9.68471 5.87701 10.3595V16.8352C5.87701 17.3644 6.46847 17.6816 6.90934 17.3876L10.8274 14.7758C11.0121 14.6526 11.1231 14.4453 11.1231 14.2233V10.3595C11.1231 9.68471 11.4124 9.04062 11.9167 8.59237L14.8249 6.00745C16.2072 4.7788 17 3.01333 17 1.16406C17 0.797272 16.7027 0.5 16.336 0.5ZM13.9426 5.01473L11.0343 7.59978C10.2467 8.2999 9.79493 9.30572 9.79493 10.3594V13.8679L7.20507 15.5944V10.3595C7.20507 9.30572 6.75331 8.2999 5.96573 7.59978L3.05744 5.01486C2.12537 4.1862 1.53041 3.05081 1.37113 1.828H15.6289C15.4696 3.05081 14.8748 4.1862 13.9426 5.01473Z" fill="#008BE2"/>
</svg>
