<svg width="22" height="21" viewBox="0 0 22 21" fill="none" xmlns="http://www.w3.org/2000/svg">
<g id="Group 177285">
<g id="Group 2608747">
<path id="Vector" d="M1.59649 2.84254C1.59649 3.00405 1.72251 3.14402 1.90314 3.18709L3.5246 3.5783V5.53433C3.5246 5.69584 3.65061 5.8394 3.83544 5.87888C3.95306 5.90759 4.07488 5.92554 4.1925 5.95066V6.73307C4.1841 6.73307 4.1799 6.73307 4.1715 6.73307C3.12553 6.73307 2.2728 7.45806 2.2728 8.35174C2.2728 9.24541 3.12553 9.9704 4.1715 9.9704C4.29332 9.9704 4.41513 9.95604 4.53695 9.93451C4.93182 10.7492 5.64593 11.4276 6.54487 11.8511V11.8977C6.54487 12.5258 5.94417 13.0355 5.20906 13.0355C4.08748 13.0355 3.02892 13.4087 2.23079 14.0906C1.43687 14.7726 1 15.677 1 16.6389V18.4585C1 18.6559 1.18903 18.8174 1.42007 18.8174H16.0131C16.2442 18.8174 16.4332 18.6559 16.4332 18.4585V16.6317C16.4332 14.6469 14.5429 13.0319 12.22 13.0319C11.4848 13.0319 10.8841 12.5222 10.8841 11.8941V11.8475C11.7831 11.424 12.4972 10.7492 12.8921 9.93092C13.0139 9.95245 13.1357 9.96681 13.2575 9.96681C14.2993 9.96681 15.152 9.24182 15.152 8.34815C15.152 7.45447 14.3035 6.72948 13.2575 6.72948C13.2491 6.72948 13.2407 6.72948 13.2323 6.72948V5.94707C13.3499 5.92195 13.4718 5.904 13.5894 5.87529C13.7742 5.83222 13.9002 5.69225 13.9002 5.53074V3.57471L14.984 3.31271V5.83581C14.984 6.03321 15.173 6.19472 15.4041 6.19472C15.6351 6.19472 15.8241 6.03321 15.8241 5.83581V2.83536C15.8241 2.7887 15.8115 2.74564 15.7947 2.70616C15.7905 2.6918 15.7779 2.68103 15.7737 2.67027C15.7569 2.64514 15.7401 2.62002 15.7191 2.59848C15.7065 2.58772 15.6939 2.57695 15.6813 2.56618C15.6561 2.54824 15.6309 2.53388 15.6015 2.51953C15.5847 2.51235 15.5679 2.50517 15.5511 2.49799C15.5427 2.4944 15.5343 2.49081 15.5259 2.48722L8.82162 0.886506C8.74601 0.868561 8.6662 0.868561 8.59479 0.886506L1.89894 2.49799C1.71831 2.54106 1.59649 2.68103 1.59649 2.84254ZM4.1631 9.249C3.5792 9.249 3.10453 8.84703 3.10453 8.34815C3.10453 7.84927 3.5792 7.4473 4.1631 7.4473H4.1841V8.45582C4.1841 8.72141 4.2177 8.98341 4.27651 9.23464C4.23871 9.24182 4.2051 9.249 4.1631 9.249ZM15.5847 16.6317V18.0996H13.7616V17.1736C13.7616 16.9762 13.5726 16.8147 13.3415 16.8147C13.1105 16.8147 12.9215 16.9762 12.9215 17.1736V18.0996H4.49495V17.1736C4.49495 16.9762 4.30592 16.8147 4.07488 16.8147C3.84385 16.8147 3.65482 16.9762 3.65482 17.1736V18.0996H1.83173V16.6317C1.83173 15.8636 2.18038 15.1386 2.81888 14.5931C3.45738 14.0512 4.30592 13.7497 5.20486 13.7497C5.40649 13.7497 5.59552 13.7174 5.78035 13.6743L8.42676 15.7237C8.45197 15.7416 8.47717 15.7524 8.50658 15.7667C8.52338 15.7739 8.53598 15.7847 8.55278 15.7918C8.60319 15.8098 8.6578 15.8206 8.71241 15.8206C8.76702 15.8206 8.81742 15.8098 8.87203 15.7918C8.88883 15.7847 8.90144 15.7739 8.91824 15.7667C8.94344 15.7524 8.97285 15.7452 8.99805 15.7272L11.6445 13.6779C11.8293 13.721 12.0183 13.7533 12.22 13.7533C14.0724 13.7497 15.5847 15.0417 15.5847 16.6317ZM10.8379 13.3226L8.70821 14.9735L6.57427 13.319C6.99014 13.0283 7.27158 12.6155 7.34719 12.1418C7.77566 12.2566 8.23353 12.3212 8.70401 12.3212C9.17868 12.3212 9.63235 12.2566 10.0608 12.1418C10.1406 12.6191 10.4263 13.0319 10.8379 13.3226ZM13.2533 7.45088C13.833 7.45088 14.3077 7.85286 14.3077 8.35174C14.3077 8.85062 13.8372 9.25259 13.2533 9.25259C13.2155 9.25259 13.1777 9.24541 13.1357 9.24182C13.1945 8.99059 13.2281 8.73218 13.2281 8.463V7.45447C13.2365 7.45088 13.2449 7.45088 13.2533 7.45088ZM12.388 8.45941C12.388 10.1929 10.7371 11.6034 8.70821 11.6034C6.67929 11.6034 5.02843 10.1929 5.02843 8.45941V6.12293C6.24242 6.33469 7.47741 6.43877 8.70821 6.43877C9.9432 6.43877 11.174 6.33469 12.388 6.12293V8.45941ZM13.0517 5.25797C10.2036 5.87529 7.20857 5.87529 4.36053 5.25797V3.77928L8.59479 4.79857C8.6326 4.80575 8.6704 4.81293 8.70821 4.81293C8.74601 4.81293 8.78382 4.80934 8.82162 4.79857L13.0517 3.77928V5.25797ZM8.70821 1.60432L13.8498 2.84254L8.70821 4.08076L3.5624 2.84254L8.70821 1.60432Z" fill="#008BE2" stroke="#008BE2" stroke-width="0.25"/>
<circle id="Ellipse 80" cx="16.074" cy="16.5119" r="4.30686" fill="white"/>
<g id="GD">
<path d="M15.3316 16.3638H16.9961V18.748C16.7356 18.8342 16.4728 18.8978 16.2077 18.9387C15.9426 18.9796 15.6416 19 15.3047 19C14.806 19 14.386 18.9001 14.0445 18.7003C13.7031 18.4959 13.4425 18.2075 13.2628 17.8352C13.0876 17.4582 13 17.0132 13 16.5C13 15.9914 13.0988 15.5509 13.2965 15.1785C13.4942 14.8061 13.7772 14.5177 14.1456 14.3134C14.5185 14.1045 14.9677 14 15.4934 14C15.7629 14 16.0168 14.025 16.2549 14.0749C16.4975 14.1249 16.7221 14.1953 16.9288 14.2861L16.6996 14.8174C16.5289 14.7402 16.3357 14.6744 16.1201 14.6199C15.9089 14.5654 15.6888 14.5381 15.4597 14.5381C14.8846 14.5381 14.4354 14.713 14.1119 15.0627C13.7929 15.4124 13.6335 15.8915 13.6335 16.5C13.6335 16.886 13.6941 17.2289 13.8154 17.5286C13.9412 17.8238 14.1366 18.0554 14.4017 18.2234C14.6667 18.3869 15.0149 18.4687 15.4462 18.4687C15.6574 18.4687 15.8371 18.4573 15.9853 18.4346C16.1336 18.4119 16.2683 18.3847 16.3896 18.3529V16.9087H15.3316V16.3638Z" fill="#00465F"/>
<path d="M22 16.4523C22 17.2743 21.7776 17.8942 21.3329 18.312C20.8926 18.7252 20.2771 18.9319 19.4864 18.9319H18.1454V14.0681H19.6279C20.1131 14.0681 20.5332 14.1589 20.8881 14.3406C21.243 14.5223 21.517 14.7902 21.7102 15.1444C21.9034 15.4941 22 15.9301 22 16.4523ZM21.3598 16.4728C21.3598 15.8233 21.2003 15.3488 20.8814 15.049C20.5669 14.7448 20.1199 14.5926 19.5403 14.5926H18.7519V18.4074H19.4055C20.7084 18.4074 21.3598 17.7625 21.3598 16.4728Z" fill="#00465F"/>
</g>
</g>
</g>
</svg>
