<svg width="39" height="50" viewBox="0 0 39 50" fill="none" xmlns="http://www.w3.org/2000/svg">
<path d="M38.0859 13.1836L27.832 10.2539L24.9023 0H4.39453C1.96748 0 0 1.96748 0 4.39453V45.6055C0 48.0325 1.96748 50 4.39453 50H33.6914C36.1185 50 38.0859 48.0325 38.0859 45.6055V13.1836Z" fill="#4086F4"/>
<path d="M38.0859 13.1836H27.832C26.2207 13.1836 24.9023 11.8652 24.9023 10.2539V0C25.2832 0 25.6641 0.146484 25.9276 0.439551L37.6464 12.1583C37.9395 12.4219 38.0859 12.8027 38.0859 13.1836Z" fill="#80AEF8"/>
<path d="M27.832 23.5352H10.2539C9.44424 23.5352 8.78906 22.88 8.78906 22.0703C8.78906 21.2606 9.44424 20.6055 10.2539 20.6055H27.832C28.6417 20.6055 29.2969 21.2606 29.2969 22.0703C29.2969 22.88 28.6417 23.5352 27.832 23.5352Z" fill="#FFF5F5"/>
<path d="M27.832 29.3945H10.2539C9.44424 29.3945 8.78906 28.7394 8.78906 27.9297C8.78906 27.12 9.44424 26.4648 10.2539 26.4648H27.832C28.6417 26.4648 29.2969 27.12 29.2969 27.9297C29.2969 28.7394 28.6417 29.3945 27.832 29.3945Z" fill="#FFF5F5"/>
<path d="M27.832 35.2539H10.2539C9.44424 35.2539 8.78906 34.5987 8.78906 33.7891C8.78906 32.9794 9.44424 32.3242 10.2539 32.3242H27.832C28.6417 32.3242 29.2969 32.9794 29.2969 33.7891C29.2969 34.5987 28.6417 35.2539 27.832 35.2539Z" fill="#FFF5F5"/>
<path d="M21.9727 41.1133H10.2539C9.44424 41.1133 8.78906 40.4581 8.78906 39.6484C8.78906 38.8388 9.44424 38.1836 10.2539 38.1836H21.9727C22.7823 38.1836 23.4375 38.8388 23.4375 39.6484C23.4375 40.4581 22.7823 41.1133 21.9727 41.1133Z" fill="#FFF5F5"/>
</svg>
