<svg width="38" height="38" viewBox="0 0 38 38" fill="none" xmlns="http://www.w3.org/2000/svg">
<g clip-path="url(#clip0_11116_66042)">
<path d="M27 12.3408C27 11.0501 26.0117 10 24.7969 10H14.7969C13.5821 10 12.5938 11.0501 12.5938 12.3408V22.8144L11.7472 22.1502C11.6049 22.0385 11.4155 22.0215 11.2576 22.1062C11.0996 22.1908 11 22.3628 11 22.5508V24.6592C11 25.8566 11.8507 26.8462 12.9436 26.9832C12.9817 26.9938 13.0213 27 13.0625 27H21.3438C21.3483 27 21.3527 26.9999 21.3572 26.9998C22.5587 26.9832 23.5312 25.9396 23.5312 24.6592V14.8394L23.5446 14.8498C23.7101 14.9797 23.936 14.9797 24.1016 14.8498L25.1772 14.0059L26.2528 14.8498C26.3366 14.9156 26.4342 14.9473 26.5309 14.9473C26.6746 14.9473 26.8164 14.8773 26.9083 14.7451C26.9703 14.6559 27 14.5521 26.9998 14.4492C26.9996 14.356 27 14.0157 27 13.918V12.3408ZM21.4122 26.0006C21.3844 26.0026 21.3564 26.0039 21.3281 26.0039C20.6302 26.0039 20.0625 25.4007 20.0625 24.6592V22.5508C20.0625 22.3628 19.9629 22.1909 19.8049 22.1062C19.647 22.0214 19.4577 22.0384 19.3153 22.1501L18.2395 22.9942L17.1636 22.1501C16.9981 22.0203 16.7722 22.0203 16.6067 22.1501L15.5311 22.9941L15.0393 22.6083L14.4554 22.1501C14.2898 22.0203 14.064 22.0203 13.8984 22.1501L13.5312 22.4383V12.3408C13.5312 11.5993 14.099 10.9961 14.7969 10.9961H22.9952C22.7427 11.3769 22.5938 11.8406 22.5938 12.3408V24.6592C22.5938 25.3706 22.071 25.9544 21.4122 26.0006ZM13.2031 26.0039C12.5052 26.0039 11.9375 25.4007 11.9375 24.6592V23.5377L12.5443 24.0139C12.7099 24.1438 12.9357 24.1438 13.1013 24.0139L14.1769 23.1699L15.2526 24.0139C15.4181 24.1438 15.644 24.1438 15.8095 24.0139L16.8852 23.1699L17.961 24.0139C18.1265 24.1438 18.3523 24.1438 18.5179 24.0139L19.125 23.5376V24.6592C19.125 25.1592 19.2734 25.6232 19.5257 26.0039H13.2031ZM23.8231 13.8301L23.5312 13.6011V12.9937V12.3408C23.5312 11.5993 24.099 10.9961 24.7969 10.9961C25.4948 10.9961 26.0625 11.5993 26.0625 12.3408V13.4623L25.4557 12.9861C25.2901 12.8562 25.0643 12.8562 24.8987 12.9861L24.5766 13.2389L23.8231 13.8301Z" fill="#008BE2"/>
<path d="M14.7812 14.416C14.7812 14.6911 14.9911 14.9141 15.25 14.9141H20.875C21.1339 14.9141 21.3438 14.6911 21.3438 14.416C21.3438 14.141 21.1339 13.918 20.875 13.918H15.25C14.9911 13.918 14.7812 14.141 14.7812 14.416Z" fill="#008BE2"/>
<path d="M14.7812 16.4082C14.7812 16.6833 14.9911 16.9062 15.25 16.9062H20.875C21.1339 16.9062 21.3438 16.6833 21.3438 16.4082C21.3438 16.1331 21.1339 15.9102 20.875 15.9102H15.25C14.9911 15.9102 14.7812 16.1331 14.7812 16.4082Z" fill="#008BE2"/>
<path d="M14.7812 18.4004C14.7812 18.6754 14.9911 18.8984 15.25 18.8984H20.875C21.1339 18.8984 21.3438 18.6754 21.3438 18.4004C21.3438 18.1253 21.1339 17.9023 20.875 17.9023H15.25C14.9911 17.9023 14.7812 18.1253 14.7812 18.4004Z" fill="#008BE2"/>
<path d="M14.7812 20.3926C14.7812 20.6676 14.9911 20.8906 15.25 20.8906H20.875C21.1339 20.8906 21.3438 20.6676 21.3438 20.3926C21.3438 20.1175 21.1339 19.8945 20.875 19.8945H15.25C14.9911 19.8945 14.7812 20.1175 14.7812 20.3926Z" fill="#008BE2"/>
</g>
<rect x="0.5" y="0.5" width="37" height="37" rx="7.5" stroke="#A9C9E5"/>
<defs>
<clipPath id="clip0_11116_66042">
<rect width="16" height="17" fill="white" transform="translate(11 10)"/>
</clipPath>
</defs>
</svg>
