<svg width="17" height="16" viewBox="0 0 17 16" fill="none" xmlns="http://www.w3.org/2000/svg">
<path d="M15.7729 14.25C16.1181 14.25 16.3979 13.9702 16.3979 13.625V7.5C16.3979 6.1215 15.2764 5 13.8979 5C13.8979 3.6215 12.7764 2.5 11.3979 2.5C11.3979 1.1215 10.2764 0 8.89795 0H2.89795C1.51945 0 0.397949 1.1215 0.397949 2.5V8.5C0.397949 9.8785 1.51945 11 2.89795 11C2.89795 12.3785 4.01945 13.5 5.39795 13.5C5.39795 14.8785 6.51945 16 7.89795 16H13.8979C15.2764 16 16.3979 14.8785 16.3979 13.5C16.3979 13.1548 16.1181 12.875 15.7729 12.875C15.4278 12.875 15.1479 13.1548 15.1479 13.5C15.1479 14.1892 14.5872 14.75 13.8979 14.75H7.89795C7.2087 14.75 6.64795 14.1892 6.64795 13.5H11.3979C12.7764 13.5 13.8979 12.3785 13.8979 11V6.25C14.5872 6.25 15.1479 6.81075 15.1479 7.5V13.625C15.1479 13.9702 15.4278 14.25 15.7729 14.25ZM2.89795 9.75C2.2087 9.75 1.64795 9.18925 1.64795 8.5V2.5C1.64795 1.81075 2.2087 1.25 2.89795 1.25H8.89795C9.5872 1.25 10.1479 1.81075 10.1479 2.5V8.5C10.1479 9.18925 9.5872 9.75 8.89795 9.75H2.89795ZM12.6479 11C12.6479 11.6892 12.0872 12.25 11.3979 12.25H5.39795C4.7087 12.25 4.14795 11.6892 4.14795 11H8.89795C10.2764 11 11.3979 9.8785 11.3979 8.5V3.75C12.0872 3.75 12.6479 4.31075 12.6479 5V11Z" fill="#008BE2"/>
</svg>
