<svg width="19" height="18" viewBox="0 0 19 18" fill="none" xmlns="http://www.w3.org/2000/svg">
<g id="Vector">
<path d="M8.39842 17.296C6.15415 17.296 3.90988 17.2959 1.66562 17.2956C0.995505 17.2953 0.800971 17.0958 0.813021 16.4306C0.864356 13.5966 3.09371 10.9678 5.92372 10.5787C7.20829 10.4021 8.52944 10.4791 9.83427 10.4638C12.6126 10.4311 15.5082 12.5111 15.9476 15.9426C16.0695 16.8951 16.1324 17.3327 14.784 17.3069C12.6562 17.2662 10.527 17.296 8.39842 17.296ZM2.1728 15.9782H14.6218C14.3866 13.9538 12.7257 12.1032 10.7419 11.8834C9.2727 11.7188 7.79068 11.7013 6.31796 11.831C4.15399 12.027 2.39524 13.8797 2.1728 15.9782Z" fill="#008BE2"/>
<path d="M8.41009 9.71435C7.44661 9.71732 6.50398 9.43424 5.70183 8.90105C4.89968 8.36786 4.27419 7.60858 3.90476 6.71961C3.53532 5.83064 3.4386 4.85206 3.62687 3.90808C3.81513 2.9641 4.2799 2.09727 4.96217 1.41765C5.64445 0.738019 6.51346 0.276232 7.45891 0.090895C8.40436 -0.094442 9.38362 0.00502774 10.2724 0.376685C11.1611 0.748343 11.9193 1.37543 12.4507 2.17834C12.9821 2.98125 13.2627 3.92379 13.2569 4.88631C13.256 7.53316 11.0708 9.70985 8.41009 9.71435ZM8.4075 1.38938C7.72218 1.3871 7.05153 1.58755 6.48008 1.96547C5.90863 2.34339 5.46196 2.88187 5.19637 3.51302C4.93079 4.14417 4.85818 4.83973 4.9877 5.51204C5.11723 6.18435 5.44308 6.80331 5.92418 7.29089C6.40529 7.77847 7.02011 8.11284 7.69115 8.25186C8.36219 8.39089 9.05941 8.32833 9.69492 8.07209C10.3304 7.81584 10.8758 7.37737 11.2622 6.81195C11.6487 6.24654 11.8589 5.57949 11.8665 4.89488C11.871 4.43747 11.785 3.98368 11.6133 3.5596C11.4417 3.13551 11.1879 2.74949 10.8665 2.42373C10.545 2.09797 10.1623 1.83889 9.74031 1.66138C9.31832 1.48387 8.86537 1.39143 8.4075 1.38938Z" fill="#008BE2"/>
<path d="M18.8125 14C18.8125 16.2091 17.0216 18 14.8125 18C12.6034 18 10.8125 16.2091 10.8125 14C10.8125 11.7909 12.6034 10 14.8125 10C17.0216 10 18.8125 11.7909 18.8125 14Z" fill="white"/>
<path d="M16.8125 13.6038V14.2604H12.8125V13.6038H16.8125ZM15.1852 12V16H14.4438V12H15.1852Z" fill="#008BE2"/>
</g>
</svg>
