<svg width="38" height="38" viewBox="0 0 38 38" fill="none" xmlns="http://www.w3.org/2000/svg">
<circle cx="19" cy="19" r="9.5" stroke="#008CE0"/>
<path fill-rule="evenodd" clip-rule="evenodd" d="M19.9637 17.2928L15.7577 17.3013L15.7599 18.3767L19.9658 18.3682C19.9146 18.6081 19.8298 18.7935 19.731 18.939C19.5666 19.1814 19.3377 19.3512 19.073 19.4705C18.5295 19.7155 17.9121 19.7167 17.6341 19.7172L16.2954 19.7199L15.0098 19.7225L19.6545 24.395L20.4058 23.6331L17.5824 20.7927L17.628 20.7926C17.637 20.7926 17.6466 20.7926 17.657 20.7926C17.9446 20.7925 18.7532 20.7923 19.5069 20.4526C19.907 20.2722 20.3094 19.9891 20.6093 19.5469C20.8303 19.2212 20.982 18.8294 21.0468 18.366L22.1481 18.3638L22.1459 17.2884L21.0447 17.2906C20.9779 16.8275 20.8247 16.4363 20.6024 16.1115C20.5632 16.0541 20.5222 15.9995 20.4798 15.9475L22.1426 15.9441L22.141 14.8687L17.7236 14.8776C17.6942 14.8776 17.668 14.8777 17.645 14.8777C17.6347 14.8778 17.625 14.8778 17.6161 14.8778L15.7531 14.8816L15.755 15.957L17.6439 15.9532C17.9297 15.9527 18.533 15.9563 19.0664 16.1941C19.3315 16.3123 19.5611 16.4812 19.7266 16.7229C19.8259 16.868 19.9115 17.0531 19.9637 17.2928Z" fill="#008CE0"/>
<rect x="0.5" y="0.5" width="37" height="37" rx="7.5" stroke="#A9C9E5"/>
</svg>
