<svg width="44" height="50" viewBox="0 0 44 50" fill="none" xmlns="http://www.w3.org/2000/svg">
<path d="M9.375 0C7.65625 0 6.25 1.40625 6.25 3.125V46.875C6.25 48.5938 7.65625 50 9.375 50H40.625C42.3438 50 43.75 48.5938 43.75 46.875V12.5L31.25 0H9.375Z" fill="#E2E5E7"/>
<path d="M34.375 12.5H43.75L31.25 0V9.375C31.25 11.0938 32.6562 12.5 34.375 12.5Z" fill="#B0B7BD"/>
<path d="M43.75 21.875L34.375 12.5H43.75V21.875Z" fill="#CAD1D8"/>
<path d="M37.5 40.625C37.5 41.4844 36.7969 42.1875 35.9375 42.1875H1.5625C0.703125 42.1875 0 41.4844 0 40.625V25C0 24.1406 0.703125 23.4375 1.5625 23.4375H35.9375C36.7969 23.4375 37.5 24.1406 37.5 25V40.625Z" fill="#F15642"/>
<path d="M6.81152 29.6047C6.81152 29.1922 7.13652 28.7422 7.65996 28.7422H10.5459C12.1709 28.7422 13.6334 29.8297 13.6334 31.9141C13.6334 33.8891 12.1709 34.9891 10.5459 34.9891H8.45996V36.6391C8.45996 37.1891 8.10996 37.5 7.65996 37.5C7.24746 37.5 6.81152 37.1891 6.81152 36.6391V29.6047ZM8.45996 30.3156V33.4281H10.5459C11.3834 33.4281 12.0459 32.6891 12.0459 31.9141C12.0459 31.0406 11.3834 30.3156 10.5459 30.3156H8.45996Z" fill="white"/>
<path d="M16.0803 37.5001C15.6678 37.5001 15.2178 37.275 15.2178 36.7266V29.6297C15.2178 29.1813 15.6678 28.8547 16.0803 28.8547H18.9412C24.6506 28.8547 24.5256 37.5001 19.0537 37.5001H16.0803ZM16.8678 30.3797V35.9766H18.9412C22.3146 35.9766 22.4646 30.3797 18.9412 30.3797H16.8678Z" fill="white"/>
<path d="M26.5504 30.4796V32.4655H29.7363C30.1863 32.4655 30.6363 32.9155 30.6363 33.3515C30.6363 33.764 30.1863 34.1015 29.7363 34.1015H26.5504V36.7249C26.5504 37.1624 26.2395 37.4983 25.802 37.4983C25.252 37.4983 24.916 37.1624 24.916 36.7249V29.628C24.916 29.1796 25.2535 28.853 25.802 28.853H30.1879C30.7379 28.853 31.0629 29.1796 31.0629 29.628C31.0629 30.028 30.7379 30.478 30.1879 30.478H26.5504V30.4796Z" fill="white"/>
<path d="M35.9375 42.1875H6.25V43.75H35.9375C36.7969 43.75 37.5 43.0469 37.5 42.1875V40.625C37.5 41.4844 36.7969 42.1875 35.9375 42.1875Z" fill="#CAD1D8"/>
</svg>
