<svg width="17" height="20" viewBox="0 0 17 20" fill="none" xmlns="http://www.w3.org/2000/svg">
<path id="Vector" d="M1.60077 2.79318C1.60077 2.95584 1.72769 3.09682 1.90961 3.1402L3.54269 3.53421V5.50426C3.54269 5.66692 3.66961 5.81151 3.85576 5.85128C3.97423 5.8802 4.09692 5.89827 4.21538 5.92357V6.71159C4.20692 6.71159 4.20269 6.71159 4.19423 6.71159C3.14077 6.71159 2.28192 7.44178 2.28192 8.34186C2.28192 9.24193 3.14077 9.97212 4.19423 9.97212C4.31692 9.97212 4.43961 9.95766 4.5623 9.93597C4.95999 10.7565 5.67922 11.4397 6.58461 11.8663V11.9133C6.58461 12.5458 5.97961 13.0591 5.23922 13.0591C4.10961 13.0591 3.04346 13.4351 2.23961 14.1219C1.44 14.8087 1 15.7196 1 16.6884V18.5211C1 18.7199 1.19038 18.8825 1.42308 18.8825H16.1207C16.3534 18.8825 16.5438 18.7199 16.5438 18.5211V16.6811C16.5438 14.6822 14.64 13.0555 12.3004 13.0555C11.56 13.0555 10.955 12.5422 10.955 11.9096V11.8626C11.8604 11.4361 12.5796 10.7565 12.9773 9.93236C13.1 9.95404 13.2227 9.9685 13.3454 9.9685C14.3946 9.9685 15.2534 9.23832 15.2534 8.33824C15.2534 7.43816 14.3988 6.70798 13.3454 6.70798C13.3369 6.70798 13.3284 6.70798 13.32 6.70798V5.91996C13.4384 5.89465 13.5611 5.87658 13.6796 5.84766C13.8657 5.80428 13.9927 5.66331 13.9927 5.50064V3.53059L15.0842 3.26671V5.8079C15.0842 6.00671 15.2746 6.16938 15.5073 6.16938C15.74 6.16938 15.9304 6.00671 15.9304 5.8079V2.78595C15.9304 2.73896 15.9177 2.69558 15.9007 2.65582C15.8965 2.64136 15.8838 2.63051 15.8796 2.61967C15.8627 2.59437 15.8457 2.56906 15.8246 2.54737C15.8119 2.53653 15.7992 2.52568 15.7865 2.51484C15.7611 2.49677 15.7357 2.48231 15.7061 2.46785C15.6892 2.46062 15.6723 2.45339 15.6554 2.44616C15.6469 2.44254 15.6384 2.43893 15.63 2.43531L8.87768 0.823126C8.80153 0.805052 8.72114 0.805052 8.64922 0.823126L1.90538 2.44616C1.72346 2.48954 1.60077 2.63051 1.60077 2.79318ZM4.18576 9.24555C3.59769 9.24555 3.11961 8.84069 3.11961 8.33824C3.11961 7.83579 3.59769 7.43093 4.18576 7.43093H4.20692V8.44668C4.20692 8.71418 4.24076 8.97806 4.29999 9.23109C4.26192 9.23832 4.22807 9.24555 4.18576 9.24555ZM15.6892 16.6811V18.1596H13.8531V17.227C13.8531 17.0282 13.6627 16.8655 13.43 16.8655C13.1973 16.8655 13.0069 17.0282 13.0069 17.227V18.1596H4.51999V17.227C4.51999 17.0282 4.32961 16.8655 4.09692 16.8655C3.86423 16.8655 3.67384 17.0282 3.67384 17.227V18.1596H1.83769V16.6811C1.83769 15.9076 2.18884 15.1774 2.83192 14.6279C3.475 14.0821 4.32961 13.7785 5.23499 13.7785C5.43807 13.7785 5.62845 13.7459 5.81461 13.7026L8.47999 15.7666C8.50537 15.7847 8.53076 15.7955 8.56037 15.81C8.57729 15.8172 8.58999 15.8281 8.60691 15.8353C8.65768 15.8534 8.71268 15.8642 8.76768 15.8642C8.82268 15.8642 8.87345 15.8534 8.92845 15.8353C8.94537 15.8281 8.95806 15.8172 8.97499 15.81C9.00037 15.7955 9.02999 15.7883 9.05537 15.7702L11.7208 13.7062C11.9069 13.7496 12.0973 13.7821 12.3004 13.7821C14.1661 13.7785 15.6892 15.0798 15.6892 16.6811ZM10.9084 13.3483L8.76345 15.0111L6.61422 13.3447C7.03307 13.0519 7.31653 12.6362 7.39268 12.1591C7.82422 12.2747 8.28537 12.3398 8.75922 12.3398C9.23729 12.3398 9.69422 12.2747 10.1258 12.1591C10.2061 12.6398 10.4938 13.0555 10.9084 13.3483ZM13.3411 7.43455C13.925 7.43455 14.4031 7.8394 14.4031 8.34186C14.4031 8.84431 13.9292 9.24916 13.3411 9.24916C13.3031 9.24916 13.265 9.24193 13.2227 9.23832C13.2819 8.98528 13.3157 8.72502 13.3157 8.45391V7.43816C13.3242 7.43455 13.3327 7.43455 13.3411 7.43455ZM12.4696 8.4503C12.4696 10.1962 10.8069 11.6168 8.76345 11.6168C6.71999 11.6168 5.0573 10.1962 5.0573 8.4503V6.09708C6.27999 6.31035 7.52383 6.41518 8.76345 6.41518C10.0073 6.41518 11.2469 6.31035 12.4696 6.09708V8.4503ZM13.1381 5.22592C10.2696 5.84766 7.25307 5.84766 4.38461 5.22592V3.73663L8.64922 4.76323C8.68729 4.77046 8.72537 4.77769 8.76345 4.77769C8.80153 4.77769 8.8396 4.77407 8.87768 4.76323L13.1381 3.73663V5.22592ZM8.76345 1.54608L13.9419 2.79318L8.76345 4.04027L3.58076 2.79318L8.76345 1.54608Z" fill="#008BE2" stroke="#008BE2" stroke-width="0.25"/>
</svg>
