<svg width="20" height="21" viewBox="0 0 20 21" fill="none" xmlns="http://www.w3.org/2000/svg">
<g id="Group 2608747">
<path id="Vector" d="M0.880353 2.84254C0.880353 3.00405 1.00637 3.14402 1.187 3.18709L2.80845 3.5783V5.53433C2.80845 5.69584 2.93447 5.8394 3.1193 5.87888C3.23692 5.90759 3.35874 5.92554 3.47636 5.95066V6.73307C3.46796 6.73307 3.46376 6.73307 3.45536 6.73307C2.40939 6.73307 1.55666 7.45806 1.55666 8.35174C1.55666 9.24541 2.40939 9.9704 3.45536 9.9704C3.57718 9.9704 3.69899 9.95604 3.82081 9.93451C4.21567 10.7492 4.92979 11.4276 5.82873 11.8511V11.8977C5.82873 12.5258 5.22803 13.0355 4.49292 13.0355C3.37134 13.0355 2.31278 13.4087 1.51465 14.0906C0.720728 14.7726 0.283859 15.677 0.283859 16.6389V18.4585C0.283859 18.6559 0.472889 18.8174 0.703925 18.8174H15.297C15.528 18.8174 15.7171 18.6559 15.7171 18.4585V16.6317C15.7171 14.6469 13.8268 13.0319 11.5038 13.0319C10.7687 13.0319 10.168 12.5222 10.168 11.8941V11.8475C11.0669 11.424 11.7811 10.7492 12.1759 9.93092C12.2977 9.95245 12.4196 9.96681 12.5414 9.96681C13.5831 9.96681 14.4359 9.24182 14.4359 8.34815C14.4359 7.45447 13.5873 6.72948 12.5414 6.72948C12.533 6.72948 12.5246 6.72948 12.5162 6.72948V5.94707C12.6338 5.92195 12.7556 5.904 12.8732 5.87529C13.0581 5.83222 13.1841 5.69225 13.1841 5.53074V3.57471L14.2678 3.31271V5.83581C14.2678 6.03321 14.4569 6.19472 14.6879 6.19472C14.919 6.19472 15.108 6.03321 15.108 5.83581V2.83536C15.108 2.7887 15.0954 2.74564 15.0786 2.70616C15.0744 2.6918 15.0618 2.68103 15.0576 2.67027C15.0408 2.64514 15.024 2.62002 15.003 2.59848C14.9904 2.58772 14.9778 2.57695 14.9652 2.56618C14.94 2.54824 14.9148 2.53388 14.8853 2.51953C14.8685 2.51235 14.8517 2.50517 14.8349 2.49799C14.8265 2.4944 14.8181 2.49081 14.8097 2.48722L8.10548 0.886506C8.02987 0.868561 7.95006 0.868561 7.87865 0.886506L1.1828 2.49799C1.00217 2.54106 0.880353 2.68103 0.880353 2.84254ZM3.44695 9.249C2.86306 9.249 2.38839 8.84703 2.38839 8.34815C2.38839 7.84927 2.86306 7.4473 3.44695 7.4473H3.46796V8.45582C3.46796 8.72141 3.50156 8.98341 3.56037 9.23464C3.52257 9.24182 3.48896 9.249 3.44695 9.249ZM14.8685 16.6317V18.0996H13.0455V17.1736C13.0455 16.9762 12.8564 16.8147 12.6254 16.8147C12.3944 16.8147 12.2053 16.9762 12.2053 17.1736V18.0996H3.77881V17.1736C3.77881 16.9762 3.58978 16.8147 3.35874 16.8147C3.1277 16.8147 2.93867 16.9762 2.93867 17.1736V18.0996H1.11559V16.6317C1.11559 15.8636 1.46424 15.1386 2.10274 14.5931C2.74124 14.0512 3.58978 13.7497 4.48872 13.7497C4.69035 13.7497 4.87938 13.7174 5.06421 13.6743L7.71062 15.7237C7.73583 15.7416 7.76103 15.7524 7.79043 15.7667C7.80724 15.7739 7.81984 15.7847 7.83664 15.7918C7.88705 15.8098 7.94166 15.8206 7.99627 15.8206C8.05088 15.8206 8.10128 15.8098 8.15589 15.7918C8.17269 15.7847 8.1853 15.7739 8.2021 15.7667C8.2273 15.7524 8.25671 15.7452 8.28191 15.7272L10.9283 13.6779C11.1132 13.721 11.3022 13.7533 11.5038 13.7533C13.3563 13.7497 14.8685 15.0417 14.8685 16.6317ZM10.1218 13.3226L7.99207 14.9735L5.85813 13.319C6.274 13.0283 6.55544 12.6155 6.63105 12.1418C7.05952 12.2566 7.51739 12.3212 7.98787 12.3212C8.46254 12.3212 8.91621 12.2566 9.34468 12.1418C9.42449 12.6191 9.71013 13.0319 10.1218 13.3226ZM12.5372 7.45088C13.1169 7.45088 13.5915 7.85286 13.5915 8.35174C13.5915 8.85062 13.1211 9.25259 12.5372 9.25259C12.4994 9.25259 12.4616 9.24541 12.4196 9.24182C12.4784 8.99059 12.512 8.73218 12.512 8.463V7.45447C12.5204 7.45088 12.5288 7.45088 12.5372 7.45088ZM11.6718 8.45941C11.6718 10.1929 10.021 11.6034 7.99207 11.6034C5.96315 11.6034 4.31229 10.1929 4.31229 8.45941V6.12293C5.52628 6.33469 6.76127 6.43877 7.99207 6.43877C9.22706 6.43877 10.4579 6.33469 11.6718 6.12293V8.45941ZM12.3355 5.25797C9.4875 5.87529 6.49243 5.87529 3.64439 5.25797V3.77928L7.87865 4.79857C7.91645 4.80575 7.95426 4.81293 7.99207 4.81293C8.02987 4.81293 8.06768 4.80934 8.10548 4.79857L12.3355 3.77928V5.25797ZM7.99207 1.60432L13.1337 2.84254L7.99207 4.08076L2.84626 2.84254L7.99207 1.60432Z" fill="#008BE2" stroke="#008BE2" stroke-width="0.25"/>
<circle id="Ellipse 80" cx="15.3579" cy="16.5119" r="4.30686" fill="white"/>
<g id="PI">
<path d="M13.69 14C14.3844 14 14.8903 14.1284 15.2077 14.3852C15.5252 14.6419 15.6839 15.0037 15.6839 15.4706C15.6839 15.746 15.6169 16.0051 15.483 16.2479C15.354 16.486 15.1333 16.6797 14.8208 16.8291C14.5133 16.9785 14.0942 17.0532 13.5635 17.0532H12.9534V19H12.2839V14H13.69ZM13.6305 14.5392H12.9534V16.514H13.4891C13.995 16.514 14.372 16.437 14.62 16.2829C14.868 16.1289 14.992 15.8674 14.992 15.4986C14.992 15.1765 14.8828 14.936 14.6646 14.7773C14.4464 14.6186 14.1017 14.5392 13.6305 14.5392Z" fill="#00465F"/>
<path d="M18.2839 19H16.3644V18.6359L16.9893 18.5028V14.5042L16.3644 14.3641V14H18.2839V14.3641L17.6589 14.5042V18.5028L18.2839 18.6359V19Z" fill="#00465F"/>
</g>
</g>
</svg>
