<svg width="24" height="17" viewBox="0 0 24 17" fill="none" xmlns="http://www.w3.org/2000/svg">
<g id="Frame 177319">
<g id="calendar_month">
<path id="Vector" d="M8.08186 14.3563C7.8687 14.3555 7.66372 14.2742 7.50811 14.1285C6.7376 13.3969 6.12403 12.5163 5.70475 11.54C5.28546 10.5638 5.06924 9.51248 5.06924 8.45003C5.06924 7.38758 5.28546 6.33624 5.70475 5.36002C6.12403 4.3838 6.7376 3.50312 7.50811 2.77159C7.67415 2.63696 7.8851 2.57036 8.09834 2.58526C8.31158 2.60016 8.51122 2.69544 8.65692 2.85186C8.80263 3.00827 8.88353 3.21416 8.88328 3.42792C8.88304 3.64168 8.80167 3.84739 8.65561 4.00347C8.05583 4.57837 7.57856 5.26867 7.25252 6.03283C6.92647 6.797 6.75839 7.61922 6.75839 8.45003C6.75839 9.28084 6.92647 10.1031 7.25252 10.8672C7.57856 11.6314 8.05583 12.3217 8.65561 12.8966C8.77898 13.0121 8.86482 13.162 8.90202 13.3268C8.93921 13.4917 8.92605 13.6639 8.86422 13.8212C8.8024 13.9785 8.69477 14.1136 8.55528 14.209C8.41579 14.3044 8.25086 14.3557 8.08186 14.3563ZM4.70686 16.6175C4.86401 16.4594 4.95222 16.2456 4.95222 16.0227C4.95222 15.7998 4.86401 15.5859 4.70686 15.4278C3.76291 14.5273 3.01149 13.4445 2.49809 12.2451C1.98469 11.0458 1.71998 9.75468 1.71998 8.45003C1.71998 7.14539 1.98469 5.85431 2.49809 4.65492C3.01149 3.45554 3.76291 2.3728 4.70686 1.47222C4.87022 1.31446 4.96421 1.09826 4.96817 0.871197C4.97212 0.644132 4.88572 0.424795 4.72795 0.261438C4.57019 0.0980811 4.354 0.00408593 4.12693 0.000130082C3.89987 -0.00382576 3.68053 0.0825816 3.51717 0.240344C2.40572 1.29942 1.52089 2.57315 0.916314 3.98434C0.311736 5.39553 0 6.91479 0 8.45003C0 9.98527 0.311736 11.5045 0.916314 12.9157C1.52089 14.3269 2.40572 15.6006 3.51717 16.6597C3.59836 16.7361 3.69388 16.7956 3.79822 16.8349C3.90255 16.8742 4.01363 16.8923 4.12503 16.8884C4.23644 16.8845 4.34596 16.8585 4.44727 16.812C4.54859 16.7655 4.63968 16.6994 4.7153 16.6175H4.70686ZM16.1228 14.1285C16.8933 13.3969 17.5069 12.5163 17.9262 11.54C18.3454 10.5638 18.5617 9.51248 18.5617 8.45003C18.5617 7.38758 18.3454 6.33624 17.9262 5.36002C17.5069 4.3838 16.8933 3.50312 16.1228 2.77159C16.0419 2.69569 15.9469 2.63647 15.8431 2.5973C15.7393 2.55813 15.6288 2.53979 15.518 2.54331C15.4071 2.54684 15.298 2.57217 15.197 2.61785C15.0959 2.66353 15.0048 2.72868 14.9289 2.80956C14.853 2.89045 14.7938 2.98549 14.7546 3.08927C14.7154 3.19304 14.6971 3.30351 14.7006 3.41438C14.7041 3.52524 14.7295 3.63433 14.7751 3.7354C14.8208 3.83648 14.886 3.92757 14.9669 4.00347C15.5699 4.5765 16.05 5.26619 16.3781 6.0306C16.7062 6.79502 16.8754 7.61818 16.8754 8.45003C16.8754 9.28188 16.7062 10.105 16.3781 10.8695C16.05 11.6339 15.5699 12.3236 14.9669 12.8966C14.804 13.049 14.7081 13.2598 14.7002 13.4827C14.6923 13.7057 14.773 13.9227 14.9247 14.0863C15.0043 14.1722 15.101 14.2405 15.2084 14.287C15.3159 14.3335 15.4319 14.3571 15.549 14.3563C15.7622 14.3555 15.9672 14.2742 16.1228 14.1285ZM20.1053 16.6597C21.22 15.6025 22.1077 14.3294 22.7144 12.918C23.321 11.5065 23.6339 9.98633 23.6339 8.45003C23.6339 6.91374 23.321 5.39353 22.7144 3.98209C22.1077 2.57065 21.22 1.29753 20.1053 0.240344C19.9393 0.105708 19.7283 0.0391121 19.5151 0.0540103C19.3018 0.0689085 19.1022 0.16419 18.9565 0.320605C18.8108 0.477021 18.7299 0.682908 18.7301 0.896671C18.7304 1.11043 18.8117 1.31614 18.9578 1.47222C19.9018 2.3728 20.6532 3.45554 21.1666 4.65492C21.68 5.85431 21.9447 7.14539 21.9447 8.45003C21.9447 9.75468 21.68 11.0458 21.1666 12.2451C20.6532 13.4445 19.9018 14.5273 18.9578 15.4278C18.7949 15.5803 18.699 15.791 18.6911 16.014C18.6832 16.2369 18.7639 16.4539 18.9156 16.6175C18.9943 16.7024 19.0896 16.7701 19.1955 16.8165C19.3015 16.863 19.4159 16.8872 19.5315 16.8875C19.7447 16.8868 19.9497 16.8054 20.1053 16.6597ZM13.5072 8.45003C13.5072 8.11628 13.4082 7.79001 13.2228 7.51251C13.0374 7.235 12.7738 7.01871 12.4655 6.89098C12.1571 6.76326 11.8178 6.72984 11.4905 6.79496C11.1631 6.86007 10.8624 7.02079 10.6264 7.25679C10.3904 7.49279 10.2297 7.79347 10.1646 8.12082C10.0995 8.44816 10.1329 8.78746 10.2606 9.09581C10.3883 9.40416 10.6046 9.66771 10.8821 9.85314C11.1597 10.0386 11.4859 10.1375 11.8197 10.1375C12.2672 10.1375 12.6964 9.95974 13.0129 9.64327C13.3294 9.32681 13.5072 8.89758 13.5072 8.45003Z" fill="#D9FDFF"/>
</g>
</g>
</svg>
