<svg width="18" height="17" viewBox="0 0 18 17" fill="none" xmlns="http://www.w3.org/2000/svg">
<path d="M15.8943 3.33034C14.3201 1.21387 11.9264 0 9.32701 0C7.49954 0 5.7666 0.604286 4.31542 1.74762C3.79035 2.16137 3.31534 2.63978 2.90181 3.16782L2.53308 1.01815C2.49271 0.783065 2.27466 0.625841 2.04648 0.667625L0.94365 0.867959C0.833955 0.8879 0.736467 0.951873 0.672576 1.04576C0.608685 1.1397 0.583711 1.25583 0.603086 1.36873L1.47919 6.47672C1.5152 6.68639 1.69237 6.83393 1.89227 6.83393C1.91652 6.83393 1.9411 6.83174 1.96579 6.82725L6.92867 5.92552C7.15708 5.88402 7.30955 5.65983 7.26924 5.42474L7.07454 4.28965C7.05516 4.17675 6.99307 4.07641 6.90179 4.01065C6.81052 3.94489 6.69769 3.91924 6.58799 3.93913L4.51991 4.31489C4.81081 3.96103 5.14006 3.63822 5.50678 3.34931C6.61336 2.47749 7.9348 2.01671 9.3283 2.01671C11.3116 2.01671 13.1376 2.94247 14.3382 4.55655C15.361 5.93168 15.8022 7.63452 15.5807 9.3513C15.3591 11.0681 14.5013 12.5934 13.1652 13.6461C12.0554 14.5204 10.7361 14.9826 9.34969 14.9826C9.06994 14.9826 8.78626 14.9632 8.50657 14.925C6.83857 14.697 5.35665 13.8141 4.33384 12.4389C3.71128 11.6019 3.29288 10.6143 3.12383 9.58282C3.1053 9.4698 3.04387 9.36894 2.9531 9.30249C2.86239 9.23604 2.74962 9.20952 2.63981 9.22849L1.53552 9.42023C1.30684 9.45994 1.15274 9.68298 1.19126 9.91836C1.41317 11.2725 1.9617 12.5681 2.77761 13.665C4.11859 15.468 6.06158 16.6257 8.24848 16.9246C8.61436 16.9746 8.98566 17 9.35204 17C11.1711 17 12.9016 16.394 14.3563 15.2478C16.1081 13.8676 17.2328 11.8678 17.5233 9.61688C17.8139 7.36595 17.2354 5.13335 15.8943 3.33034Z" fill="#008BE2"/>
</svg>
