<svg width="22" height="15" viewBox="0 0 22 15" fill="none" xmlns="http://www.w3.org/2000/svg">
<path id="Vector" d="M20.7408 4.62212L12.6012 1.22482C11.8996 0.925059 10.7067 0.925059 10.005 1.22482L1.6783 4.62212C1.09356 4.86193 1 5.20166 1 5.38152C1 5.56138 1.09356 5.88112 1.6783 6.14092L2.3566 6.4207V9.61816C1.93558 9.75805 1.63152 10.1178 1.63152 10.5174C1.63152 10.9171 1.93558 11.2768 2.33321 11.4167L1.28068 14.2745H4.22776L3.17523 11.4167C3.59625 11.2768 3.87692 10.9171 3.87692 10.5174C3.87692 10.0978 3.57286 9.75805 3.15184 9.61816V6.76043L4.39149 7.28001V11.4367C4.39149 11.4967 4.41488 11.5566 4.46166 11.6166C4.57861 11.7365 6.75384 14.2745 11.1979 14.2745C15.6419 14.2745 17.8171 11.7165 17.9107 11.6166C17.9575 11.5566 17.9808 11.4967 17.9808 11.4367V7.3L20.7408 6.14092C21.3256 5.90111 21.4191 5.56138 21.4191 5.38152C21.3957 5.20166 21.3256 4.86193 20.7408 4.62212ZM17.2324 11.3368C16.8581 11.7365 14.8466 13.655 11.1979 13.655C7.54909 13.655 5.53758 11.7365 5.16335 11.3368V7.55979L10.005 9.53822C10.3558 9.67811 10.8236 9.75805 11.2914 9.75805C11.7826 9.75805 12.2504 9.67811 12.6012 9.51824L17.2324 7.57978V11.3368ZM20.4134 5.58136L17.6066 6.76043C17.4897 6.76043 17.3961 6.8004 17.3493 6.88033L12.2738 8.97867C11.7826 9.19849 10.8236 9.19849 10.3091 8.97867L4.06404 6.4207L11.2446 5.70127C11.4552 5.68128 11.5955 5.52141 11.5721 5.36154C11.5487 5.18168 11.3616 5.06178 11.1745 5.08176L2.84778 5.92109L2.00575 5.58136C1.79525 5.50143 1.74847 5.40151 1.74847 5.40151C1.74847 5.38152 1.79525 5.30159 2.00575 5.22165L10.3324 1.80436C10.5897 1.70444 10.9406 1.64449 11.2914 1.64449C11.6657 1.64449 12.0399 1.70444 12.2738 1.80436L20.4134 5.20166C20.6239 5.2816 20.6707 5.36154 20.6707 5.40151C20.6707 5.40151 20.6005 5.50143 20.4134 5.58136Z" fill="#008BE2" stroke="#008BE2" stroke-width="0.25"/>
</svg>
