<svg width="42" height="38" viewBox="0 0 42 38" fill="none" xmlns="http://www.w3.org/2000/svg">
<path d="M24.5989 21.3333H23.8625L23.6015 21.0813C24.515 20.0173 25.065 18.636 25.065 17.1333C25.065 13.7827 22.3524 11.0667 19.006 11.0667C15.6596 11.0667 12.947 13.7827 12.947 17.1333C12.947 20.484 15.6596 23.2 19.006 23.2C20.5068 23.2 21.8864 22.6493 22.949 21.7347L23.2007 21.996V22.7333L27.8615 27.3907L29.2504 26L24.5989 21.3333ZM19.006 21.3333C16.685 21.3333 14.8113 19.4573 14.8113 17.1333C14.8113 14.8093 16.685 12.9333 19.006 12.9333C21.3271 12.9333 23.2007 14.8093 23.2007 17.1333C23.2007 19.4573 21.3271 21.3333 19.006 21.3333Z" fill="#008BE2"/>
<path d="M32.9189 1.43286H8.45137C4.24171 1.43286 0.829102 4.84979 0.829102 9.06478V29.0508C0.829102 33.2658 4.24171 36.6828 8.45137 36.6828H32.9189C37.1286 36.6828 40.5412 33.2658 40.5412 29.0508V9.06478C40.5412 4.84979 37.1286 1.43286 32.9189 1.43286Z" stroke="#A8C9E5" stroke-miterlimit="10"/>
</svg>
