<svg width="199" height="37" viewBox="0 0 199 37" fill="none" xmlns="http://www.w3.org/2000/svg">
<path d="M181.136 20.7011H180.437L180.189 20.4634C181.056 19.4595 181.578 18.1562 181.578 16.7385C181.578 13.5772 179.004 11.0146 175.828 11.0146C172.652 11.0146 170.077 13.5772 170.077 16.7385C170.077 19.8998 172.652 22.4623 175.828 22.4623C177.252 22.4623 178.561 21.9427 179.57 21.0798L179.809 21.3263V22.022L184.232 26.4161L185.551 25.104L181.136 20.7011ZM175.828 20.7011C173.625 20.7011 171.847 18.9311 171.847 16.7385C171.847 14.5458 173.625 12.7758 175.828 12.7758C178.031 12.7758 179.809 14.5458 179.809 16.7385C179.809 18.9311 178.031 20.7011 175.828 20.7011Z" fill="#008BE2"/>
<path d="M165.061 0.5H190.939C195.118 0.5 198.5 3.86567 198.5 8.01082V28.9892C198.5 33.1343 195.118 36.5 190.939 36.5H165.061C160.882 36.5 157.5 33.1343 157.5 28.9892V8.01082C157.5 3.86567 160.882 0.5 165.061 0.5Z" stroke="#B3D2E2"/>
</svg>
