<svg width="16" height="16" viewBox="0 0 16 16" fill="none" xmlns="http://www.w3.org/2000/svg">
<g id="Group 2610953">
<path id="Vector" fill-rule="evenodd" clip-rule="evenodd" d="M13.1832 3.12094C11.7731 1.71597 9.89783 0.941895 7.90002 0.941071C3.78334 0.941071 0.432955 4.27533 0.4313 8.37341C0.430748 9.68344 0.774617 10.9622 1.42823 12.0894L0.368652 15.9411L4.32794 14.9074C5.41888 15.4997 6.64708 15.8118 7.89699 15.8122H7.90011C12.0163 15.8122 15.3671 12.4776 15.3687 8.37936C15.3695 6.39322 14.5933 4.52582 13.1832 3.12094ZM7.90002 14.5569H7.89745C6.7836 14.5564 5.69118 14.2585 4.73795 13.6957L4.51137 13.5618L2.16187 14.1752L2.78899 11.8954L2.64134 11.6617C2.01993 10.6781 1.69179 9.54117 1.69234 8.37387C1.69363 4.96765 4.47844 2.19644 7.90251 2.19644C9.56059 2.19699 11.1192 2.84042 12.2912 4.00818C13.4632 5.17593 14.1083 6.72812 14.1077 8.37891C14.1062 11.7854 11.3216 14.5569 7.90002 14.5569Z" fill="white"/>
<path id="B" d="M6.36865 11.5V5.5H8.37989C8.78064 5.5 9.11116 5.57227 9.37146 5.7168C9.63176 5.85937 9.82558 6.05176 9.95292 6.29395C10.0803 6.53418 10.1439 6.80078 10.1439 7.09375C10.1439 7.35156 10.0999 7.56445 10.0119 7.73242C9.92577 7.90039 9.81154 8.0332 9.66921 8.13086C9.52876 8.22852 9.37614 8.30078 9.21135 8.34766V8.40625C9.38738 8.41797 9.56435 8.48242 9.74225 8.59961C9.92015 8.7168 10.069 8.88477 10.1889 9.10352C10.3087 9.32227 10.3687 9.58984 10.3687 9.90625C10.3687 10.207 10.3031 10.4775 10.172 10.7178C10.0409 10.958 9.83401 11.1484 9.55124 11.2891C9.26847 11.4297 8.90049 11.5 8.4473 11.5H6.36865ZM7.06528 10.8555H8.4473C8.90236 10.8555 9.22539 10.7637 9.41641 10.5801C9.60929 10.3945 9.70573 10.1699 9.70573 9.90625C9.70573 9.70312 9.65611 9.51562 9.55685 9.34375C9.4576 9.16992 9.31622 9.03125 9.1327 8.92773C8.94918 8.82227 8.73195 8.76953 8.48101 8.76953H7.06528V10.8555ZM7.06528 8.13672H8.35742C8.56715 8.13672 8.75629 8.09375 8.92483 8.00781C9.09524 7.92188 9.23008 7.80078 9.32933 7.64453C9.43045 7.48828 9.48101 7.30469 9.48101 7.09375C9.48101 6.83008 9.393 6.60645 9.21697 6.42285C9.04094 6.2373 8.76191 6.14453 8.37989 6.14453H7.06528V8.13672Z" fill="white"/>
</g>
</svg>
