<svg width="50" height="50" viewBox="0 0 50 50" fill="none" xmlns="http://www.w3.org/2000/svg">
<path d="M43.1067 13.6948V46.7789C43.1067 48.5581 41.6636 49.9999 39.8857 49.9999H10.1146C8.33535 49.9999 6.89355 48.5581 6.89355 46.7789V3.221C6.89346 1.4418 8.33525 0 10.1146 0H29.4119L43.1067 13.6948Z" fill="#28B446"/>
<path d="M43.1064 13.6948H32.6326C30.8533 13.6948 29.4116 12.253 29.4116 10.4738V0L43.1064 13.6948Z" fill="#6ACE7C"/>
<path d="M32.9214 24.897H17.0777C16.5094 24.897 16.0488 25.3576 16.0488 25.9259V39.7119C16.0488 40.2801 16.5094 40.7408 17.0777 40.7408H32.9214C33.4897 40.7408 33.9503 40.2802 33.9503 39.7119V25.9259C33.9503 25.3577 33.4897 24.897 32.9214 24.897ZM18.1066 31.5118H23.9707V34.1264H18.1066V31.5118ZM26.0284 31.5118H31.8925V34.1264H26.0284V31.5118ZM31.8926 29.4541H26.0285V26.9548H31.8926V29.4541ZM23.9707 26.9548V29.454H18.1066V26.9548H23.9707ZM18.1066 36.1841H23.9707V38.6833H18.1066V36.1841ZM26.0284 38.6832V36.184H31.8925V38.6832H26.0284Z" fill="white"/>
</svg>
