<svg width="17" height="14" viewBox="0 0 17 14" fill="none" xmlns="http://www.w3.org/2000/svg">
<path d="M13.8034 2.09497C13.8034 1.8943 13.7988 1.72856 13.8034 1.56223C13.8194 1.04784 14.2934 0.765487 14.7096 1.03896C15.2714 1.40793 15.8256 1.78992 16.3721 2.18494C16.7483 2.45664 16.7432 2.9219 16.363 3.19478C15.816 3.58703 15.2615 3.96844 14.6993 4.33899C14.2693 4.62134 13.8177 4.35615 13.8034 3.82874C13.7988 3.66122 13.8034 3.49371 13.8034 3.30133C13.7299 3.28956 13.6558 3.28186 13.5816 3.27824C13.1339 3.27824 12.6857 3.29008 12.2386 3.2741C11.5685 3.25042 11.0477 3.52034 10.6303 4.05782C9.70584 5.24819 8.76993 6.42969 7.83802 7.61356C6.79176 8.94383 5.74493 10.2731 4.69754 11.6014C4.08751 12.3751 3.30196 12.7628 2.3346 12.7521C1.98242 12.7486 1.62966 12.7521 1.27748 12.7521C0.90872 12.748 0.656589 12.51 0.651444 12.1708C0.646298 11.8157 0.901287 11.576 1.28777 11.5718C1.61137 11.5683 1.93554 11.5641 2.2597 11.5718C2.88346 11.5878 3.38371 11.3433 3.77706 10.842C4.9834 9.30293 6.19164 7.76707 7.40179 6.23436C8.19592 5.22807 8.98661 4.21468 9.78531 3.21076C10.385 2.45664 11.162 2.08609 12.1065 2.09497C12.6571 2.09852 13.2088 2.09497 13.8034 2.09497Z" fill="#008BE2"/>
<path d="M13.8036 11.5691C13.8036 11.3649 13.799 11.1897 13.8036 11.0151C13.819 10.5066 14.2707 10.2261 14.6818 10.4918C15.2535 10.862 15.8157 11.2489 16.3683 11.6526C16.7571 11.9379 16.7411 12.4026 16.3466 12.6838C15.8132 13.0632 15.2695 13.4266 14.7321 13.799C14.5257 13.9422 14.3096 13.986 14.0894 13.8522C13.8836 13.7273 13.7944 13.5284 13.8036 13.2804C13.8082 13.1147 13.8036 12.9489 13.8036 12.7518C13.2776 12.7518 12.7745 12.7364 12.2742 12.7518C11.1714 12.7933 10.3035 12.3558 9.63571 11.4496C9.2092 10.8695 8.7484 10.3166 8.31103 9.74481C8.21373 9.62522 8.14081 9.48649 8.09663 9.33697C8.0326 9.08362 8.18182 8.82495 8.41851 8.70893C8.66607 8.58699 8.93306 8.65565 9.12859 8.90604C9.642 9.55361 10.1529 10.2034 10.6614 10.8553C10.8297 11.0828 11.0478 11.2658 11.2976 11.3893C11.5474 11.5127 11.822 11.5732 12.0987 11.5656L13.8036 11.5691Z" fill="#008BE2"/>
<path d="M6.41671 5.58054C6.37326 5.87236 6.24519 6.06296 6.01193 6.15175C5.75751 6.24824 5.52597 6.18017 5.34873 5.95405C4.84447 5.31239 4.33506 4.67488 3.83709 4.0279C3.44946 3.52416 2.95664 3.26667 2.33289 3.27614C1.9807 3.28127 1.62852 3.28127 1.27634 3.27614C0.908721 3.27141 0.656591 3.03345 0.651445 2.69427C0.6463 2.3551 0.895571 2.09524 1.25862 2.0976C1.79032 2.10056 2.32545 2.08991 2.85373 2.14259C3.62155 2.21895 4.22015 2.63922 4.70154 3.24951C5.19494 3.87518 5.69119 4.49789 6.17659 5.13008C6.27835 5.26208 6.33781 5.4296 6.41671 5.58054Z" fill="#008BE2"/>
</svg>
