<svg width="61" height="56" viewBox="0 0 61 56" fill="none" xmlns="http://www.w3.org/2000/svg">
<g id="Frame 177069">
<g id="Clip path group">
<g id="Group">
<g id="Mask group">
<rect id="Rectangle 652" x="-2" y="0.915039" width="63" height="70" rx="8" fill="#039BDC"/>
<g id="Mask group_2">
<mask id="mask0_992_6645" style="mask-type:alpha" maskUnits="userSpaceOnUse" x="-2" y="0" width="63" height="71">
<rect id="Rectangle 651" x="-2" y="0.967285" width="63" height="70" rx="8" fill="#D9D9D9"/>
</mask>
<g mask="url(#mask0_992_6645)">
<g id="Group_2">
<path id="Vector" d="M34.5661 19.115C34.5661 19.115 37.7963 15.5467 36.0344 12.896C34.2724 10.2453 29.613 12.2231 26.7939 12.998C23.9747 13.7728 20.9403 14.3233 20.5487 15.3632L20.1767 16.4031C20.1767 16.4031 18.6302 17.178 18.8651 19.3189C19.1 21.4599 20.5878 33.5921 24.0726 32.9193C27.5573 32.226 34.5661 19.1354 34.5661 19.1354V19.115Z" fill="#120054"/>
<path id="Vector_2" d="M59.6639 53.9824C57.7845 60.2218 54.3192 65.7475 49.7772 70.0295C49.464 69.01 49.2094 68.0517 49.0332 67.1137C48.6613 65.2582 48.5242 63.5454 48.5438 61.9957C48.7592 52.6774 55.2982 48.7625 55.2982 48.7625L60.1926 52.0249C60.0359 52.6978 59.8597 53.3503 59.6639 54.0028V53.9824Z" fill="#039BDC"/>
<path id="Vector_3" d="M34.273 45.8469C34.273 45.8469 33.0591 43.4001 25.9329 42.5437C18.8067 41.6873 15.0674 46.1528 14.1276 47.2946C13.1683 48.4365 37.1704 47.8655 34.273 45.8469Z" fill="#039BDC"/>
<path id="Vector_4" d="M59.6644 53.9824C57.785 60.2219 54.3197 65.7476 49.7777 70.0296C49.4057 70.3762 49.0338 70.7228 48.6423 71.0491C48.0745 71.5384 47.5068 72.0074 46.9194 72.456C44.531 74.2707 41.9076 75.7796 39.108 76.9011C35.1926 78.4916 30.9245 79.3683 26.4608 79.3683C26.3629 79.3683 26.2653 79.3683 26.187 79.3683C22.7217 79.3479 19.3934 78.777 16.2414 77.7779C15.6541 77.5944 15.0863 77.3905 14.5186 77.1662C14.2249 77.0642 13.9314 76.9419 13.6377 76.8195C5.70882 73.5367 -0.791039 67.3177 -4.60865 59.447C-4.86316 58.9169 -5.11766 58.3867 -5.33301 57.8362C-0.810606 52.9221 6.39402 49.2519 13.1287 46.9478C13.7356 46.7439 14.3426 46.54 14.9299 46.3565C14.9299 46.3565 14.9493 46.3565 14.9688 46.3565C16.1631 45.9894 17.3378 45.6632 18.4733 45.3777C18.7082 45.3166 18.9235 45.2554 19.1585 45.2146C19.55 45.1331 19.9221 45.0311 20.2941 44.9699C21.2142 44.766 22.0952 44.6233 22.9174 44.4806C24.4445 44.2563 27.2245 44.1543 30.5527 44.2155C31.1204 44.2155 31.7078 44.2359 32.2951 44.2563C40.6547 44.5213 51.3636 45.7244 54.5155 48.11C54.7896 48.3139 55.0442 48.5382 55.3183 48.7625C56.767 50.0267 58.2353 51.7803 59.684 53.9824H59.6644Z" fill="#E2DAFF"/>
<path id="Vector_5" d="M48.5632 61.9756C48.4065 61.6901 48.25 61.527 48.1325 61.4046C46.9383 60.1812 44.5303 61.5678 42.7683 62.5873C42.7683 62.5873 42.7291 62.5873 42.7291 62.6077C42.827 61.9552 42.9835 61.1192 43.101 60.4259C43.4338 58.6112 43.7276 56.9188 43.7276 56.1032C43.7276 55.6546 43.7274 54.839 39.1855 50.1288C37.0515 47.9063 34.8785 45.8264 34.8589 45.8061C34.6631 45.6225 34.3891 45.5614 34.1346 45.6225C33.9975 45.6633 33.8802 45.7449 33.7823 45.8468C33.5669 46.0915 33.5276 46.4178 33.6451 46.7032C33.6843 46.8052 33.7429 46.8867 33.8212 46.9683C37.6389 50.6182 41.9068 55.1448 42.1809 56.1439C42.1809 56.8168 41.8482 58.6519 41.5741 60.12C40.9476 63.6068 40.8889 64.0758 41.3588 64.4836C41.8482 64.8914 42.318 64.6263 43.4731 63.9534C46.0573 62.4649 46.8207 62.3426 47.0361 62.5057C47.3689 62.832 48.0738 64.4836 46.8991 72.4154C47.4864 71.9668 48.0738 71.4978 48.6219 71.0085C48.8177 69.4384 48.9547 68.1538 49.0134 67.0527C49.1896 63.933 48.8764 62.6077 48.524 61.9348L48.5632 61.9756Z" fill="#039BDC"/>
<path id="Vector_6" d="M39.1089 76.9012C35.1934 78.4916 30.9253 79.3684 26.4617 79.3684C26.3638 79.3684 26.2661 79.3684 26.1878 79.3684C21.1172 68.4188 16.4185 56.572 16.0269 49.7413C15.9878 49.048 16.1053 48.3752 16.3403 47.7634C16.6731 46.8867 17.28 46.1322 18.0827 45.6225L18.4741 45.3778L19.1201 44.97C19.1201 44.97 19.5706 44.97 20.2949 44.97C22.6442 44.97 27.9498 45.1127 30.8276 46.0914C31.5716 46.3361 32.1393 46.642 32.4721 47.009C33.7251 48.5179 37.3273 61.8939 39.0893 76.9012H39.1089Z" fill="#039BDC"/>
<g id="Group_3">
<path id="Vector_7" d="M24.3076 27.842L19.1195 44.9699C18.9433 46.0302 25.9327 53.5338 30.5921 50.1898C31.9038 49.2518 30.9639 46.6827 30.7094 45.6224L29.2999 32.5318L24.3076 27.842Z" fill="white"/>
<path id="Vector_8" d="M30.2017 40.9125L29.4773 34.2245L26.2666 33.2253C26.2666 33.2253 25.7772 37.385 27.5588 39.4852C28.3419 40.4231 29.3403 40.7901 30.2017 40.9125Z" fill="#120054"/>
<path id="Vector_9" d="M26.8144 20.7259L23.7798 28.984C22.9967 31.7979 24.4848 34.7545 27.1473 35.6516C29.2813 36.3653 30.6908 36.4468 33.4708 36.2429C35.7809 36.0798 37.0729 33.8165 37.2295 30.6764C37.4253 26.5983 36.4857 22.7854 35.8788 20.7667C34.4888 16.1789 29.1833 15.4856 26.834 20.7259H26.8144Z" fill="white"/>
<path id="Vector_10" d="M36.8569 26.2927C36.8569 26.2927 34.2924 26.7005 30.8271 25.946C30.8271 25.946 31.2579 27.9239 32.5696 28.8619C33.8617 29.7998 35.7214 29.0046 36.8569 26.2927Z" fill="#CACACA"/>
<path id="Vector_11" d="M24.8172 22.5408C24.5822 21.6437 24.0145 20.3795 22.9182 21.399C21.3128 22.8875 22.4484 27.251 24.6802 27.0063C26.3247 26.8228 24.9542 23.0302 24.8172 22.5408Z" fill="white"/>
<path id="Vector_12" d="M33.6281 24.1983C34.1799 24.0751 34.6529 23.8286 35.0865 23.459C35.4216 23.1715 35.7765 23.7465 35.4414 24.034C34.9684 24.4447 34.4361 24.7117 33.8449 24.8554C33.431 24.9581 33.2339 24.301 33.6478 24.1983H33.6281Z" fill="#CACACA"/>
<path id="Vector_13" d="M34.5882 20.1807C35.0612 20.2833 35.4949 20.4476 35.9285 20.6325C36.3227 20.8173 36.579 20.1601 36.1848 19.9753C35.692 19.7494 35.1796 19.5851 34.6671 19.4824C34.2335 19.3797 34.1546 20.0985 34.5882 20.1807Z" fill="#CACACA"/>
<path id="Vector_14" d="M32.3546 19.36C31.9435 19.4212 30.9255 19.5639 30.5144 19.6455C30.0837 19.727 30.2011 20.4203 30.6318 20.3387C31.0429 20.2572 32.061 20.1145 32.4722 20.0533C32.9029 19.9921 32.7853 19.2988 32.3546 19.36Z" fill="#CACACA"/>
</g>
<path id="Vector_15" d="M35.663 22.2377C35.6236 22.5249 35.722 22.7915 35.8794 22.812C36.0369 22.8326 36.1944 22.6069 36.2338 22.3198C36.2731 22.0326 36.1745 21.7659 36.0171 21.7454C35.8596 21.7249 35.7023 21.9506 35.663 22.2377Z" fill="#120054"/>
<path id="Vector_16" d="M31.454 21.5851C31.4146 21.8723 31.513 22.1389 31.6704 22.1595C31.8279 22.18 31.9854 21.9543 32.0248 21.6672C32.0641 21.38 31.9658 21.1134 31.8083 21.0928C31.6509 21.0723 31.4934 21.298 31.454 21.5851Z" fill="#120054"/>
<path id="Vector_17" d="M18.3361 69.5606C18.0229 70.2947 17.0832 70.4986 15.654 70.7841C14.6164 71.0084 12.8543 71.355 12.5606 71.9463C12.541 71.9871 12.4823 72.1094 12.5998 72.4153C12.8543 73.0474 14.2051 75.0049 16.2608 77.7575C15.6735 77.574 15.1057 77.3701 14.538 77.1458C14.2443 77.0439 13.9507 76.9215 13.6571 76.7992C12.3258 74.9437 11.4252 73.5775 11.1903 72.9862C11.0532 72.6396 11.0142 72.3133 11.0142 72.0483C11.0142 71.6812 11.1316 71.3754 11.2295 71.1715C11.8755 69.9277 13.7354 69.5403 15.3799 69.1936C15.7519 69.1121 16.2021 69.0305 16.5349 68.9286C15.9867 68.5819 15.0274 68.1333 14.2638 67.7867C12.0516 66.7672 9.27174 65.503 8.31245 63.5047C6.94202 60.6705 11.4448 50.4957 13.1284 46.907C13.2851 46.5604 13.4416 46.2546 13.5395 46.0507C13.7353 45.6632 14.1856 45.5001 14.5576 45.704C14.7925 45.8264 14.9294 46.0507 14.9686 46.2953C14.9686 46.2953 14.9686 46.2953 14.9686 46.3157C14.9686 46.4585 14.9688 46.6216 14.8905 46.7643C14.773 47.0294 14.6358 47.2741 14.5184 47.5391C11.4838 53.9825 8.91924 61.2618 9.66318 62.8115C10.3875 64.3 12.874 65.4418 14.8709 66.3594C16.5545 67.1342 17.7878 67.6847 18.2381 68.48C18.4339 68.8266 18.4731 69.1936 18.3165 69.5199L18.3361 69.5606Z" fill="#039BDC"/>
<path id="Vector_18" d="M36.2493 14.9351C36.2493 14.9351 35.6816 17.9121 32.882 18.483C30.0824 19.0539 26.03 20.8279 24.9729 19.8696C23.9157 18.9112 28.4379 13.8544 30.9243 12.8553C33.4302 11.8562 36.1514 13.7117 36.2493 14.9147V14.9351Z" fill="#120054"/>
</g>
</g>
</g>
</g>
</g>
</g>
</g>
</svg>
