<svg width="16" height="17" viewBox="0 0 16 17" fill="none" xmlns="http://www.w3.org/2000/svg">
<path id="Vector" fill-rule="evenodd" clip-rule="evenodd" d="M13.6688 2.8252C12.1648 1.32656 10.1645 0.500879 8.03346 0.5C3.64233 0.5 0.0685899 4.05654 0.0668237 8.42783C0.0662349 9.8252 0.433029 11.1893 1.13021 12.3916L0 16.5L4.22324 15.3975C5.38691 16.0292 6.69699 16.3621 8.03022 16.3625H8.03356C12.4242 16.3625 15.9983 12.8057 16 8.43418C16.0009 6.31563 15.173 4.32373 13.6688 2.8252ZM8.03346 15.0235H8.03071C6.84261 15.023 5.67736 14.7053 4.66058 14.105L4.4189 13.9621L1.91277 14.6164L2.58169 12.1847L2.4242 11.9354C1.76136 10.8861 1.41134 9.67344 1.41193 8.42832C1.41331 4.79502 4.38377 1.83906 8.03611 1.83906C9.80473 1.83965 11.4673 2.52598 12.7174 3.77158C13.9675 5.01719 14.6556 6.67285 14.655 8.43369C14.6534 12.0673 11.6832 15.0235 8.03346 15.0235ZM11.6655 10.0881C11.4665 9.98887 10.4878 9.50977 10.3053 9.44355C10.123 9.37744 9.99009 9.34453 9.85752 9.54277C9.72476 9.74102 9.34334 10.1873 9.22716 10.3194C9.11098 10.4517 8.995 10.4683 8.7959 10.369C8.5968 10.2699 7.95545 10.0606 7.19507 9.38574C6.60338 8.86045 6.20391 8.21172 6.08772 8.01348C5.97174 7.81504 6.08674 7.71816 6.17506 7.60918C6.39054 7.34287 6.60632 7.06367 6.67265 6.93154C6.73908 6.79932 6.70582 6.68359 6.65597 6.58447C6.60632 6.48535 6.20822 5.51025 6.04239 5.11348C5.88068 4.72734 5.71671 4.77949 5.59445 4.77344C5.47846 4.76768 5.3457 4.7665 5.21293 4.7665C5.08027 4.7665 4.86459 4.81602 4.68207 5.01445C4.49966 5.21279 3.98548 5.69199 3.98548 6.66709C3.98548 7.64219 4.69875 8.58418 4.79825 8.71641C4.89775 8.84863 6.20194 10.8496 8.1987 11.7076C8.67363 11.9119 9.04435 12.0337 9.33353 12.125C9.81042 12.2758 10.2442 12.2545 10.5873 12.2035C10.9698 12.1466 11.7649 11.7242 11.9309 11.2615C12.0968 10.7987 12.0968 10.4021 12.0469 10.3194C11.9973 10.2368 11.8645 10.1873 11.6655 10.0881Z" fill="#008BE2"/>
</svg>
