<svg width="50" height="50" viewBox="0 0 50 50" fill="none" xmlns="http://www.w3.org/2000/svg">
<g clip-path="url(#clip0_15303_43321)">
<path d="M47.5245 0.324951H15.8271C16.965 0.324951 17.9829 1.03267 18.379 2.09946L19.9979 7.11226C20.5356 8.56001 21.9172 9.52075 23.4616 9.52075H47.2783C48.7818 9.52075 50.0007 10.7396 50.0007 12.2431V2.80112C50.0007 1.43921 48.8864 0.324951 47.5245 0.324951Z" fill="#FEC458"/>
<path d="M29.6075 7.11201L27.9887 2.09922C27.5926 1.03252 26.5747 0.324707 25.4368 0.324707H15.8276C16.9655 0.324707 17.9834 1.03242 18.3795 2.09922L19.9983 7.11201C20.5361 8.55977 21.9176 9.52051 23.4621 9.52051H33.0713C31.5269 9.52041 30.1453 8.55977 29.6075 7.11201Z" fill="#F9AB49"/>
<path d="M47.2776 8.86758H24.1145C22.5699 8.86758 21.1885 7.90693 20.6507 6.45908L19.0318 2.09971C18.6357 1.03301 17.6179 0.325195 16.48 0.325195H2.72236C1.21885 0.325195 0 1.54404 0 3.04756V37.6031C0 39.1065 1.21875 40.3254 2.72227 40.3254H47.2777C48.7812 40.3254 50.0001 39.1065 50.0001 37.603V11.5899C50 10.0864 48.7812 8.86758 47.2776 8.86758Z" fill="#FFE181"/>
<path d="M8.7126 37.6031V3.04756C8.7126 1.54404 9.93145 0.325195 11.435 0.325195H2.72236C1.21885 0.325293 0 1.54404 0 3.04756V37.6031C0 39.1065 1.21885 40.3254 2.72227 40.3254H11.4349C9.93145 40.3253 8.7126 39.1065 8.7126 37.6031Z" fill="#FEC458"/>
<path d="M39.8937 24.5486H10.1053C8.32354 24.5486 6.86572 26.0064 6.86572 27.7881V46.4355C6.86572 48.2172 8.32354 49.675 10.1053 49.675H39.8937C41.6754 49.675 43.1332 48.2172 43.1332 46.4355V27.7881C43.1333 26.0064 41.6755 24.5486 39.8937 24.5486Z" fill="#9DC6FB"/>
<path d="M14.1163 46.4355V27.7881C14.1163 26.0064 15.5741 24.5486 17.3559 24.5486H10.1067C8.325 24.5486 6.86719 26.0064 6.86719 27.7881V46.4355C6.86719 48.2172 8.325 49.675 10.1067 49.675H17.3559C15.574 49.6751 14.1163 48.2172 14.1163 46.4355Z" fill="#80B4FB"/>
<path d="M14.7869 41.6754H20.0499C20.6304 41.6754 20.9593 42.372 20.9593 42.991C20.9593 43.6103 20.6304 44.3068 20.0499 44.3068H11.8072C11.1881 44.3068 10.9365 43.9779 10.9365 43.5136C10.9365 43.204 11.0526 42.817 11.2654 42.4494L16.7219 32.7942H12.2329C11.6524 32.7942 11.3235 32.175 11.3235 31.4784C11.3235 30.8398 11.5944 30.1626 12.2329 30.1626H19.7017C20.2821 30.1626 20.5724 30.4915 20.5724 30.9559C20.5724 31.2654 20.4563 31.6331 20.2435 32.0201L14.7869 41.6754Z" fill="#DFEBFA"/>
<path d="M23.3647 31.072C23.3647 30.4335 24.1193 30.1626 24.8739 30.1626C25.6286 30.1626 26.3832 30.4336 26.3832 31.072V43.378C26.3832 43.9972 25.6286 44.3067 24.8739 44.3067C24.1193 44.3067 23.3647 43.9972 23.3647 43.378V31.072Z" fill="#DFEBFA"/>
<path d="M34.5469 30.1626H30.5416C29.8644 30.1626 29.4194 30.5883 29.4194 31.072V43.378C29.4194 43.9972 30.174 44.3067 30.9286 44.3067C31.6833 44.3067 32.4379 43.9972 32.4379 43.378V39.6728H34.3534C37.0236 39.6728 39.1133 37.9603 39.1133 34.7097V34.6129C39.1133 31.3623 37.101 30.1626 34.5469 30.1626ZM36.0948 34.9419C36.0948 36.2575 35.4369 36.8768 34.3534 36.8768H32.4378V32.7941H34.3533C35.4368 32.7941 36.0947 33.4133 36.0947 34.729L36.0948 34.9419Z" fill="#DFEBFA"/>
</g>
<defs>
<clipPath id="clip0_15303_43321">
<rect width="50" height="50" fill="white"/>
</clipPath>
</defs>
</svg>
